<svg width="50" height="50" viewBox="0 0 50 50" fill="none" xmlns="http://www.w3.org/2000/svg">
<g clip-path="url(#clip0_634_8485)">
<g clip-path="url(#clip1_634_8485)">
<path fill-rule="evenodd" clip-rule="evenodd" d="M11 50L39 50L44 50L44 49L46 49L46 48L47 48L47 47L48 47L48 46L49 46L49 45L50 45L50 4.99999L49 4.99999L49 3.99999L48 3.99999L48 2.99999L47 2.99999L47 1.99999L46 1.99999L46 0.999992L44 0.999992L44 -8.15393e-06L39 -8.59105e-06L11 -7.22419e-06L6 -7.6613e-06L6 0.999992L4 0.999992L4 1.99999L3 1.99999L3 2.99999L2 2.99999L2 3.99999L1 3.99999L1 4.99999L1.19328e-07 4.99999L-3.37758e-06 45L1 45L0.999997 46L2 46L2 47L3 47L3 48L4 48L4 49L6 49L6 50L11 50ZM48 4.99999L47 4.99999L47 3.99999L46 3.99999L46 2.99999L44 2.99999L44 1.99999L39 2L11 1.99999L6 1.99999L6 2.99999L4 2.99999L4 3.99999L3 3.99999L3 4.99999L2 4.99999L2 45L3 45L3 46L4 46L4 47L6 47L6 48L11 48L39 48L44 48L44 47L46 47L46 46L47 46L47 45L48 45L48 4.99999Z" fill="#0E0E0E"/>
<path fill-rule="evenodd" clip-rule="evenodd" d="M43 2H38H6V3H4V4H3V5H2V11V45H3L3 46H4V47H6V48H12H44V47H46V46H47V45H48V39V5H47V4H46V3L44 3V2H43Z" fill="#5C6E7E"/>
</g>
<path fill-rule="evenodd" clip-rule="evenodd" d="M39 24.875V20.5H11.5V24.875V29.25V31.75H14V34.25H21.5V31.75L29 31.75V34.25H36.5V31.75H39V29.25V24.875Z" fill="white"/>
<path fill-rule="evenodd" clip-rule="evenodd" d="M26.5 8V13H24V8H26.5ZM24 15.5H21.5V13L24 13V15.5ZM36.5 20.5V18H26.5V15.5L24 15.5V18H14V20.5H11.5V23H9V31.75H11.5V34.25H14V36.75H21.5V34.25H29V36.75H36.5V34.25H39V31.75H41.5V23H39V20.5H36.5ZM36.5 20.5V23H39V31.75H36.5V34.25H29V31.75H21.5V34.25H14V31.75H11.5V23H14V20.5H36.5ZM34 26.125V23.625H31.5V26.125H29V28.625H31.5V31.125H34V28.625H36.5V26.125H34ZM34 26.125V28.625H31.5V26.125H34ZM19 23.625V26.125H21.5V28.625H19V31.125H16.5V28.625H14V26.125H16.5V23.625H19Z" fill="#0E0E0E"/>
</g>
<defs>
<clipPath id="clip0_634_8485">
<rect width="50" height="50" fill="white"/>
</clipPath>
<clipPath id="clip1_634_8485">
<rect width="50" height="50" fill="white"/>
</clipPath>
</defs>
</svg>
