<svg width="32" height="33" viewBox="0 0 32 33" fill="none" xmlns="http://www.w3.org/2000/svg">
<g clip-path="url(#clip0_634_9100)">
<mask id="path-1-outside-1_634_9100" maskUnits="userSpaceOnUse" x="5" y="0.5" width="23" height="32" fill="black">
<rect fill="white" x="5" y="0.5" width="23" height="32"/>
<path fill-rule="evenodd" clip-rule="evenodd" d="M17 28.5H16H15H14L14 30.5H13H12H11L11 28.5H10H9H8H7V16.5V4.5L8 4.5H9H10H11L11 2.5H12H13H14L14 4.5H15H16H17L17 2.5H18H19H20L20 4.5H21H22L22 5.5H23H24L24 6.5H25L25 7.5H26L26 13.5H25V14.5H24V15.5H23V16.5V17.5H24V18.5H25V19.5H26L26 25.5H25L25 26.5H24L24 27.5H23H22L22 28.5H21H20L20 30.5H19H18H17L17 28.5ZM15 6.5H16H17H18V9.5H21V10.5V11.5V12.5H18L18 15.5H17H16H15L15 12.5H12V11.5V10.5V9.5H15V6.5ZM13 21.5H12L12 22.5H11L11 24.5H12V25.5H13V26.5H14H15V25.5H16V24.5H17H18V23.5H19V22.5H20V21.5H21V20.5H22V18.5H21V17.5H20L20 16.5H19H18L18 17.5H17L17 18.5H16L16 19.5H15H14L14 20.5H13L13 21.5Z"/>
</mask>
<path fill-rule="evenodd" clip-rule="evenodd" d="M17 28.5H16H15H14L14 30.5H13H12H11L11 28.5H10H9H8H7V16.5V4.5L8 4.5H9H10H11L11 2.5H12H13H14L14 4.5H15H16H17L17 2.5H18H19H20L20 4.5H21H22L22 5.5H23H24L24 6.5H25L25 7.5H26L26 13.5H25V14.5H24V15.5H23V16.5V17.5H24V18.5H25V19.5H26L26 25.5H25L25 26.5H24L24 27.5H23H22L22 28.5H21H20L20 30.5H19H18H17L17 28.5ZM15 6.5H16H17H18V9.5H21V10.5V11.5V12.5H18L18 15.5H17H16H15L15 12.5H12V11.5V10.5V9.5H15V6.5ZM13 21.5H12L12 22.5H11L11 24.5H12V25.5H13V26.5H14H15V25.5H16V24.5H17H18V23.5H19V22.5H20V21.5H21V20.5H22V18.5H21V17.5H20L20 16.5H19H18L18 17.5H17L17 18.5H16L16 19.5H15H14L14 20.5H13L13 21.5Z" fill="white"/>
<path d="M17 28.5L19 28.5L19 26.5H17V28.5ZM14 28.5V26.5H12L12 28.5L14 28.5ZM14 30.5V32.5H16L16 30.5L14 30.5ZM11 30.5H9L9 32.5H11V30.5ZM11 28.5H13L13 26.5H11V28.5ZM7 28.5H5V30.5H7V28.5ZM7 4.5L7 2.5L5 2.5V4.5H7ZM8 4.5L8 6.5H8V4.5ZM11 4.5V6.5H13L13 4.5L11 4.5ZM11 2.5V0.5H9L9 2.5L11 2.5ZM14 2.5L16 2.5L16 0.5H14V2.5ZM14 4.5L12 4.5L12 6.5H14V4.5ZM17 4.5V6.5H19L19 4.5L17 4.5ZM17 2.5V0.5H15L15 2.5L17 2.5ZM20 2.5L22 2.5L22 0.5H20V2.5ZM20 4.5L18 4.5L18 6.5H20V4.5ZM22 4.5L24 4.5L24 2.5H22V4.5ZM22 5.5L20 5.5L20 7.5H22V5.5ZM24 5.5L26 5.5L26 3.5H24V5.5ZM24 6.5L22 6.5L22 8.5H24V6.5ZM25 6.5L27 6.5L27 4.5H25V6.5ZM25 7.5L23 7.5L23 9.5H25V7.5ZM26 7.5L28 7.5V5.5H26V7.5ZM26 13.5V15.5H28V13.5L26 13.5ZM25 13.5V11.5H23V13.5H25ZM25 14.5V16.5H27V14.5H25ZM24 14.5V12.5H22V14.5H24ZM24 15.5V17.5H26V15.5H24ZM23 15.5V13.5H21V15.5H23ZM23 17.5H21V19.5H23V17.5ZM24 17.5H26V15.5H24V17.5ZM24 18.5H22V20.5H24V18.5ZM25 18.5H27V16.5H25V18.5ZM25 19.5H23V21.5H25V19.5ZM26 19.5H28V17.5H26V19.5ZM26 25.5V27.5H28V25.5H26ZM25 25.5V23.5H23L23 25.5L25 25.5ZM25 26.5V28.5H27L27 26.5L25 26.5ZM24 26.5V24.5H22L22 26.5L24 26.5ZM24 27.5V29.5H26L26 27.5L24 27.5ZM22 27.5V25.5H20L20 27.5L22 27.5ZM22 28.5V30.5H24L24 28.5L22 28.5ZM20 28.5V26.5H18L18 28.5H20ZM20 30.5V32.5H22L22 30.5H20ZM17 30.5L15 30.5L15 32.5H17V30.5ZM15 6.5V4.5H13V6.5H15ZM18 6.5H20V4.5H18V6.5ZM18 9.5H16V11.5H18V9.5ZM21 9.5H23V7.5H21V9.5ZM21 12.5V14.5H23V12.5H21ZM18 12.5V10.5H16L16 12.5L18 12.5ZM18 15.5V17.5H20L20 15.5L18 15.5ZM15 15.5H13L13 17.5H15V15.5ZM15 12.5H17V10.5H15V12.5ZM12 12.5H10V14.5H12V12.5ZM12 9.5V7.5H10V9.5H12ZM15 9.5V11.5H17V9.5H15ZM12 21.5V19.5H10L10 21.5H12ZM13 21.5V23.5H15L15 21.5L13 21.5ZM12 22.5V24.5H14L14 22.5H12ZM11 22.5V20.5H9L9 22.5H11ZM11 24.5H9L9 26.5H11V24.5ZM12 24.5H14V22.5H12V24.5ZM12 25.5H10V27.5H12V25.5ZM13 25.5H15V23.5H13V25.5ZM13 26.5H11V28.5H13V26.5ZM15 26.5V28.5H17V26.5H15ZM15 25.5V23.5H13V25.5H15ZM16 25.5V27.5H18V25.5H16ZM16 24.5V22.5H14V24.5H16ZM18 24.5V26.5H20V24.5H18ZM18 23.5V21.5H16V23.5H18ZM19 23.5V25.5H21V23.5H19ZM19 22.5V20.5H17V22.5H19ZM20 22.5V24.5H22V22.5H20ZM20 21.5V19.5H18V21.5H20ZM21 21.5V23.5H23V21.5H21ZM21 20.5V18.5H19V20.5H21ZM22 20.5V22.5H24V20.5H22ZM22 18.5H24V16.5H22V18.5ZM21 18.5H19V20.5H21V18.5ZM21 17.5H23V15.5H21V17.5ZM20 17.5L18 17.5L18 19.5H20V17.5ZM20 16.5L22 16.5L22 14.5H20V16.5ZM18 16.5V14.5H16L16 16.5L18 16.5ZM18 17.5V19.5H20L20 17.5L18 17.5ZM17 17.5V15.5H15L15 17.5L17 17.5ZM17 18.5V20.5H19L19 18.5L17 18.5ZM16 18.5V16.5H14L14 18.5L16 18.5ZM16 19.5V21.5H18L18 19.5L16 19.5ZM14 19.5V17.5H12L12 19.5L14 19.5ZM14 20.5V22.5H16L16 20.5L14 20.5ZM13 20.5V18.5H11L11 20.5L13 20.5ZM16 30.5H17V26.5H16V30.5ZM15 30.5H16V26.5H15V30.5ZM14 30.5H15V26.5H14V30.5ZM16 30.5L16 28.5L12 28.5L12 30.5L16 30.5ZM13 32.5H14V28.5H13V32.5ZM12 32.5H13V28.5H12V32.5ZM11 32.5H12V28.5H11V32.5ZM9 28.5L9 30.5H13L13 28.5H9ZM10 30.5H11V26.5H10V30.5ZM9 30.5H10V26.5H9V30.5ZM8 30.5H9V26.5H8V30.5ZM7 30.5H8V26.5H7V30.5ZM5 16.5V28.5H9V16.5H5ZM5 4.5V16.5H9V4.5H5ZM8 2.5L7 2.5L7 6.5L8 6.5L8 2.5ZM9 2.5H8V6.5H9V2.5ZM10 2.5H9V6.5H10V2.5ZM11 2.5H10V6.5H11V2.5ZM9 2.5L9 4.5L13 4.5L13 2.5L9 2.5ZM12 0.5H11V4.5H12V0.5ZM13 0.5H12V4.5H13V0.5ZM14 0.5H13V4.5H14V0.5ZM16 4.5L16 2.5L12 2.5L12 4.5L16 4.5ZM15 2.5H14V6.5H15V2.5ZM16 2.5H15V6.5H16V2.5ZM17 2.5H16V6.5H17V2.5ZM15 2.5L15 4.5L19 4.5L19 2.5L15 2.5ZM18 0.5H17V4.5H18V0.5ZM19 0.5H18V4.5H19V0.5ZM20 0.5H19V4.5H20V0.5ZM22 4.5L22 2.5L18 2.5L18 4.5L22 4.5ZM21 2.5H20V6.5H21V2.5ZM22 2.5H21V6.5H22V2.5ZM24 5.5L24 4.5L20 4.5L20 5.5L24 5.5ZM23 3.5H22V7.5H23V3.5ZM24 3.5H23V7.5H24V3.5ZM26 6.5L26 5.5L22 5.5L22 6.5L26 6.5ZM25 4.5H24V8.5H25V4.5ZM27 7.5L27 6.5L23 6.5L23 7.5L27 7.5ZM26 5.5H25V9.5H26V5.5ZM28 13.5L28 7.5L24 7.5L24 13.5L28 13.5ZM25 15.5H26V11.5H25V15.5ZM27 14.5V13.5H23V14.5H27ZM24 16.5H25V12.5H24V16.5ZM26 15.5V14.5H22V15.5H26ZM23 17.5H24V13.5H23V17.5ZM25 16.5V15.5H21V16.5H25ZM25 17.5V16.5H21V17.5H25ZM24 15.5H23V19.5H24V15.5ZM26 18.5V17.5H22V18.5H26ZM25 16.5H24V20.5H25V16.5ZM27 19.5V18.5H23V19.5H27ZM26 17.5H25V21.5H26V17.5ZM28 25.5L28 19.5H24L24 25.5H28ZM25 27.5H26V23.5H25V27.5ZM27 26.5L27 25.5L23 25.5L23 26.5L27 26.5ZM24 28.5H25V24.5H24V28.5ZM26 27.5L26 26.5L22 26.5L22 27.5L26 27.5ZM23 29.5H24V25.5H23V29.5ZM22 29.5H23V25.5H22V29.5ZM24 28.5L24 27.5L20 27.5L20 28.5L24 28.5ZM21 30.5H22V26.5H21V30.5ZM20 30.5H21V26.5H20V30.5ZM22 30.5L22 28.5H18L18 30.5H22ZM19 32.5H20V28.5H19V32.5ZM18 32.5H19V28.5H18V32.5ZM17 32.5H18V28.5H17V32.5ZM15 28.5L15 30.5L19 30.5L19 28.5L15 28.5ZM16 4.5H15V8.5H16V4.5ZM17 4.5H16V8.5H17V4.5ZM18 4.5H17V8.5H18V4.5ZM20 9.5V6.5H16V9.5H20ZM21 7.5H18V11.5H21V7.5ZM23 10.5V9.5H19V10.5H23ZM23 11.5V10.5H19V11.5H23ZM23 12.5V11.5H19V12.5H23ZM18 14.5H21V10.5H18V14.5ZM20 15.5L20 12.5L16 12.5L16 15.5L20 15.5ZM17 17.5H18V13.5H17V17.5ZM16 17.5H17V13.5H16V17.5ZM15 17.5H16V13.5H15V17.5ZM13 12.5L13 15.5H17V12.5H13ZM12 14.5H15V10.5H12V14.5ZM10 11.5V12.5H14V11.5H10ZM10 10.5V11.5H14V10.5H10ZM10 9.5V10.5H14V9.5H10ZM15 7.5H12V11.5H15V7.5ZM13 6.5V9.5H17V6.5H13ZM12 23.5H13V19.5H12V23.5ZM14 22.5L14 21.5H10L10 22.5H14ZM11 24.5H12V20.5H11V24.5ZM13 24.5V22.5H9L9 24.5H13ZM12 22.5H11V26.5H12V22.5ZM14 25.5V24.5H10V25.5H14ZM13 23.5H12V27.5H13V23.5ZM15 26.5V25.5H11V26.5H15ZM14 24.5H13V28.5H14V24.5ZM15 24.5H14V28.5H15V24.5ZM13 25.5V26.5H17V25.5H13ZM16 23.5H15V27.5H16V23.5ZM14 24.5V25.5H18V24.5H14ZM17 22.5H16V26.5H17V22.5ZM18 22.5H17V26.5H18V22.5ZM16 23.5V24.5H20V23.5H16ZM19 21.5H18V25.5H19V21.5ZM17 22.5V23.5H21V22.5H17ZM20 20.5H19V24.5H20V20.5ZM18 21.5V22.5H22V21.5H18ZM21 19.5H20V23.5H21V19.5ZM19 20.5V21.5H23V20.5H19ZM22 18.5H21V22.5H22V18.5ZM20 18.5V20.5H24V18.5H20ZM21 20.5H22V16.5H21V20.5ZM19 17.5V18.5H23V17.5H19ZM20 19.5H21V15.5H20V19.5ZM18 16.5L18 17.5L22 17.5L22 16.5L18 16.5ZM19 18.5H20V14.5H19V18.5ZM18 18.5H19V14.5H18V18.5ZM20 17.5L20 16.5L16 16.5L16 17.5L20 17.5ZM17 19.5H18V15.5H17V19.5ZM19 18.5L19 17.5L15 17.5L15 18.5L19 18.5ZM16 20.5H17V16.5H16V20.5ZM18 19.5L18 18.5L14 18.5L14 19.5L18 19.5ZM15 21.5H16V17.5H15V21.5ZM14 21.5H15V17.5H14V21.5ZM16 20.5L16 19.5L12 19.5L12 20.5L16 20.5ZM13 22.5H14V18.5H13V22.5ZM15 21.5L15 20.5L11 20.5L11 21.5L15 21.5Z" fill="black" mask="url(#path-1-outside-1_634_9100)"/>
<path d="M14 22.5L13 22.5L13 23.5L14 23.5L14 22.5Z" fill="white"/>
<path d="M16 22.5L15 22.5L15 23.5L16 23.5L16 22.5Z" fill="white"/>
<path d="M19 18.5L18 18.5L18 21.5L19 21.5L19 18.5Z" fill="white"/>
<path d="M18 19.5L17 19.5L17 20.5L18 20.5L18 19.5Z" fill="white"/>
<path d="M20 19.5L19 19.5L19 20.5L20 20.5L20 19.5Z" fill="white"/>
<path d="M15 21.5L14 21.5L14 24.5L15 24.5L15 21.5Z" fill="white"/>
</g>
<defs>
<clipPath id="clip0_634_9100">
<rect width="32" height="32" fill="white" transform="translate(0 0.5)"/>
</clipPath>
</defs>
</svg>
