<svg width="32" height="33" viewBox="0 0 32 33" fill="none" xmlns="http://www.w3.org/2000/svg">
<g clip-path="url(#clip0_686_13260)">
<rect x="6" y="15.5" width="5" height="11" fill="black"/>
<mask id="path-2-outside-1_686_13260" maskUnits="userSpaceOnUse" x="0" y="0.5" width="32" height="32" fill="black">
<rect fill="white" y="0.5" width="32" height="32"/>
<path fill-rule="evenodd" clip-rule="evenodd" d="M15 30.5H13H8V29.5H6L6 28.5H5L5 27.5H4V26.5H3L3 25.5H2L2 7.5H3L3 6.5H4L4 5.5L5 5.5V4.5H6L6 3.5L8 3.5V2.5H13H15L15 30.5ZM4 7.5L4 25.5H5L5 26.5H6L6 27.5H8L8 28.5H13V4.5L8 4.5V5.5H6L6 6.5L5 6.5V7.5H4ZM10 12.5V13.5H8V12.5H7V11.5H6V10.5H7V9.5H8V8.5L10 8.5L10 9.5H11V10.5H12V11.5H11V12.5H10ZM18 2.5H24V3.5H25H26V4.5H27V5.5H28V6.5H29V7.5H30V25.5H29V26.5H28V27.5H27V28.5H26V29.5H25H24V30.5H18V2.5ZM23 20.5V19.5H22V18.5H21V17.5H22V16.5H23V15.5H25V16.5H26V17.5H27V18.5H26V19.5H25V20.5H23Z"/>
</mask>
<path fill-rule="evenodd" clip-rule="evenodd" d="M15 30.5H13H8V29.5H6L6 28.5H5L5 27.5H4V26.5H3L3 25.5H2L2 7.5H3L3 6.5H4L4 5.5L5 5.5V4.5H6L6 3.5L8 3.5V2.5H13H15L15 30.5ZM4 7.5L4 25.5H5L5 26.5H6L6 27.5H8L8 28.5H13V4.5L8 4.5V5.5H6L6 6.5L5 6.5V7.5H4ZM10 12.5V13.5H8V12.5H7V11.5H6V10.5H7V9.5H8V8.5L10 8.5L10 9.5H11V10.5H12V11.5H11V12.5H10ZM18 2.5H24V3.5H25H26V4.5H27V5.5H28V6.5H29V7.5H30V25.5H29V26.5H28V27.5H27V28.5H26V29.5H25H24V30.5H18V2.5ZM23 20.5V19.5H22V18.5H21V17.5H22V16.5H23V15.5H25V16.5H26V17.5H27V18.5H26V19.5H25V20.5H23Z" fill="white"/>
<path d="M15 30.5V32.5H17V30.5H15ZM8 30.5H6V32.5H8V30.5ZM8 29.5H10V27.5H8V29.5ZM6 29.5H4L4 31.5H6V29.5ZM6 28.5H8L8 26.5H6V28.5ZM5 28.5H3L3 30.5H5V28.5ZM5 27.5H7L7 25.5H5V27.5ZM4 27.5H2V29.5H4V27.5ZM4 26.5H6V24.5H4V26.5ZM3 26.5H1L1 28.5H3V26.5ZM3 25.5H5L5 23.5H3V25.5ZM2 25.5H0L-2.38419e-07 27.5H2V25.5ZM2 7.5V5.5H2.26498e-06L2.02656e-06 7.5H2ZM3 7.5V9.5H5V7.5H3ZM3 6.5V4.5H1L1 6.5L3 6.5ZM4 6.5V8.5H6.00001L6 6.5L4 6.5ZM4 5.5L4 3.5L2 3.5L2 5.5L4 5.5ZM5 5.5L5 7.5L7 7.5V5.5H5ZM5 4.5V2.5H3V4.5H5ZM6 4.5V6.5H8L8 4.5L6 4.5ZM6 3.5L6 1.5L4 1.5L4 3.5L6 3.5ZM8 3.5V5.5L10 5.5V3.5H8ZM8 2.5V0.5H6V2.5H8ZM15 2.5L17 2.5V0.5H15V2.5ZM4 25.5H2L2 27.5H4V25.5ZM4 7.5V5.5H2L2 7.5H4ZM5 25.5H7L7 23.5H5V25.5ZM5 26.5H3L3 28.5H5V26.5ZM6 26.5H8L8 24.5H6V26.5ZM6 27.5H4L4 29.5H6V27.5ZM8 27.5H10L10 25.5H8V27.5ZM8 28.5H6L6 30.5H8V28.5ZM13 28.5V30.5H15V28.5H13ZM13 4.5H15V2.5L13 2.5V4.5ZM8 4.5V2.5L6 2.5V4.5H8ZM8 5.5V7.5H10V5.5H8ZM6 5.5V3.5H4L4 5.5L6 5.5ZM6 6.5L6 8.5L8 8.5L8 6.5L6 6.5ZM5 6.5L5 4.5L3 4.5V6.5H5ZM5 7.5V9.5H7V7.5H5ZM10 13.5V15.5H12V13.5H10ZM10 12.5V10.5H8V12.5H10ZM8 13.5H6V15.5H8V13.5ZM8 12.5H10V10.5H8V12.5ZM7 12.5H5V14.5H7V12.5ZM7 11.5H9V9.5H7V11.5ZM6 11.5H4V13.5H6V11.5ZM6 10.5V8.5H4V10.5H6ZM7 10.5V12.5H9V10.5H7ZM7 9.5V7.5H5V9.5H7ZM8 9.5V11.5H10V9.5H8ZM8 8.5L8 6.5L6 6.5V8.5H8ZM10 8.5L12 8.5L12 6.5L10 6.5V8.5ZM10 9.5L8 9.5L8 11.5H10V9.5ZM11 9.5H13V7.5H11V9.5ZM11 10.5H9V12.5H11V10.5ZM12 10.5H14V8.5H12V10.5ZM12 11.5V13.5H14V11.5H12ZM11 11.5V9.5H9V11.5H11ZM11 12.5V14.5H13V12.5H11ZM24 2.5H26V0.5H24V2.5ZM18 2.5V0.5H16V2.5H18ZM24 3.5H22V5.5H24V3.5ZM26 3.5H28V1.5H26V3.5ZM26 4.5H24V6.5H26V4.5ZM27 4.5H29V2.5H27V4.5ZM27 5.5H25V7.5H27V5.5ZM28 5.5H30V3.5H28V5.5ZM28 6.5H26V8.5H28V6.5ZM29 6.5H31V4.5H29V6.5ZM29 7.5H27V9.5H29V7.5ZM30 7.5H32V5.5H30V7.5ZM30 25.5V27.5H32V25.5H30ZM29 25.5V23.5H27V25.5H29ZM29 26.5V28.5H31V26.5H29ZM28 26.5V24.5H26V26.5H28ZM28 27.5V29.5H30V27.5H28ZM27 27.5V25.5H25V27.5H27ZM27 28.5V30.5H29V28.5H27ZM26 28.5V26.5H24V28.5H26ZM26 29.5V31.5H28V29.5H26ZM24 29.5V27.5H22V29.5H24ZM24 30.5V32.5H26V30.5H24ZM18 30.5H16V32.5H18V30.5ZM23 19.5H25V17.5H23V19.5ZM23 20.5H21V22.5H23V20.5ZM22 19.5H20V21.5H22V19.5ZM22 18.5H24V16.5H22V18.5ZM21 18.5H19V20.5H21V18.5ZM21 17.5V15.5H19V17.5H21ZM22 17.5V19.5H24V17.5H22ZM22 16.5V14.5H20V16.5H22ZM23 16.5V18.5H25V16.5H23ZM23 15.5V13.5H21V15.5H23ZM25 15.5H27V13.5H25V15.5ZM25 16.5H23V18.5H25V16.5ZM26 16.5H28V14.5H26V16.5ZM26 17.5H24V19.5H26V17.5ZM27 17.5H29V15.5H27V17.5ZM27 18.5V20.5H29V18.5H27ZM26 18.5V16.5H24V18.5H26ZM26 19.5V21.5H28V19.5H26ZM25 19.5V17.5H23V19.5H25ZM25 20.5V22.5H27V20.5H25ZM13 32.5H15V28.5H13V32.5ZM8 32.5H13V28.5H8V32.5ZM6 29.5V30.5H10V29.5H6ZM6 31.5H8V27.5H6V31.5ZM4 28.5L4 29.5H8L8 28.5H4ZM5 30.5H6V26.5H5V30.5ZM3 27.5L3 28.5H7V27.5H3ZM4 29.5H5V25.5H4V29.5ZM2 26.5V27.5H6V26.5H2ZM3 28.5H4V24.5H3V28.5ZM1 25.5L1 26.5H5L5 25.5H1ZM2 27.5H3V23.5H2V27.5ZM2.02656e-06 7.5L0 25.5H4L4 7.5H2.02656e-06ZM3 5.5H2V9.5H3V5.5ZM1 6.5L1 7.5H5L5 6.5L1 6.5ZM4 4.5H3V8.5H4V4.5ZM2 5.5L2 6.5L6 6.5L6 5.5L2 5.5ZM5 3.5L4 3.5L4 7.5H5L5 3.5ZM3 4.5V5.5H7V4.5H3ZM6 2.5H5V6.5H6V2.5ZM4 3.5L4 4.5L8 4.5L8 3.5L4 3.5ZM8 1.5L6 1.5L6 5.5L8 5.5V1.5ZM6 2.5V3.5H10V2.5H6ZM13 0.5H8V4.5H13V0.5ZM15 0.5H13V4.5H15V0.5ZM17 30.5L17 2.5L13 2.5L13 30.5H17ZM6 25.5V7.5H2L2 25.5H6ZM5 23.5H4V27.5H5V23.5ZM7 26.5L7 25.5H3L3 26.5H7ZM6 24.5H5V28.5H6V24.5ZM8 27.5L8 26.5H4L4 27.5H8ZM8 25.5H6V29.5H8V25.5ZM10 28.5V27.5H6L6 28.5H10ZM13 26.5H8V30.5H13V26.5ZM11 4.5V28.5H15V4.5H11ZM8 6.5L13 6.5V2.5L8 2.5V6.5ZM10 5.5V4.5H6V5.5H10ZM6 7.5H8V3.5H6V7.5ZM8 6.5L8 5.5L4 5.5L4 6.5L8 6.5ZM5 8.5H6L6 4.5L5 4.5L5 8.5ZM7 7.5V6.5H3V7.5H7ZM4 9.5H5V5.5H4V9.5ZM12 13.5V12.5H8V13.5H12ZM8 15.5H10V11.5H8V15.5ZM6 12.5V13.5H10V12.5H6ZM7 14.5H8V10.5H7V14.5ZM5 11.5V12.5H9V11.5H5ZM6 13.5H7V9.5H6V13.5ZM4 10.5V11.5H8V10.5H4ZM7 8.5H6V12.5H7V8.5ZM5 9.5V10.5H9V9.5H5ZM8 7.5H7V11.5H8V7.5ZM6 8.5V9.5H10V8.5H6ZM10 6.5L8 6.5L8 10.5L10 10.5V6.5ZM12 9.5L12 8.5L8 8.5L8 9.5L12 9.5ZM11 7.5H10V11.5H11V7.5ZM13 10.5V9.5H9V10.5H13ZM12 8.5H11V12.5H12V8.5ZM14 11.5V10.5H10V11.5H14ZM11 13.5H12V9.5H11V13.5ZM13 12.5V11.5H9V12.5H13ZM10 14.5H11V10.5H10V14.5ZM24 0.5H18V4.5H24V0.5ZM26 3.5V2.5H22V3.5H26ZM25 1.5H24V5.5H25V1.5ZM26 1.5H25V5.5H26V1.5ZM28 4.5V3.5H24V4.5H28ZM27 2.5H26V6.5H27V2.5ZM29 5.5V4.5H25V5.5H29ZM28 3.5H27V7.5H28V3.5ZM30 6.5V5.5H26V6.5H30ZM29 4.5H28V8.5H29V4.5ZM31 7.5V6.5H27V7.5H31ZM30 5.5H29V9.5H30V5.5ZM32 25.5V7.5H28V25.5H32ZM29 27.5H30V23.5H29V27.5ZM31 26.5V25.5H27V26.5H31ZM28 28.5H29V24.5H28V28.5ZM30 27.5V26.5H26V27.5H30ZM27 29.5H28V25.5H27V29.5ZM29 28.5V27.5H25V28.5H29ZM26 30.5H27V26.5H26V30.5ZM28 29.5V28.5H24V29.5H28ZM25 31.5H26V27.5H25V31.5ZM24 31.5H25V27.5H24V31.5ZM26 30.5V29.5H22V30.5H26ZM18 32.5H24V28.5H18V32.5ZM16 2.5V30.5H20V2.5H16ZM21 19.5V20.5H25V19.5H21ZM22 21.5H23V17.5H22V21.5ZM20 18.5V19.5H24V18.5H20ZM21 20.5H22V16.5H21V20.5ZM19 17.5V18.5H23V17.5H19ZM22 15.5H21V19.5H22V15.5ZM20 16.5V17.5H24V16.5H20ZM23 14.5H22V18.5H23V14.5ZM21 15.5V16.5H25V15.5H21ZM25 13.5H23V17.5H25V13.5ZM27 16.5V15.5H23V16.5H27ZM26 14.5H25V18.5H26V14.5ZM28 17.5V16.5H24V17.5H28ZM27 15.5H26V19.5H27V15.5ZM29 18.5V17.5H25V18.5H29ZM26 20.5H27V16.5H26V20.5ZM28 19.5V18.5H24V19.5H28ZM25 21.5H26V17.5H25V21.5ZM27 20.5V19.5H23V20.5H27ZM23 22.5H25V18.5H23V22.5Z" fill="black" mask="url(#path-2-outside-1_686_13260)"/>
</g>
<defs>
<clipPath id="clip0_686_13260">
<rect width="32" height="32" fill="white" transform="translate(0 0.5)"/>
</clipPath>
</defs>
</svg>
