<svg width="32" height="33" viewBox="0 0 32 33" fill="none" xmlns="http://www.w3.org/2000/svg">
<g clip-path="url(#clip0_634_8655)">
<mask id="path-1-outside-1_634_8655" maskUnits="userSpaceOnUse" x="0" y="3.5" width="32" height="27" fill="black">
<rect fill="white" y="3.5" width="32" height="27"/>
<path fill-rule="evenodd" clip-rule="evenodd" d="M12 5.5H13H14V6.5H15H16H17V7.5H18H19H20V8.5H21H22V9.5H23V10.5H24V17.5H23V18.5H22H21H20H19V10.5H18H17V28.5H16V27.5H15H14V26.5H13H12V5.5ZM11 17.5H10V18.5H7V19.5H4V20.5H2V22.5V24.5H3H4V25.5H5H8H11V23.5V22.5H10V23.5H8H7H5H4V22.5H7V21.5H10V20.5H11V17.5ZM18 20.5H19H20V19.5H21H22H23H24H25H26H27H29V20.5H30V22.5H29V23.5V24.5H27V25.5H26H25H24V26.5H23H21V27.5H19V28.5H18V25.5H19V24.5H21V23.5H23H24H25H26V22.5H27V21.5H26H25H24H23H22V22.5H21H20H19V23.5H18V20.5Z"/>
</mask>
<path fill-rule="evenodd" clip-rule="evenodd" d="M12 5.5H13H14V6.5H15H16H17V7.5H18H19H20V8.5H21H22V9.5H23V10.5H24V17.5H23V18.5H22H21H20H19V10.5H18H17V28.5H16V27.5H15H14V26.5H13H12V5.5ZM11 17.5H10V18.5H7V19.5H4V20.5H2V22.5V24.5H3H4V25.5H5H8H11V23.5V22.5H10V23.5H8H7H5H4V22.5H7V21.5H10V20.5H11V17.5ZM18 20.5H19H20V19.5H21H22H23H24H25H26H27H29V20.5H30V22.5H29V23.5V24.5H27V25.5H26H25H24V26.5H23H21V27.5H19V28.5H18V25.5H19V24.5H21V23.5H23H24H25H26V22.5H27V21.5H26H25H24H23H22V22.5H21H20H19V23.5H18V20.5Z" fill="white"/>
<path d="M12 5.5V3.5H10V5.5H12ZM14 5.5H16V3.5H14V5.5ZM14 6.5H12V8.5H14V6.5ZM17 6.5H19V4.5H17V6.5ZM17 7.5H15V9.5H17V7.5ZM20 7.5H22V5.5H20V7.5ZM20 8.5H18V10.5H20V8.5ZM22 8.5H24V6.5H22V8.5ZM22 9.5H20V11.5H22V9.5ZM23 9.5H25V7.5H23V9.5ZM23 10.5H21V12.5H23V10.5ZM24 10.5H26V8.5H24V10.5ZM24 17.5V19.5H26V17.5H24ZM23 17.5V15.5H21V17.5H23ZM23 18.5V20.5H25V18.5H23ZM19 18.5H17V20.5H19V18.5ZM19 10.5H21V8.5H19V10.5ZM17 10.5V8.5H15V10.5H17ZM17 28.5V30.5H19V28.5H17ZM16 28.5H14V30.5H16V28.5ZM16 27.5H18V25.5H16V27.5ZM14 27.5H12V29.5H14V27.5ZM14 26.5H16V24.5H14V26.5ZM12 26.5H10V28.5H12V26.5ZM10 17.5V15.5H8V17.5H10ZM11 17.5H13V15.5H11V17.5ZM10 18.5V20.5H12V18.5H10ZM7 18.5V16.5H5V18.5H7ZM7 19.5V21.5H9V19.5H7ZM4 19.5V17.5H2V19.5H4ZM4 20.5V22.5H6V20.5H4ZM2 20.5V18.5H0V20.5H2ZM2 24.5H0V26.5H2V24.5ZM4 24.5H6V22.5H4V24.5ZM4 25.5H2V27.5H4V25.5ZM11 25.5V27.5H13V25.5H11ZM11 22.5H13V20.5H11V22.5ZM10 22.5V20.5H8V22.5H10ZM10 23.5V25.5H12V23.5H10ZM4 23.5H2V25.5H4V23.5ZM4 22.5V20.5H2V22.5H4ZM7 22.5V24.5H9V22.5H7ZM7 21.5V19.5H5V21.5H7ZM10 21.5V23.5H12V21.5H10ZM10 20.5V18.5H8V20.5H10ZM11 20.5V22.5H13V20.5H11ZM18 20.5V18.5H16V20.5H18ZM20 20.5V22.5H22V20.5H20ZM20 19.5V17.5H18V19.5H20ZM29 19.5H31V17.5H29V19.5ZM29 20.5H27V22.5H29V20.5ZM30 20.5H32V18.5H30V20.5ZM30 22.5V24.5H32V22.5H30ZM29 22.5V20.5H27V22.5H29ZM29 24.5V26.5H31V24.5H29ZM27 24.5V22.5H25V24.5H27ZM27 25.5V27.5H29V25.5H27ZM24 25.5V23.5H22V25.5H24ZM24 26.5V28.5H26V26.5H24ZM21 26.5V24.5H19V26.5H21ZM21 27.5V29.5H23V27.5H21ZM19 27.5V25.5H17V27.5H19ZM19 28.5V30.5H21V28.5H19ZM18 28.5H16V30.5H18V28.5ZM18 25.5V23.5H16V25.5H18ZM19 25.5V27.5H21V25.5H19ZM19 24.5V22.5H17V24.5H19ZM21 24.5V26.5H23V24.5H21ZM21 23.5V21.5H19V23.5H21ZM26 23.5V25.5H28V23.5H26ZM26 22.5V20.5H24V22.5H26ZM27 22.5V24.5H29V22.5H27ZM27 21.5H29V19.5H27V21.5ZM22 21.5V19.5H20V21.5H22ZM22 22.5V24.5H24V22.5H22ZM19 22.5V20.5H17V22.5H19ZM19 23.5V25.5H21V23.5H19ZM18 23.5H16V25.5H18V23.5ZM13 3.5H12V7.5H13V3.5ZM14 3.5H13V7.5H14V3.5ZM16 6.5V5.5H12V6.5H16ZM15 4.5H14V8.5H15V4.5ZM16 4.5H15V8.5H16V4.5ZM17 4.5H16V8.5H17V4.5ZM19 7.5V6.5H15V7.5H19ZM18 5.5H17V9.5H18V5.5ZM19 5.5H18V9.5H19V5.5ZM20 5.5H19V9.5H20V5.5ZM22 8.5V7.5H18V8.5H22ZM21 6.5H20V10.5H21V6.5ZM22 6.5H21V10.5H22V6.5ZM24 9.5V8.5H20V9.5H24ZM23 7.5H22V11.5H23V7.5ZM25 10.5V9.5H21V10.5H25ZM24 8.5H23V12.5H24V8.5ZM26 17.5V10.5H22V17.5H26ZM23 19.5H24V15.5H23V19.5ZM25 18.5V17.5H21V18.5H25ZM22 20.5H23V16.5H22V20.5ZM21 20.5H22V16.5H21V20.5ZM20 20.5H21V16.5H20V20.5ZM19 20.5H20V16.5H19V20.5ZM17 10.5V18.5H21V10.5H17ZM18 12.5H19V8.5H18V12.5ZM17 12.5H18V8.5H17V12.5ZM19 28.5V10.5H15V28.5H19ZM16 30.5H17V26.5H16V30.5ZM14 27.5V28.5H18V27.5H14ZM15 29.5H16V25.5H15V29.5ZM14 29.5H15V25.5H14V29.5ZM12 26.5V27.5H16V26.5H12ZM13 28.5H14V24.5H13V28.5ZM12 28.5H13V24.5H12V28.5ZM10 5.5V26.5H14V5.5H10ZM10 19.5H11V15.5H10V19.5ZM12 18.5V17.5H8V18.5H12ZM7 20.5H10V16.5H7V20.5ZM9 19.5V18.5H5V19.5H9ZM4 21.5H7V17.5H4V21.5ZM6 20.5V19.5H2V20.5H6ZM2 22.5H4V18.5H2V22.5ZM4 22.5V20.5H0V22.5H4ZM4 24.5V22.5H0V24.5H4ZM3 22.5H2V26.5H3V22.5ZM4 22.5H3V26.5H4V22.5ZM6 25.5V24.5H2V25.5H6ZM5 23.5H4V27.5H5V23.5ZM8 23.5H5V27.5H8V23.5ZM11 23.5H8V27.5H11V23.5ZM9 23.5V25.5H13V23.5H9ZM13 23.5V22.5H9V23.5H13ZM11 20.5H10V24.5H11V20.5ZM8 22.5V23.5H12V22.5H8ZM8 25.5H10V21.5H8V25.5ZM7 25.5H8V21.5H7V25.5ZM5 25.5H7V21.5H5V25.5ZM4 25.5H5V21.5H4V25.5ZM2 22.5V23.5H6V22.5H2ZM7 20.5H4V24.5H7V20.5ZM5 21.5V22.5H9V21.5H5ZM10 19.5H7V23.5H10V19.5ZM8 20.5V21.5H12V20.5H8ZM11 18.5H10V22.5H11V18.5ZM9 17.5V20.5H13V17.5H9ZM19 18.5H18V22.5H19V18.5ZM20 18.5H19V22.5H20V18.5ZM18 19.5V20.5H22V19.5H18ZM21 17.5H20V21.5H21V17.5ZM22 17.5H21V21.5H22V17.5ZM23 17.5H22V21.5H23V17.5ZM24 17.5H23V21.5H24V17.5ZM25 17.5H24V21.5H25V17.5ZM26 17.5H25V21.5H26V17.5ZM27 17.5H26V21.5H27V17.5ZM29 17.5H27V21.5H29V17.5ZM31 20.5V19.5H27V20.5H31ZM30 18.5H29V22.5H30V18.5ZM32 22.5V20.5H28V22.5H32ZM29 24.5H30V20.5H29V24.5ZM31 23.5V22.5H27V23.5H31ZM31 24.5V23.5H27V24.5H31ZM27 26.5H29V22.5H27V26.5ZM29 25.5V24.5H25V25.5H29ZM26 27.5H27V23.5H26V27.5ZM25 27.5H26V23.5H25V27.5ZM24 27.5H25V23.5H24V27.5ZM26 26.5V25.5H22V26.5H26ZM23 28.5H24V24.5H23V28.5ZM21 28.5H23V24.5H21V28.5ZM23 27.5V26.5H19V27.5H23ZM19 29.5H21V25.5H19V29.5ZM21 28.5V27.5H17V28.5H21ZM18 30.5H19V26.5H18V30.5ZM16 25.5V28.5H20V25.5H16ZM19 23.5H18V27.5H19V23.5ZM17 24.5V25.5H21V24.5H17ZM21 22.5H19V26.5H21V22.5ZM19 23.5V24.5H23V23.5H19ZM23 21.5H21V25.5H23V21.5ZM24 21.5H23V25.5H24V21.5ZM25 21.5H24V25.5H25V21.5ZM26 21.5H25V25.5H26V21.5ZM24 22.5V23.5H28V22.5H24ZM27 20.5H26V24.5H27V20.5ZM25 21.5V22.5H29V21.5H25ZM26 23.5H27V19.5H26V23.5ZM25 23.5H26V19.5H25V23.5ZM24 23.5H25V19.5H24V23.5ZM23 23.5H24V19.5H23V23.5ZM22 23.5H23V19.5H22V23.5ZM24 22.5V21.5H20V22.5H24ZM21 24.5H22V20.5H21V24.5ZM20 24.5H21V20.5H20V24.5ZM19 24.5H20V20.5H19V24.5ZM21 23.5V22.5H17V23.5H21ZM18 25.5H19V21.5H18V25.5ZM16 20.5V23.5H20V20.5H16Z" fill="black" mask="url(#path-1-outside-1_634_8655)"/>
</g>
<defs>
<clipPath id="clip0_634_8655">
<rect width="32" height="32" fill="white" transform="translate(0 0.5)"/>
</clipPath>
</defs>
</svg>
