<svg width="18" height="14" viewBox="0 0 18 14" fill="none" xmlns="http://www.w3.org/2000/svg">
<path d="M9.74997 13.6464C9.1986 13.4841 8.67071 13.3274 8.14281 13.1704C7.6894 13.0355 7.23716 12.8968 6.78229 12.7663C6.68287 12.7372 6.6421 12.6979 6.6424 12.588C6.64552 8.43728 6.64709 4.28651 6.64709 0.13575C6.64709 0.0975886 6.65208 0.0597183 6.65647 0C6.85502 0.0422398 7.04477 0.0792364 7.23276 0.123224C8.65985 0.458229 10.0652 0.864897 11.4219 1.42159C11.9792 1.65056 12.495 1.95672 12.9229 2.39165C13.3922 2.86968 13.6594 3.44852 13.7734 4.09959C13.9051 4.85146 13.9377 5.60566 13.7623 6.3552C13.645 6.85275 13.4271 7.29787 13.0039 7.61511C12.5165 7.97837 11.9686 8.02178 11.3982 7.89098C11.1903 7.84291 10.992 7.75406 10.7873 7.69114C10.665 7.65385 10.6289 7.58452 10.6295 7.45809C10.6346 6.11807 10.6346 4.77805 10.6295 3.43803C10.6318 3.22968 10.6179 3.02146 10.5882 2.81521C10.5453 2.54313 10.3975 2.34183 10.1189 2.25415C9.91362 2.18919 9.80481 2.24628 9.78047 2.45807C9.75984 2.64603 9.75005 2.83501 9.75114 3.02408C9.74938 6.50503 9.74879 9.98588 9.74938 13.4666L9.74997 13.6464Z" fill="#1D5392"/>
<path d="M10.2773 13.4209V12.986C10.2773 12.6221 10.2817 12.2577 10.2738 11.8941C10.2714 11.7832 10.3081 11.7351 10.4116 11.6972C11.8274 11.181 13.2413 10.6612 14.6536 10.1378C14.7996 10.0837 14.9367 10.0082 15.0603 9.91383C15.2287 9.78361 15.207 9.63475 15.0087 9.56426C14.834 9.5039 14.6525 9.46535 14.4682 9.44948C13.8922 9.39588 13.3458 9.52347 12.8091 9.72768C12.0117 10.0309 11.2079 10.3185 10.4063 10.6121C10.3711 10.6249 10.3339 10.6325 10.2764 10.6482V10.3922C10.2764 9.95053 10.2799 9.50891 10.2741 9.06728C10.2741 8.96766 10.3034 8.92629 10.3981 8.8925C11.6181 8.44446 12.8757 8.33056 14.162 8.44913C15.0771 8.5336 15.9642 8.74043 16.8103 9.09321C17.0654 9.20138 17.3003 9.35168 17.5048 9.53775C17.8392 9.84333 17.8081 10.2529 17.4711 10.5521C17.1461 10.8405 16.7704 11.0453 16.3648 11.1947C14.3833 11.9247 12.4012 12.6528 10.4186 13.3789C10.379 13.3935 10.3377 13.4031 10.2773 13.4209Z" fill="#1D5392"/>
<path d="M6.17081 7.70425C6.17081 8.23181 6.17374 8.74102 6.16523 9.24994C6.16523 9.29334 6.09397 9.35684 6.04323 9.37461C5.1634 9.68311 4.28356 9.98462 3.40373 10.2917C3.22952 10.3522 3.0606 10.4292 2.89079 10.5017C2.8512 10.5208 2.81448 10.5453 2.78169 10.5745C2.59252 10.7298 2.60572 10.8853 2.83829 10.9599C3.03382 11.0197 3.23568 11.0566 3.4398 11.07C3.87385 11.1041 4.29647 11.0275 4.70911 10.8952C5.14903 10.7545 5.591 10.6109 6.03209 10.4691C6.07285 10.456 6.1145 10.4469 6.17022 10.4321C6.17022 10.9153 6.17022 11.3855 6.17022 11.8557C6.17022 11.9772 6.06141 11.9591 5.99718 11.9664C5.55727 12.0168 5.11501 12.0768 4.67216 12.0969C3.44215 12.1528 2.24998 11.9472 1.08977 11.5455C0.773616 11.4362 0.476233 11.2917 0.239264 11.0488C-0.110616 10.6899 -0.0739564 10.2576 0.330767 9.96335C0.778955 9.6337 1.27445 9.37279 1.80067 9.18934C3.21681 8.70383 4.63432 8.22045 6.0532 7.73921C6.08253 7.72901 6.11508 7.72085 6.17081 7.70425Z" fill="#1D5392"/>
</svg>
