<svg width="32" height="33" viewBox="0 0 32 33" fill="none" xmlns="http://www.w3.org/2000/svg">
<g clip-path="url(#clip0_634_9012)">
<mask id="path-1-outside-1_634_9012" maskUnits="userSpaceOnUse" x="3" y="0.5" width="26" height="32" fill="black">
<rect fill="white" x="3" y="0.5" width="26" height="32"/>
<path fill-rule="evenodd" clip-rule="evenodd" d="M14 7.5H13V2.5H14H15H16H17L17 3.5H18H19L19 4.5H20H21V5.5H22V6.5H23L23 7.5H24V8.5H25V10.5H26V12.5H27V15.5V17.5V20.5H26V22.5H25V24.5H24V25.5H23L23 26.5H22V27.5H21V28.5H20H19L19 29.5H18H17L17 30.5H16H15H14H13V25.5H14H15V24.5H16H17V23.5H18H19V22.5H20L20 21.5H21L21 18.5H22V17.5V15.5V14.5H21L21 11.5H20L20 10.5H19V9.5H18H17V8.5H16H15V7.5H14ZM11 9.5H10V10.5H9H8V11.5H7V12.5H6V14.5H5V18.5H6V20.5H7V21.5H8V22.5H9H10V23.5H11H12H13H14H15L15 22.5H16H17L17 21.5H18L18 20.5H19V18.5H20V14.5H19L19 12.5H18L18 11.5H17L17 10.5H16H15L15 9.5H14H13H12H11Z"/>
</mask>
<path fill-rule="evenodd" clip-rule="evenodd" d="M14 7.5H13V2.5H14H15H16H17L17 3.5H18H19L19 4.5H20H21V5.5H22V6.5H23L23 7.5H24V8.5H25V10.5H26V12.5H27V15.5V17.5V20.5H26V22.5H25V24.5H24V25.5H23L23 26.5H22V27.5H21V28.5H20H19L19 29.5H18H17L17 30.5H16H15H14H13V25.5H14H15V24.5H16H17V23.5H18H19V22.5H20L20 21.5H21L21 18.5H22V17.5V15.5V14.5H21L21 11.5H20L20 10.5H19V9.5H18H17V8.5H16H15V7.5H14ZM11 9.5H10V10.5H9H8V11.5H7V12.5H6V14.5H5V18.5H6V20.5H7V21.5H8V22.5H9H10V23.5H11H12H13H14H15L15 22.5H16H17L17 21.5H18L18 20.5H19V18.5H20V14.5H19L19 12.5H18L18 11.5H17L17 10.5H16H15L15 9.5H14H13H12H11Z" fill="white"/>
<path d="M13 7.5H11V9.5H13V7.5ZM13 2.5V0.5H11V2.5H13ZM17 2.5L19 2.5L19 0.5H17V2.5ZM17 3.5L15 3.5L15 5.5H17V3.5ZM19 3.5L21 3.5L21 1.5H19V3.5ZM19 4.5L17 4.5L17 6.5H19V4.5ZM21 4.5H23V2.5H21V4.5ZM21 5.5H19V7.5H21V5.5ZM22 5.5H24V3.5H22V5.5ZM22 6.5H20V8.5H22V6.5ZM23 6.5L25 6.5L25 4.5H23V6.5ZM23 7.5L21 7.5L21 9.5H23V7.5ZM24 7.5H26V5.5H24V7.5ZM24 8.5H22V10.5H24V8.5ZM25 8.5H27V6.5H25V8.5ZM25 10.5H23V12.5H25V10.5ZM26 10.5H28V8.5H26V10.5ZM26 12.5H24V14.5H26V12.5ZM27 12.5H29V10.5H27V12.5ZM27 20.5V22.5H29V20.5H27ZM26 20.5V18.5H24V20.5H26ZM26 22.5V24.5H28V22.5H26ZM25 22.5V20.5H23V22.5H25ZM25 24.5V26.5H27V24.5H25ZM24 24.5V22.5H22V24.5H24ZM24 25.5V27.5H26V25.5H24ZM23 25.5V23.5H21L21 25.5L23 25.5ZM23 26.5V28.5H25L25 26.5L23 26.5ZM22 26.5V24.5H20V26.5H22ZM22 27.5V29.5H24V27.5H22ZM21 27.5V25.5H19V27.5H21ZM21 28.5V30.5H23V28.5H21ZM19 28.5V26.5H17L17 28.5L19 28.5ZM19 29.5V31.5H21L21 29.5L19 29.5ZM17 29.5V27.5H15L15 29.5L17 29.5ZM17 30.5V32.5H19L19 30.5L17 30.5ZM13 30.5H11V32.5H13V30.5ZM13 25.5V23.5H11V25.5H13ZM15 25.5V27.5H17V25.5H15ZM15 24.5V22.5H13V24.5H15ZM17 24.5V26.5H19V24.5H17ZM17 23.5V21.5H15V23.5H17ZM19 23.5V25.5H21V23.5H19ZM19 22.5V20.5H17V22.5H19ZM20 22.5V24.5H22L22 22.5L20 22.5ZM20 21.5V19.5H18L18 21.5L20 21.5ZM21 21.5V23.5H23V21.5H21ZM21 18.5V16.5H19L19 18.5H21ZM22 18.5V20.5H24V18.5H22ZM22 14.5H24V12.5H22V14.5ZM21 14.5L19 14.5L19 16.5H21V14.5ZM21 11.5L23 11.5V9.5H21V11.5ZM20 11.5L18 11.5L18 13.5H20V11.5ZM20 10.5L22 10.5L22 8.5H20V10.5ZM19 10.5H17V12.5H19V10.5ZM19 9.5H21V7.5H19V9.5ZM17 9.5H15V11.5H17V9.5ZM17 8.5H19V6.5H17V8.5ZM15 8.5H13V10.5H15V8.5ZM15 7.5H17V5.5H15V7.5ZM10 9.5V7.5H8V9.5H10ZM10 10.5V12.5H12V10.5H10ZM8 10.5V8.5H6V10.5H8ZM8 11.5V13.5H10V11.5H8ZM7 11.5V9.5H5V11.5H7ZM7 12.5V14.5H9V12.5H7ZM6 12.5V10.5H4V12.5H6ZM6 14.5V16.5H8V14.5H6ZM5 14.5V12.5H3V14.5H5ZM5 18.5H3V20.5H5V18.5ZM6 18.5H8V16.5H6V18.5ZM6 20.5H4V22.5H6V20.5ZM7 20.5H9V18.5H7V20.5ZM7 21.5H5V23.5H7V21.5ZM8 21.5H10V19.5H8V21.5ZM8 22.5H6V24.5H8V22.5ZM10 22.5H12V20.5H10V22.5ZM10 23.5H8V25.5H10V23.5ZM15 23.5V25.5H17L17 23.5L15 23.5ZM15 22.5V20.5H13L13 22.5L15 22.5ZM17 22.5V24.5H19L19 22.5L17 22.5ZM17 21.5V19.5H15L15 21.5L17 21.5ZM18 21.5V23.5H20L20 21.5L18 21.5ZM18 20.5V18.5H16L16 20.5L18 20.5ZM19 20.5V22.5H21V20.5H19ZM19 18.5V16.5H17V18.5H19ZM20 18.5V20.5H22V18.5H20ZM20 14.5H22V12.5H20V14.5ZM19 14.5L17 14.5L17 16.5H19V14.5ZM19 12.5L21 12.5L21 10.5H19V12.5ZM18 12.5L16 12.5L16 14.5H18V12.5ZM18 11.5L20 11.5L20 9.5H18V11.5ZM17 11.5L15 11.5L15 13.5H17V11.5ZM17 10.5L19 10.5L19 8.5H17V10.5ZM15 10.5L13 10.5L13 12.5H15V10.5ZM15 9.5L17 9.5L17 7.5H15V9.5ZM13 9.5H14V5.5H13V9.5ZM11 2.5V7.5H15V2.5H11ZM14 0.5H13V4.5H14V0.5ZM15 0.5H14V4.5H15V0.5ZM16 0.5H15V4.5H16V0.5ZM17 0.5H16V4.5H17V0.5ZM19 3.5L19 2.5L15 2.5L15 3.5L19 3.5ZM18 1.5H17V5.5H18V1.5ZM19 1.5H18V5.5H19V1.5ZM21 4.5V3.5L17 3.5L17 4.5L21 4.5ZM20 2.5H19V6.5H20V2.5ZM21 2.5H20V6.5H21V2.5ZM23 5.5V4.5H19V5.5H23ZM22 3.5H21V7.5H22V3.5ZM24 6.5V5.5H20V6.5H24ZM23 4.5H22V8.5H23V4.5ZM25 7.5L25 6.5L21 6.5L21 7.5L25 7.5ZM24 5.5H23V9.5H24V5.5ZM26 8.5V7.5H22V8.5H26ZM25 6.5H24V10.5H25V6.5ZM27 10.5V8.5H23V10.5H27ZM26 8.5H25V12.5H26V8.5ZM28 12.5V10.5H24V12.5H28ZM27 10.5H26V14.5H27V10.5ZM29 15.5V12.5H25V15.5H29ZM29 17.5V15.5H25V17.5H29ZM29 20.5V17.5H25V20.5H29ZM26 22.5H27V18.5H26V22.5ZM28 22.5V20.5H24V22.5H28ZM25 24.5H26V20.5H25V24.5ZM27 24.5V22.5H23V24.5H27ZM24 26.5H25V22.5H24V26.5ZM26 25.5V24.5H22V25.5H26ZM23 27.5H24V23.5H23V27.5ZM25 26.5L25 25.5L21 25.5L21 26.5L25 26.5ZM22 28.5H23V24.5H22V28.5ZM24 27.5V26.5H20V27.5H24ZM21 29.5H22V25.5H21V29.5ZM23 28.5V27.5H19V28.5H23ZM20 30.5H21V26.5H20V30.5ZM19 30.5H20V26.5H19V30.5ZM21 29.5V28.5L17 28.5L17 29.5L21 29.5ZM18 31.5H19V27.5H18V31.5ZM17 31.5H18V27.5H17V31.5ZM19 30.5L19 29.5L15 29.5L15 30.5L19 30.5ZM16 32.5H17V28.5H16V32.5ZM15 32.5H16V28.5H15V32.5ZM14 32.5H15V28.5H14V32.5ZM13 32.5H14V28.5H13V32.5ZM11 25.5V30.5H15V25.5H11ZM14 23.5H13V27.5H14V23.5ZM15 23.5H14V27.5H15V23.5ZM13 24.5V25.5H17V24.5H13ZM16 22.5H15V26.5H16V22.5ZM17 22.5H16V26.5H17V22.5ZM15 23.5V24.5H19V23.5H15ZM18 21.5H17V25.5H18V21.5ZM19 21.5H18V25.5H19V21.5ZM17 22.5V23.5H21V22.5H17ZM20 20.5H19V24.5H20V20.5ZM18 21.5L18 22.5L22 22.5L22 21.5L18 21.5ZM21 19.5H20V23.5H21V19.5ZM19 18.5L19 21.5H23L23 18.5L19 18.5ZM22 16.5H21V20.5H22V16.5ZM20 17.5V18.5H24V17.5H20ZM20 15.5V17.5H24V15.5H20ZM20 14.5V15.5H24V14.5H20ZM21 16.5H22V12.5H21V16.5ZM19 11.5L19 14.5L23 14.5L23 11.5L19 11.5ZM20 13.5H21V9.5H20V13.5ZM18 10.5L18 11.5L22 11.5L22 10.5L18 10.5ZM19 12.5H20V8.5H19V12.5ZM17 9.5V10.5H21V9.5H17ZM18 11.5H19V7.5H18V11.5ZM17 11.5H18V7.5H17V11.5ZM15 8.5V9.5H19V8.5H15ZM16 10.5H17V6.5H16V10.5ZM15 10.5H16V6.5H15V10.5ZM13 7.5V8.5H17V7.5H13ZM14 9.5H15V5.5H14V9.5ZM10 11.5H11V7.5H10V11.5ZM12 10.5V9.5H8V10.5H12ZM9 12.5H10V8.5H9V12.5ZM8 12.5H9V8.5H8V12.5ZM10 11.5V10.5H6V11.5H10ZM7 13.5H8V9.5H7V13.5ZM9 12.5V11.5H5V12.5H9ZM6 14.5H7V10.5H6V14.5ZM8 14.5V12.5H4V14.5H8ZM5 16.5H6V12.5H5V16.5ZM7 18.5V14.5H3V18.5H7ZM6 16.5H5V20.5H6V16.5ZM8 20.5V18.5H4V20.5H8ZM7 18.5H6V22.5H7V18.5ZM9 21.5V20.5H5V21.5H9ZM8 19.5H7V23.5H8V19.5ZM10 22.5V21.5H6V22.5H10ZM9 20.5H8V24.5H9V20.5ZM10 20.5H9V24.5H10V20.5ZM12 23.5V22.5H8V23.5H12ZM11 21.5H10V25.5H11V21.5ZM12 21.5H11V25.5H12V21.5ZM13 21.5H12V25.5H13V21.5ZM14 21.5H13V25.5H14V21.5ZM15 21.5H14V25.5H15V21.5ZM13 22.5L13 23.5L17 23.5L17 22.5L13 22.5ZM16 20.5H15V24.5H16V20.5ZM17 20.5H16V24.5H17V20.5ZM15 21.5L15 22.5L19 22.5L19 21.5L15 21.5ZM18 19.5H17V23.5H18V19.5ZM16 20.5L16 21.5L20 21.5L20 20.5L16 20.5ZM19 18.5H18V22.5H19V18.5ZM17 18.5V20.5H21V18.5H17ZM20 16.5H19V20.5H20V16.5ZM18 14.5V18.5H22V14.5H18ZM19 16.5H20V12.5H19V16.5ZM17 12.5L17 14.5L21 14.5V12.5L17 12.5ZM18 14.5H19V10.5H18V14.5ZM16 11.5L16 12.5L20 12.5L20 11.5L16 11.5ZM17 13.5H18V9.5H17V13.5ZM15 10.5L15 11.5L19 11.5L19 10.5L15 10.5ZM16 12.5H17V8.5H16V12.5ZM15 12.5H16V8.5H15V12.5ZM13 9.5L13 10.5L17 10.5L17 9.5L13 9.5ZM14 11.5H15V7.5H14V11.5ZM13 11.5H14V7.5H13V11.5ZM12 11.5H13V7.5H12V11.5ZM11 11.5H12V7.5H11V11.5Z" fill="black" mask="url(#path-1-outside-1_634_9012)"/>
</g>
<defs>
<clipPath id="clip0_634_9012">
<rect width="32" height="32" fill="white" transform="translate(0 0.5)"/>
</clipPath>
</defs>
</svg>
