<svg width="14" height="14" viewBox="0 0 14 14" fill="none" xmlns="http://www.w3.org/2000/svg">
<path d="M13.8679 6.81876C13.8679 7.94502 13.8602 9.07129 13.8679 10.1946C13.8834 12.0363 12.2838 13.6238 10.4214 13.6327C9.79878 13.6327 9.17499 13.625 8.55358 13.6457C8.26572 13.6558 8.18204 13.5538 8.18204 13.2746C8.18204 11.1329 8.1672 8.99067 8.16542 6.84899C8.16542 4.74663 8.17017 2.64388 8.17966 0.540725C8.18263 -0.0674575 8.13693 0.0137522 8.73282 0.00723168C9.26699 0.000118429 9.80116 0.00723168 10.3353 0.00723168C12.3284 0.0190871 13.8472 1.5182 13.8668 3.50458C13.878 4.6101 13.8668 5.71561 13.8668 6.82409L13.8679 6.81876ZM9.54416 7.48207C9.54384 7.83137 9.68116 8.16676 9.92644 8.41575C10.1717 8.66475 10.5052 8.80734 10.8549 8.81272C11.2046 8.81809 11.5424 8.68581 11.7952 8.44447C12.0481 8.20312 12.1957 7.87211 12.2061 7.52297C12.2138 6.76837 11.6464 6.17205 10.9087 6.1596C10.731 6.15252 10.5537 6.18158 10.3876 6.24502C10.2215 6.30845 10.0701 6.40494 9.94249 6.52862C9.81488 6.6523 9.71377 6.80059 9.64529 6.96449C9.57682 7.12839 9.54241 7.30448 9.54416 7.48207Z" fill="#F30C0C"/>
<path d="M6.82941 6.84425C6.82941 8.97822 6.82941 11.1122 6.82941 13.2462C6.82941 13.6338 6.8211 13.6392 6.42938 13.6386C5.49993 13.6386 4.56989 13.6386 3.63984 13.625C1.83377 13.5924 0.294772 12.1128 0.26569 10.3054C0.228298 7.97525 0.209306 5.6427 0.269251 3.31371C0.316139 1.45715 1.82486 0.0534674 3.68554 0.0137518C4.61499 -0.00640245 5.54504 0.0137493 6.47508 0.000115566C6.73564 -0.00344106 6.83594 0.0742119 6.83119 0.355778C6.8211 2.5188 6.82585 4.68301 6.82585 6.84484L6.82941 6.84425ZM5.68926 12.5236V11.2349C5.68926 7.98533 5.69104 4.73576 5.6946 1.48619C5.6946 1.21945 5.62872 1.12401 5.34918 1.13824C4.73726 1.16965 4.12297 1.15365 3.50927 1.18447C2.39167 1.24375 1.42899 2.22241 1.42186 3.34038C1.40762 5.65179 1.40762 7.9636 1.42186 10.2758C1.4278 11.3037 2.20531 12.2657 3.22379 12.4098C4.02029 12.5212 4.83638 12.4898 5.68808 12.5236H5.68926Z" fill="#F30C0C"/>
<path d="M3.62738 5.39077C2.91812 5.37121 2.34478 4.7814 2.36318 4.08668C2.38218 3.36468 2.97926 2.77606 3.67545 2.79207C4.38767 2.80867 4.99544 3.45123 4.96576 4.15544C4.94559 4.49412 4.79499 4.81187 4.54551 5.04214C4.29603 5.27241 3.96702 5.39734 3.62738 5.39077Z" fill="#F30C0C"/>
</svg>
