<svg width="32" height="33" viewBox="0 0 32 33" fill="none" xmlns="http://www.w3.org/2000/svg">
<g clip-path="url(#clip0_634_9144)">
<rect x="16" y="12.5" width="3" height="5" fill="black"/>
<rect x="10" y="22.5" width="6" height="3" fill="black"/>
<rect x="8" y="19.5" width="6" height="3" fill="black"/>
<mask id="path-4-outside-1_634_9144" maskUnits="userSpaceOnUse" x="4" y="1.5" width="24" height="31" fill="black">
<rect fill="white" x="4" y="1.5" width="24" height="31"/>
<path fill-rule="evenodd" clip-rule="evenodd" d="M15 3.5H16H17V4.5H18V6.5H19V7.5H20V9.5H21V10.5H22V11.5H23V13.5H24V14.5H25V16.5H26V23.5H25V25.5H24V26.5H23V27.5H22V28.5H21V29.5H20H19H18V30.5H17H16H15H14V29.5H13H12H11V28.5H10V27.5H9V26.5H8V25.5H7V23.5H6V16.5H7V14.5H8V13.5H9V11.5H10V10.5H11V9.5H12V7.5H13V6.5H14V4.5H15V3.5ZM16 27.5H17H18H19V26.5H20V25.5H19V23.5H18V22.5H17V21.5H16V20.5H15V19.5H14V18.5H13V17.5H12V16.5H11V14.5H10V16.5H9V17.5H8V22.5H9V24.5H10V25.5H11V26.5H12H13V27.5H14H15H16ZM20 21.5V20.5H19V19.5H18V18.5H17H16V17.5H15V16.5H14V14.5H13V11.5V10.5H14V8.5H15V7.5H16H17V8.5H18V10.5H19V11.5H20V13.5H21V14.5H22V16.5H23V17.5H24V22.5H23V24.5H22V23.5H21V21.5H20Z"/>
</mask>
<path fill-rule="evenodd" clip-rule="evenodd" d="M15 3.5H16H17V4.5H18V6.5H19V7.5H20V9.5H21V10.5H22V11.5H23V13.5H24V14.5H25V16.5H26V23.5H25V25.5H24V26.5H23V27.5H22V28.5H21V29.5H20H19H18V30.5H17H16H15H14V29.5H13H12H11V28.5H10V27.5H9V26.5H8V25.5H7V23.5H6V16.5H7V14.5H8V13.5H9V11.5H10V10.5H11V9.5H12V7.5H13V6.5H14V4.5H15V3.5ZM16 27.5H17H18H19V26.5H20V25.5H19V23.5H18V22.5H17V21.5H16V20.5H15V19.5H14V18.5H13V17.5H12V16.5H11V14.5H10V16.5H9V17.5H8V22.5H9V24.5H10V25.5H11V26.5H12H13V27.5H14H15H16ZM20 21.5V20.5H19V19.5H18V18.5H17H16V17.5H15V16.5H14V14.5H13V11.5V10.5H14V8.5H15V7.5H16H17V8.5H18V10.5H19V11.5H20V13.5H21V14.5H22V16.5H23V17.5H24V22.5H23V24.5H22V23.5H21V21.5H20Z" fill="white"/>
<path d="M15 3.5V1.5H13V3.5H15ZM17 3.5H19V1.5H17V3.5ZM17 4.5H15V6.5H17V4.5ZM18 4.5H20V2.5H18V4.5ZM18 6.5H16V8.5H18V6.5ZM19 6.5H21V4.5H19V6.5ZM19 7.5H17V9.5H19V7.5ZM20 7.5H22V5.5H20V7.5ZM20 9.5H18V11.5H20V9.5ZM21 9.5H23V7.5H21V9.5ZM21 10.5H19V12.5H21V10.5ZM22 10.5H24V8.5H22V10.5ZM22 11.5H20V13.5H22V11.5ZM23 11.5H25V9.5H23V11.5ZM23 13.5H21V15.5H23V13.5ZM24 13.5H26V11.5H24V13.5ZM24 14.5H22V16.5H24V14.5ZM25 14.5H27V12.5H25V14.5ZM25 16.5H23V18.5H25V16.5ZM26 16.5H28V14.5H26V16.5ZM26 23.5V25.5H28V23.5H26ZM25 23.5V21.5H23V23.5H25ZM25 25.5V27.5H27V25.5H25ZM24 25.5V23.5H22V25.5H24ZM24 26.5V28.5H26V26.5H24ZM23 26.5V24.5H21V26.5H23ZM23 27.5V29.5H25V27.5H23ZM22 27.5V25.5H20V27.5H22ZM22 28.5V30.5H24V28.5H22ZM21 28.5V26.5H19V28.5H21ZM21 29.5V31.5H23V29.5H21ZM18 29.5V27.5H16V29.5H18ZM18 30.5V32.5H20V30.5H18ZM14 30.5H12V32.5H14V30.5ZM14 29.5H16V27.5H14V29.5ZM11 29.5H9V31.5H11V29.5ZM11 28.5H13V26.5H11V28.5ZM10 28.5H8V30.5H10V28.5ZM10 27.5H12V25.5H10V27.5ZM9 27.5H7V29.5H9V27.5ZM9 26.5H11V24.5H9V26.5ZM8 26.5H6V28.5H8V26.5ZM8 25.5H10V23.5H8V25.5ZM7 25.5H5V27.5H7V25.5ZM7 23.5H9V21.5H7V23.5ZM6 23.5H4V25.5H6V23.5ZM6 16.5V14.5H4V16.5H6ZM7 16.5V18.5H9V16.5H7ZM7 14.5V12.5H5V14.5H7ZM8 14.5V16.5H10V14.5H8ZM8 13.5V11.5H6V13.5H8ZM9 13.5V15.5H11V13.5H9ZM9 11.5V9.5H7V11.5H9ZM10 11.5V13.5H12V11.5H10ZM10 10.5V8.5H8V10.5H10ZM11 10.5V12.5H13V10.5H11ZM11 9.5V7.5H9V9.5H11ZM12 9.5V11.5H14V9.5H12ZM12 7.5V5.5H10V7.5H12ZM13 7.5V9.5H15V7.5H13ZM13 6.5V4.5H11V6.5H13ZM14 6.5V8.5H16V6.5H14ZM14 4.5V2.5H12V4.5H14ZM15 4.5V6.5H17V4.5H15ZM19 27.5V29.5H21V27.5H19ZM19 26.5V24.5H17V26.5H19ZM20 26.5V28.5H22V26.5H20ZM20 25.5H22V23.5H20V25.5ZM19 25.5H17V27.5H19V25.5ZM19 23.5H21V21.5H19V23.5ZM18 23.5H16V25.5H18V23.5ZM18 22.5H20V20.5H18V22.5ZM17 22.5H15V24.5H17V22.5ZM17 21.5H19V19.5H17V21.5ZM16 21.5H14V23.5H16V21.5ZM16 20.5H18V18.5H16V20.5ZM15 20.5H13V22.5H15V20.5ZM15 19.5H17V17.5H15V19.5ZM14 19.5H12V21.5H14V19.5ZM14 18.5H16V16.5H14V18.5ZM13 18.5H11V20.5H13V18.5ZM13 17.5H15V15.5H13V17.5ZM12 17.5H10V19.5H12V17.5ZM12 16.5H14V14.5H12V16.5ZM11 16.5H9V18.5H11V16.5ZM11 14.5H13V12.5H11V14.5ZM10 14.5V12.5H8V14.5H10ZM10 16.5V18.5H12V16.5H10ZM9 16.5V14.5H7V16.5H9ZM9 17.5V19.5H11V17.5H9ZM8 17.5V15.5H6V17.5H8ZM8 22.5H6V24.5H8V22.5ZM9 22.5H11V20.5H9V22.5ZM9 24.5H7V26.5H9V24.5ZM10 24.5H12V22.5H10V24.5ZM10 25.5H8V27.5H10V25.5ZM11 25.5H13V23.5H11V25.5ZM11 26.5H9V28.5H11V26.5ZM13 26.5H15V24.5H13V26.5ZM13 27.5H11V29.5H13V27.5ZM20 21.5H18V23.5H20V21.5ZM20 20.5H22V18.5H20V20.5ZM19 20.5H17V22.5H19V20.5ZM19 19.5H21V17.5H19V19.5ZM18 19.5H16V21.5H18V19.5ZM18 18.5H20V16.5H18V18.5ZM16 18.5H14V20.5H16V18.5ZM16 17.5H18V15.5H16V17.5ZM15 17.5H13V19.5H15V17.5ZM15 16.5H17V14.5H15V16.5ZM14 16.5H12V18.5H14V16.5ZM14 14.5H16V12.5H14V14.5ZM13 14.5H11V16.5H13V14.5ZM13 10.5V8.5H11V10.5H13ZM14 10.5V12.5H16V10.5H14ZM14 8.5V6.5H12V8.5H14ZM15 8.5V10.5H17V8.5H15ZM15 7.5V5.5H13V7.5H15ZM17 7.5H19V5.5H17V7.5ZM17 8.5H15V10.5H17V8.5ZM18 8.5H20V6.5H18V8.5ZM18 10.5H16V12.5H18V10.5ZM19 10.5H21V8.5H19V10.5ZM19 11.5H17V13.5H19V11.5ZM20 11.5H22V9.5H20V11.5ZM20 13.5H18V15.5H20V13.5ZM21 13.5H23V11.5H21V13.5ZM21 14.5H19V16.5H21V14.5ZM22 14.5H24V12.5H22V14.5ZM22 16.5H20V18.5H22V16.5ZM23 16.5H25V14.5H23V16.5ZM23 17.5H21V19.5H23V17.5ZM24 17.5H26V15.5H24V17.5ZM24 22.5V24.5H26V22.5H24ZM23 22.5V20.5H21V22.5H23ZM23 24.5V26.5H25V24.5H23ZM22 24.5H20V26.5H22V24.5ZM22 23.5H24V21.5H22V23.5ZM21 23.5H19V25.5H21V23.5ZM21 21.5H23V19.5H21V21.5ZM16 1.5H15V5.5H16V1.5ZM17 1.5H16V5.5H17V1.5ZM19 4.5V3.5H15V4.5H19ZM18 2.5H17V6.5H18V2.5ZM20 6.5V4.5H16V6.5H20ZM19 4.5H18V8.5H19V4.5ZM21 7.5V6.5H17V7.5H21ZM20 5.5H19V9.5H20V5.5ZM22 9.5V7.5H18V9.5H22ZM21 7.5H20V11.5H21V7.5ZM23 10.5V9.5H19V10.5H23ZM22 8.5H21V12.5H22V8.5ZM24 11.5V10.5H20V11.5H24ZM23 9.5H22V13.5H23V9.5ZM25 13.5V11.5H21V13.5H25ZM24 11.5H23V15.5H24V11.5ZM26 14.5V13.5H22V14.5H26ZM25 12.5H24V16.5H25V12.5ZM27 16.5V14.5H23V16.5H27ZM26 14.5H25V18.5H26V14.5ZM28 23.5V16.5H24V23.5H28ZM25 25.5H26V21.5H25V25.5ZM27 25.5V23.5H23V25.5H27ZM24 27.5H25V23.5H24V27.5ZM26 26.5V25.5H22V26.5H26ZM23 28.5H24V24.5H23V28.5ZM25 27.5V26.5H21V27.5H25ZM22 29.5H23V25.5H22V29.5ZM24 28.5V27.5H20V28.5H24ZM21 30.5H22V26.5H21V30.5ZM23 29.5V28.5H19V29.5H23ZM20 31.5H21V27.5H20V31.5ZM19 31.5H20V27.5H19V31.5ZM18 31.5H19V27.5H18V31.5ZM20 30.5V29.5H16V30.5H20ZM17 32.5H18V28.5H17V32.5ZM16 32.5H17V28.5H16V32.5ZM15 32.5H16V28.5H15V32.5ZM14 32.5H15V28.5H14V32.5ZM12 29.5V30.5H16V29.5H12ZM13 31.5H14V27.5H13V31.5ZM12 31.5H13V27.5H12V31.5ZM11 31.5H12V27.5H11V31.5ZM9 28.5V29.5H13V28.5H9ZM10 30.5H11V26.5H10V30.5ZM8 27.5V28.5H12V27.5H8ZM9 29.5H10V25.5H9V29.5ZM7 26.5V27.5H11V26.5H7ZM8 28.5H9V24.5H8V28.5ZM6 25.5V26.5H10V25.5H6ZM7 27.5H8V23.5H7V27.5ZM5 23.5V25.5H9V23.5H5ZM6 25.5H7V21.5H6V25.5ZM4 16.5V23.5H8V16.5H4ZM7 14.5H6V18.5H7V14.5ZM5 14.5V16.5H9V14.5H5ZM8 12.5H7V16.5H8V12.5ZM6 13.5V14.5H10V13.5H6ZM9 11.5H8V15.5H9V11.5ZM7 11.5V13.5H11V11.5H7ZM10 9.5H9V13.5H10V9.5ZM8 10.5V11.5H12V10.5H8ZM11 8.5H10V12.5H11V8.5ZM9 9.5V10.5H13V9.5H9ZM12 7.5H11V11.5H12V7.5ZM10 7.5V9.5H14V7.5H10ZM13 5.5H12V9.5H13V5.5ZM11 6.5V7.5H15V6.5H11ZM14 4.5H13V8.5H14V4.5ZM12 4.5V6.5H16V4.5H12ZM15 2.5H14V6.5H15V2.5ZM13 3.5V4.5H17V3.5H13ZM17 25.5H16V29.5H17V25.5ZM18 25.5H17V29.5H18V25.5ZM19 25.5H18V29.5H19V25.5ZM17 26.5V27.5H21V26.5H17ZM20 24.5H19V28.5H20V24.5ZM18 25.5V26.5H22V25.5H18ZM19 27.5H20V23.5H19V27.5ZM17 23.5V25.5H21V23.5H17ZM18 25.5H19V21.5H18V25.5ZM16 22.5V23.5H20V22.5H16ZM17 24.5H18V20.5H17V24.5ZM15 21.5V22.5H19V21.5H15ZM16 23.5H17V19.5H16V23.5ZM14 20.5V21.5H18V20.5H14ZM15 22.5H16V18.5H15V22.5ZM13 19.5V20.5H17V19.5H13ZM14 21.5H15V17.5H14V21.5ZM12 18.5V19.5H16V18.5H12ZM13 20.5H14V16.5H13V20.5ZM11 17.5V18.5H15V17.5H11ZM12 19.5H13V15.5H12V19.5ZM10 16.5V17.5H14V16.5H10ZM11 18.5H12V14.5H11V18.5ZM9 14.5V16.5H13V14.5H9ZM10 16.5H11V12.5H10V16.5ZM12 16.5V14.5H8V16.5H12ZM9 18.5H10V14.5H9V18.5ZM11 17.5V16.5H7V17.5H11ZM8 19.5H9V15.5H8V19.5ZM10 22.5V17.5H6V22.5H10ZM9 20.5H8V24.5H9V20.5ZM11 24.5V22.5H7V24.5H11ZM10 22.5H9V26.5H10V22.5ZM12 25.5V24.5H8V25.5H12ZM11 23.5H10V27.5H11V23.5ZM13 26.5V25.5H9V26.5H13ZM12 24.5H11V28.5H12V24.5ZM13 24.5H12V28.5H13V24.5ZM15 27.5V26.5H11V27.5H15ZM14 25.5H13V29.5H14V25.5ZM15 25.5H14V29.5H15V25.5ZM16 25.5H15V29.5H16V25.5ZM22 21.5V20.5H18V21.5H22ZM20 18.5H19V22.5H20V18.5ZM21 20.5V19.5H17V20.5H21ZM19 17.5H18V21.5H19V17.5ZM20 19.5V18.5H16V19.5H20ZM18 16.5H17V20.5H18V16.5ZM17 16.5H16V20.5H17V16.5ZM18 18.5V17.5H14V18.5H18ZM16 15.5H15V19.5H16V15.5ZM17 17.5V16.5H13V17.5H17ZM15 14.5H14V18.5H15V14.5ZM16 16.5V14.5H12V16.5H16ZM14 12.5H13V16.5H14V12.5ZM15 14.5V11.5H11V14.5H15ZM15 11.5V10.5H11V11.5H15ZM13 12.5H14V8.5H13V12.5ZM16 10.5V8.5H12V10.5H16ZM14 10.5H15V6.5H14V10.5ZM17 8.5V7.5H13V8.5H17ZM15 9.5H16V5.5H15V9.5ZM16 9.5H17V5.5H16V9.5ZM15 7.5V8.5H19V7.5H15ZM17 10.5H18V6.5H17V10.5ZM16 8.5V10.5H20V8.5H16ZM18 12.5H19V8.5H18V12.5ZM17 10.5V11.5H21V10.5H17ZM19 13.5H20V9.5H19V13.5ZM18 11.5V13.5H22V11.5H18ZM20 15.5H21V11.5H20V15.5ZM19 13.5V14.5H23V13.5H19ZM21 16.5H22V12.5H21V16.5ZM20 14.5V16.5H24V14.5H20ZM22 18.5H23V14.5H22V18.5ZM21 16.5V17.5H25V16.5H21ZM23 19.5H24V15.5H23V19.5ZM22 17.5V22.5H26V17.5H22ZM24 20.5H23V24.5H24V20.5ZM21 22.5V24.5H25V22.5H21ZM23 22.5H22V26.5H23V22.5ZM24 24.5V23.5H20V24.5H24ZM22 21.5H21V25.5H22V21.5ZM23 23.5V21.5H19V23.5H23ZM21 19.5H20V23.5H21V19.5Z" fill="black" mask="url(#path-4-outside-1_634_9144)"/>
</g>
<defs>
<clipPath id="clip0_634_9144">
<rect width="32" height="32" fill="white" transform="translate(0 0.5)"/>
</clipPath>
</defs>
</svg>
