<svg width="32" height="33" viewBox="0 0 32 33" fill="none" xmlns="http://www.w3.org/2000/svg">
<g clip-path="url(#clip0_634_8968)">
<g clip-path="url(#clip1_634_8968)">
<mask id="path-1-outside-1_634_8968" maskUnits="userSpaceOnUse" x="0" y="0.5" width="32" height="32" fill="black">
<rect fill="white" y="0.5" width="32" height="32"/>
<path fill-rule="evenodd" clip-rule="evenodd" d="M15.9999 2.5H12V3.5H10V4.5H12V5.5H14V6.5H15V7.5H15.9999H16H16.9999V6.5H18.0002V5.5H19.9999V4.5V2.5H16H15.9999ZM16.0002 6.5H16V5.5H16.0002V6.5ZM7 4.5H8V6.5H9V7.5H10V8.5H11V9.5H12V10.5H11V11.5H10V13.5H9V14.5H8V16.5H7V18.5H6V20.5H5V24.5H4V22.5H3V20.5H2V12.5H3V10.5H4V8.5H5V6.5H6V5.5H7V4.5ZM15.9999 13.5H15V14.5H14V15.5H13V16.5H12V17.5H11V18.5H10V19.5H9V21.5H8V22.5H7V25.5H6V27.5H7H8V28.5H9H10V29.5H11H12V30.5H13H14H15H15.9999H16H16.9999V13.5H16H15.9999ZM17.0002 14.5H18.0002V15.5H19.0001V16.5H19.9999V17.5H20.9998V29.5H19.9999V30.5H19.0001H18.9999H18.0002H18.0001H17.0002V14.5ZM21.0001 18.5H22.0001V19.5H23V21.5H23.9999V28.5H23H22.9999H22.0001V29.5H21.0001V18.5ZM25 22.5H24V27.5H25H26V25.5H25V22.5ZM25.9999 20.5H26.9998V24.5H27.9998V8.5H26.9999V6.5H26.0001V5.5H25.0002V4.5H24.0002V16.5H25.0001V18.5H25.9999V20.5ZM22.9999 6.5H23.9999V14.5H22.9999V13.5H22V11.5H21.0001V8.5H22V7.5H22.9999V6.5ZM20.9998 9.5H19.9998V10.5H20.9998V9.5ZM28.0001 22.5H29.0001V20.5H30V12.5H29.0001V10.5H28.0001V22.5ZM20.0001 3.5H22.0001V4.5H20.0001V3.5Z"/>
</mask>
<path fill-rule="evenodd" clip-rule="evenodd" d="M15.9999 2.5H12V3.5H10V4.5H12V5.5H14V6.5H15V7.5H15.9999H16H16.9999V6.5H18.0002V5.5H19.9999V4.5V2.5H16H15.9999ZM16.0002 6.5H16V5.5H16.0002V6.5ZM7 4.5H8V6.5H9V7.5H10V8.5H11V9.5H12V10.5H11V11.5H10V13.5H9V14.5H8V16.5H7V18.5H6V20.5H5V24.5H4V22.5H3V20.5H2V12.5H3V10.5H4V8.5H5V6.5H6V5.5H7V4.5ZM15.9999 13.5H15V14.5H14V15.5H13V16.5H12V17.5H11V18.5H10V19.5H9V21.5H8V22.5H7V25.5H6V27.5H7H8V28.5H9H10V29.5H11H12V30.5H13H14H15H15.9999H16H16.9999V13.5H16H15.9999ZM17.0002 14.5H18.0002V15.5H19.0001V16.5H19.9999V17.5H20.9998V29.5H19.9999V30.5H19.0001H18.9999H18.0002H18.0001H17.0002V14.5ZM21.0001 18.5H22.0001V19.5H23V21.5H23.9999V28.5H23H22.9999H22.0001V29.5H21.0001V18.5ZM25 22.5H24V27.5H25H26V25.5H25V22.5ZM25.9999 20.5H26.9998V24.5H27.9998V8.5H26.9999V6.5H26.0001V5.5H25.0002V4.5H24.0002V16.5H25.0001V18.5H25.9999V20.5ZM22.9999 6.5H23.9999V14.5H22.9999V13.5H22V11.5H21.0001V8.5H22V7.5H22.9999V6.5ZM20.9998 9.5H19.9998V10.5H20.9998V9.5ZM28.0001 22.5H29.0001V20.5H30V12.5H29.0001V10.5H28.0001V22.5ZM20.0001 3.5H22.0001V4.5H20.0001V3.5Z" fill="white"/>
<path d="M12 2.5V0.5H10V2.5H12ZM12 3.5V5.5H14V3.5H12ZM10 3.5V1.5H8V3.5H10ZM10 4.5H8V6.5H10V4.5ZM12 4.5H14V2.5H12V4.5ZM12 5.5H10V7.5H12V5.5ZM14 5.5H16V3.5H14V5.5ZM14 6.5H12V8.5H14V6.5ZM15 6.5H17V4.5H15V6.5ZM15 7.5H13V9.5H15V7.5ZM16.9999 7.5V9.5H18.9999V7.5H16.9999ZM16.9999 6.5V4.5H14.9999V6.5H16.9999ZM18.0002 6.5V8.5H20.0002V6.5H18.0002ZM18.0002 5.5V3.5H16.0002V5.5H18.0002ZM19.9999 5.5V7.5H21.9999V5.5H19.9999ZM19.9999 2.5H21.9999V0.5H19.9999V2.5ZM16 6.5H14V8.5H16V6.5ZM16.0002 6.5V8.5H18.0002V6.5H16.0002ZM16 5.5V3.5H14V5.5H16ZM16.0002 5.5H18.0002V3.5H16.0002V5.5ZM8 4.5H10V2.5H8V4.5ZM7 4.5V2.5H5V4.5H7ZM8 6.5H6V8.5H8V6.5ZM9 6.5H11V4.5H9V6.5ZM9 7.5H7V9.5H9V7.5ZM10 7.5H12V5.5H10V7.5ZM10 8.5H8V10.5H10V8.5ZM11 8.5H13V6.5H11V8.5ZM11 9.5H9V11.5H11V9.5ZM12 9.5H14V7.5H12V9.5ZM12 10.5V12.5H14V10.5H12ZM11 10.5V8.5H9V10.5H11ZM11 11.5V13.5H13V11.5H11ZM10 11.5V9.5H8V11.5H10ZM10 13.5V15.5H12V13.5H10ZM9 13.5V11.5H7V13.5H9ZM9 14.5V16.5H11V14.5H9ZM8 14.5V12.5H6V14.5H8ZM8 16.5V18.5H10V16.5H8ZM7 16.5V14.5H5V16.5H7ZM7 18.5V20.5H9V18.5H7ZM6 18.5V16.5H4V18.5H6ZM6 20.5V22.5H8V20.5H6ZM5 20.5V18.5H3V20.5H5ZM5 24.5V26.5H7V24.5H5ZM4 24.5H2V26.5H4V24.5ZM4 22.5H6V20.5H4V22.5ZM3 22.5H1V24.5H3V22.5ZM3 20.5H5V18.5H3V20.5ZM2 20.5H0V22.5H2V20.5ZM2 12.5V10.5H0V12.5H2ZM3 12.5V14.5H5V12.5H3ZM3 10.5V8.5H1V10.5H3ZM4 10.5V12.5H6V10.5H4ZM4 8.5V6.5H2V8.5H4ZM5 8.5V10.5H7V8.5H5ZM5 6.5V4.5H3V6.5H5ZM6 6.5V8.5H8V6.5H6ZM6 5.5V3.5H4V5.5H6ZM7 5.5V7.5H9V5.5H7ZM15 13.5V11.5H13V13.5H15ZM15 14.5V16.5H17V14.5H15ZM14 14.5V12.5H12V14.5H14ZM14 15.5V17.5H16V15.5H14ZM13 15.5V13.5H11V15.5H13ZM13 16.5V18.5H15V16.5H13ZM12 16.5V14.5H10V16.5H12ZM12 17.5V19.5H14V17.5H12ZM11 17.5V15.5H9V17.5H11ZM11 18.5V20.5H13V18.5H11ZM10 18.5V16.5H8V18.5H10ZM10 19.5V21.5H12V19.5H10ZM9 19.5V17.5H7V19.5H9ZM9 21.5V23.5H11V21.5H9ZM8 21.5V19.5H6V21.5H8ZM8 22.5V24.5H10V22.5H8ZM7 22.5V20.5H5V22.5H7ZM7 25.5V27.5H9V25.5H7ZM6 25.5V23.5H4V25.5H6ZM6 27.5H4V29.5H6V27.5ZM8 27.5H10V25.5H8V27.5ZM8 28.5H6V30.5H8V28.5ZM10 28.5H12V26.5H10V28.5ZM10 29.5H8V31.5H10V29.5ZM12 29.5H14V27.5H12V29.5ZM12 30.5H10V32.5H12V30.5ZM16.9999 30.5V32.5H18.9999V30.5H16.9999ZM16.9999 13.5H18.9999V11.5H16.9999V13.5ZM18.0002 14.5H20.0002V12.5H18.0002V14.5ZM17.0002 14.5V12.5H15.0002V14.5H17.0002ZM18.0002 15.5H16.0002V17.5H18.0002V15.5ZM19.0001 15.5H21.0001V13.5H19.0001V15.5ZM19.0001 16.5H17.0001V18.5H19.0001V16.5ZM19.9999 16.5H21.9999V14.5H19.9999V16.5ZM19.9999 17.5H17.9999V19.5H19.9999V17.5ZM20.9998 17.5H22.9998V15.5H20.9998V17.5ZM20.9998 29.5V31.5H22.9998V29.5H20.9998ZM19.9999 29.5V27.5H17.9999V29.5H19.9999ZM19.9999 30.5V32.5H21.9999V30.5H19.9999ZM17.0002 30.5H15.0002V32.5H17.0002V30.5ZM22.0001 18.5H24.0001V16.5H22.0001V18.5ZM21.0001 18.5V16.5H19.0001V18.5H21.0001ZM22.0001 19.5H20.0001V21.5H22.0001V19.5ZM23 19.5H25V17.5H23V19.5ZM23 21.5H21V23.5H23V21.5ZM23.9999 21.5H25.9999V19.5H23.9999V21.5ZM23.9999 28.5V30.5H25.9999V28.5H23.9999ZM22.0001 28.5V26.5H20.0001V28.5H22.0001ZM22.0001 29.5V31.5H24.0001V29.5H22.0001ZM21.0001 29.5H19.0001V31.5H21.0001V29.5ZM24 22.5V20.5H22V22.5H24ZM25 22.5H27V20.5H25V22.5ZM24 27.5H22V29.5H24V27.5ZM26 27.5V29.5H28V27.5H26ZM26 25.5H28V23.5H26V25.5ZM25 25.5H23V27.5H25V25.5ZM26.9998 20.5H28.9998V18.5H26.9998V20.5ZM25.9999 20.5H23.9999V22.5H25.9999V20.5ZM26.9998 24.5H24.9998V26.5H26.9998V24.5ZM27.9998 24.5V26.5H29.9998V24.5H27.9998ZM27.9998 8.5H29.9998V6.5H27.9998V8.5ZM26.9999 8.5H24.9999V10.5H26.9999V8.5ZM26.9999 6.5H28.9999V4.5H26.9999V6.5ZM26.0001 6.5H24.0001V8.5H26.0001V6.5ZM26.0001 5.5H28.0001V3.5H26.0001V5.5ZM25.0002 5.5H23.0002V7.5H25.0002V5.5ZM25.0002 4.5H27.0002V2.5H25.0002V4.5ZM24.0002 4.5V2.5H22.0002V4.5H24.0002ZM24.0002 16.5H22.0002V18.5H24.0002V16.5ZM25.0001 16.5H27.0001V14.5H25.0001V16.5ZM25.0001 18.5H23.0001V20.5H25.0001V18.5ZM25.9999 18.5H27.9999V16.5H25.9999V18.5ZM23.9999 6.5H25.9999V4.5H23.9999V6.5ZM22.9999 6.5V4.5H20.9999V6.5H22.9999ZM23.9999 14.5V16.5H25.9999V14.5H23.9999ZM22.9999 14.5H20.9999V16.5H22.9999V14.5ZM22.9999 13.5H24.9999V11.5H22.9999V13.5ZM22 13.5H20V15.5H22V13.5ZM22 11.5H24V9.5H22V11.5ZM21.0001 11.5H19.0001V13.5H21.0001V11.5ZM21.0001 8.5V6.5H19.0001V8.5H21.0001ZM22 8.5V10.5H24V8.5H22ZM22 7.5V5.5H20V7.5H22ZM22.9999 7.5V9.5H24.9999V7.5H22.9999ZM19.9998 9.5V7.5H17.9998V9.5H19.9998ZM20.9998 9.5H22.9998V7.5H20.9998V9.5ZM19.9998 10.5H17.9998V12.5H19.9998V10.5ZM20.9998 10.5V12.5H22.9998V10.5H20.9998ZM29.0001 22.5V24.5H31.0001V22.5H29.0001ZM28.0001 22.5H26.0001V24.5H28.0001V22.5ZM29.0001 20.5V18.5H27.0001V20.5H29.0001ZM30 20.5V22.5H32V20.5H30ZM30 12.5H32V10.5H30V12.5ZM29.0001 12.5H27.0001V14.5H29.0001V12.5ZM29.0001 10.5H31.0001V8.5H29.0001V10.5ZM28.0001 10.5V8.5H26.0001V10.5H28.0001ZM22.0001 3.5H24.0001V1.5H22.0001V3.5ZM20.0001 3.5V1.5H18.0001V3.5H20.0001ZM22.0001 4.5V6.5H24.0001V4.5H22.0001ZM20.0001 4.5H18.0001V6.5H20.0001V4.5ZM12 4.5H15.9999V0.5H12V4.5ZM14 3.5V2.5H10V3.5H14ZM10 5.5H12V1.5H10V5.5ZM12 4.5V3.5H8V4.5H12ZM12 2.5H10V6.5H12V2.5ZM14 5.5V4.5H10V5.5H14ZM14 3.5H12V7.5H14V3.5ZM16 6.5V5.5H12V6.5H16ZM15 4.5H14V8.5H15V4.5ZM17 7.5V6.5H13V7.5H17ZM15.9999 5.5H15V9.5H15.9999V5.5ZM16 5.5H15.9999V9.5H16V5.5ZM16.9999 5.5H16V9.5H16.9999V5.5ZM14.9999 6.5V7.5H18.9999V6.5H14.9999ZM18.0002 4.5H16.9999V8.5H18.0002V4.5ZM16.0002 5.5V6.5H20.0002V5.5H16.0002ZM19.9999 3.5H18.0002V7.5H19.9999V3.5ZM17.9999 4.5V5.5H21.9999V4.5H17.9999ZM21.9999 4.5V2.5H17.9999V4.5H21.9999ZM19.9999 0.5H16V4.5H19.9999V0.5ZM16 0.5H15.9999V4.5H16V0.5ZM16 8.5H16.0002V4.5H16V8.5ZM14 5.5V6.5H18V5.5H14ZM16.0002 3.5H16V7.5H16.0002V3.5ZM18.0002 6.5V5.5H14.0002V6.5H18.0002ZM8 2.5H7V6.5H8V2.5ZM10 6.5V4.5H6V6.5H10ZM9 4.5H8V8.5H9V4.5ZM11 7.5V6.5H7V7.5H11ZM10 5.5H9V9.5H10V5.5ZM12 8.5V7.5H8V8.5H12ZM11 6.5H10V10.5H11V6.5ZM13 9.5V8.5H9V9.5H13ZM12 7.5H11V11.5H12V7.5ZM14 10.5V9.5H10V10.5H14ZM11 12.5H12V8.5H11V12.5ZM13 11.5V10.5H9V11.5H13ZM10 13.5H11V9.5H10V13.5ZM12 13.5V11.5H8V13.5H12ZM9 15.5H10V11.5H9V15.5ZM11 14.5V13.5H7V14.5H11ZM8 16.5H9V12.5H8V16.5ZM10 16.5V14.5H6V16.5H10ZM7 18.5H8V14.5H7V18.5ZM9 18.5V16.5H5V18.5H9ZM6 20.5H7V16.5H6V20.5ZM8 20.5V18.5H4V20.5H8ZM5 22.5H6V18.5H5V22.5ZM7 24.5V20.5H3V24.5H7ZM4 26.5H5V22.5H4V26.5ZM2 22.5V24.5H6V22.5H2ZM3 24.5H4V20.5H3V24.5ZM1 20.5V22.5H5V20.5H1ZM2 22.5H3V18.5H2V22.5ZM0 12.5V20.5H4V12.5H0ZM3 10.5H2V14.5H3V10.5ZM1 10.5V12.5H5V10.5H1ZM4 8.5H3V12.5H4V8.5ZM2 8.5V10.5H6V8.5H2ZM5 6.5H4V10.5H5V6.5ZM3 6.5V8.5H7V6.5H3ZM6 4.5H5V8.5H6V4.5ZM4 5.5V6.5H8V5.5H4ZM7 3.5H6V7.5H7V3.5ZM5 4.5V5.5H9V4.5H5ZM15 15.5H15.9999V11.5H15V15.5ZM17 14.5V13.5H13V14.5H17ZM14 16.5H15V12.5H14V16.5ZM16 15.5V14.5H12V15.5H16ZM13 17.5H14V13.5H13V17.5ZM15 16.5V15.5H11V16.5H15ZM12 18.5H13V14.5H12V18.5ZM14 17.5V16.5H10V17.5H14ZM11 19.5H12V15.5H11V19.5ZM13 18.5V17.5H9V18.5H13ZM10 20.5H11V16.5H10V20.5ZM12 19.5V18.5H8V19.5H12ZM9 21.5H10V17.5H9V21.5ZM11 21.5V19.5H7V21.5H11ZM8 23.5H9V19.5H8V23.5ZM10 22.5V21.5H6V22.5H10ZM7 24.5H8V20.5H7V24.5ZM9 25.5V22.5H5V25.5H9ZM6 27.5H7V23.5H6V27.5ZM8 27.5V25.5H4V27.5H8ZM7 25.5H6V29.5H7V25.5ZM8 25.5H7V29.5H8V25.5ZM10 28.5V27.5H6V28.5H10ZM9 26.5H8V30.5H9V26.5ZM10 26.5H9V30.5H10V26.5ZM12 29.5V28.5H8V29.5H12ZM11 27.5H10V31.5H11V27.5ZM12 27.5H11V31.5H12V27.5ZM14 30.5V29.5H10V30.5H14ZM13 28.5H12V32.5H13V28.5ZM14 28.5H13V32.5H14V28.5ZM15 28.5H14V32.5H15V28.5ZM15.9999 28.5H15V32.5H15.9999V28.5ZM16 28.5H15.9999V32.5H16V28.5ZM16.9999 28.5H16V32.5H16.9999V28.5ZM14.9999 13.5V30.5H18.9999V13.5H14.9999ZM16 15.5H16.9999V11.5H16V15.5ZM15.9999 15.5H16V11.5H15.9999V15.5ZM18.0002 12.5H17.0002V16.5H18.0002V12.5ZM20.0002 15.5V14.5H16.0002V15.5H20.0002ZM19.0001 13.5H18.0002V17.5H19.0001V13.5ZM21.0001 16.5V15.5H17.0001V16.5H21.0001ZM19.9999 14.5H19.0001V18.5H19.9999V14.5ZM21.9999 17.5V16.5H17.9999V17.5H21.9999ZM20.9998 15.5H19.9999V19.5H20.9998V15.5ZM22.9998 29.5V17.5H18.9998V29.5H22.9998ZM19.9999 31.5H20.9998V27.5H19.9999V31.5ZM21.9999 30.5V29.5H17.9999V30.5H21.9999ZM19.0001 32.5H19.9999V28.5H19.0001V32.5ZM18.9999 32.5H19.0001V28.5H18.9999V32.5ZM18.0002 32.5H18.9999V28.5H18.0002V32.5ZM18.0001 32.5H18.0002V28.5H18.0001V32.5ZM17.0002 32.5H18.0001V28.5H17.0002V32.5ZM15.0002 14.5V30.5H19.0002V14.5H15.0002ZM22.0001 16.5H21.0001V20.5H22.0001V16.5ZM24.0001 19.5V18.5H20.0001V19.5H24.0001ZM23 17.5H22.0001V21.5H23V17.5ZM25 21.5V19.5H21V21.5H25ZM23.9999 19.5H23V23.5H23.9999V19.5ZM25.9999 28.5V21.5H21.9999V28.5H25.9999ZM23 30.5H23.9999V26.5H23V30.5ZM22.9999 30.5H23V26.5H22.9999V30.5ZM22.0001 30.5H22.9999V26.5H22.0001V30.5ZM24.0001 29.5V28.5H20.0001V29.5H24.0001ZM21.0001 31.5H22.0001V27.5H21.0001V31.5ZM19.0001 18.5V29.5H23.0001V18.5H19.0001ZM24 24.5H25V20.5H24V24.5ZM26 27.5V22.5H22V27.5H26ZM25 25.5H24V29.5H25V25.5ZM26 25.5H25V29.5H26V25.5ZM24 25.5V27.5H28V25.5H24ZM25 27.5H26V23.5H25V27.5ZM23 22.5V25.5H27V22.5H23ZM26.9998 18.5H25.9999V22.5H26.9998V18.5ZM28.9998 24.5V20.5H24.9998V24.5H28.9998ZM27.9998 22.5H26.9998V26.5H27.9998V22.5ZM25.9998 8.5V24.5H29.9998V8.5H25.9998ZM26.9999 10.5H27.9998V6.5H26.9999V10.5ZM24.9999 6.5V8.5H28.9999V6.5H24.9999ZM26.0001 8.5H26.9999V4.5H26.0001V8.5ZM24.0001 5.5V6.5H28.0001V5.5H24.0001ZM25.0002 7.5H26.0001V3.5H25.0002V7.5ZM23.0002 4.5V5.5H27.0002V4.5H23.0002ZM24.0002 6.5H25.0002V2.5H24.0002V6.5ZM26.0002 16.5V4.5H22.0002V16.5H26.0002ZM25.0001 14.5H24.0002V18.5H25.0001V14.5ZM27.0001 18.5V16.5H23.0001V18.5H27.0001ZM25.9999 16.5H25.0001V20.5H25.9999V16.5ZM27.9999 20.5V18.5H23.9999V20.5H27.9999ZM23.9999 4.5H22.9999V8.5H23.9999V4.5ZM25.9999 14.5V6.5H21.9999V14.5H25.9999ZM22.9999 16.5H23.9999V12.5H22.9999V16.5ZM20.9999 13.5V14.5H24.9999V13.5H20.9999ZM22 15.5H22.9999V11.5H22V15.5ZM20 11.5V13.5H24V11.5H20ZM21.0001 13.5H22V9.5H21.0001V13.5ZM19.0001 8.5V11.5H23.0001V8.5H19.0001ZM22 6.5H21.0001V10.5H22V6.5ZM20 7.5V8.5H24V7.5H20ZM22.9999 5.5H22V9.5H22.9999V5.5ZM20.9999 6.5V7.5H24.9999V6.5H20.9999ZM19.9998 11.5H20.9998V7.5H19.9998V11.5ZM21.9998 10.5V9.5H17.9998V10.5H21.9998ZM20.9998 8.5H19.9998V12.5H20.9998V8.5ZM18.9998 9.5V10.5H22.9998V9.5H18.9998ZM29.0001 20.5H28.0001V24.5H29.0001V20.5ZM27.0001 20.5V22.5H31.0001V20.5H27.0001ZM30 18.5H29.0001V22.5H30V18.5ZM28 12.5V20.5H32V12.5H28ZM29.0001 14.5H30V10.5H29.0001V14.5ZM27.0001 10.5V12.5H31.0001V10.5H27.0001ZM28.0001 12.5H29.0001V8.5H28.0001V12.5ZM30.0001 22.5V10.5H26.0001V22.5H30.0001ZM22.0001 1.5H20.0001V5.5H22.0001V1.5ZM24.0001 4.5V3.5H20.0001V4.5H24.0001ZM20.0001 6.5H22.0001V2.5H20.0001V6.5ZM18.0001 3.5V4.5H22.0001V3.5H18.0001Z" fill="black" mask="url(#path-1-outside-1_634_8968)"/>
<rect x="14" y="9.5" width="4" height="2" fill="black"/>
</g>
</g>
<defs>
<clipPath id="clip0_634_8968">
<rect width="32" height="32" fill="white" transform="translate(0 0.5)"/>
</clipPath>
<clipPath id="clip1_634_8968">
<rect width="32" height="32" fill="white" transform="translate(0 0.5)"/>
</clipPath>
</defs>
</svg>
