<svg width="15" height="14" viewBox="0 0 15 14" fill="none" xmlns="http://www.w3.org/2000/svg">
<path d="M7.4178 13.9981C5.8291 13.9981 4.42201 13.4882 3.18237 12.4946C2.8822 12.2538 2.80237 11.9611 2.86496 11.6062C2.94785 11.1366 3.16536 10.7219 3.40814 10.3203C4.01108 9.32022 4.768 8.44229 5.57475 7.605C6.1118 7.04594 6.6836 6.52135 7.28673 6.03437C7.39182 5.94955 7.44945 5.96656 7.54179 6.04051C8.32705 6.66919 9.04712 7.36638 9.72209 8.11035C10.3708 8.82502 10.9799 9.57112 11.4669 10.4086C11.6849 10.7833 11.8821 11.1692 11.956 11.6032C12.0153 11.9514 11.9477 12.2436 11.649 12.4842C10.6377 13.3007 9.4975 13.8034 8.20589 13.9582C8.07718 13.9735 7.948 13.9901 7.81858 13.9967C7.68538 14.0033 7.55147 13.9981 7.4178 13.9981Z" fill="#262626"/>
<path d="M5.48146 4.30757C5.00606 4.98019 4.529 5.62517 4.08406 6.29212C3.47191 7.20903 2.93014 8.16705 2.51472 9.19169C2.31469 9.68499 2.14606 10.1896 2.11324 10.7255C2.1019 10.9145 2.13685 11.1077 2.15173 11.2989C2.15918 11.333 2.15747 11.3684 2.14677 11.4016C2.11838 11.3731 2.0915 11.3432 2.06624 11.3119C1.37899 10.372 0.956249 9.3273 0.8188 8.16847C0.641989 6.66446 0.938143 5.25968 1.70726 3.95413C1.98716 3.48355 2.32544 3.05029 2.71405 2.66464C2.80403 2.57463 2.91432 2.56329 3.03051 2.57959C3.37579 2.62684 3.66651 2.80286 3.94708 2.9921C4.50349 3.36774 4.9959 3.81899 5.46989 4.29292C5.48099 4.30308 5.48855 4.31702 5.48146 4.30757Z" fill="#262626"/>
<path d="M9.31116 4.32576C9.48923 4.15637 9.65951 3.98839 9.8364 3.8275C10.2735 3.43011 10.7197 3.04218 11.2496 2.77096C11.4149 2.68614 11.5994 2.6344 11.7796 2.58408C11.9163 2.54581 12.0372 2.58928 12.1414 2.69701C13.1933 3.78379 13.83 5.0728 14.0029 6.57988C14.1987 8.29014 13.7903 9.84872 12.7958 11.2535C12.7606 11.3033 12.7207 11.3504 12.6678 11.4189C12.6593 11.3815 12.6513 11.3674 12.6544 11.3565C12.7748 10.9357 12.708 10.5218 12.6071 10.1103C12.4234 9.35991 12.101 8.66437 11.7411 7.98679C11.0655 6.70963 10.2655 5.50227 9.35296 4.38223C9.34304 4.37018 9.3343 4.35742 9.31116 4.32576Z" fill="#262626"/>
<path d="M10.7634 1.64402C10.7475 1.6537 10.7397 1.6615 10.735 1.66079C10.0737 1.55282 9.46183 1.74679 8.87118 2.00242C8.42506 2.19568 7.9957 2.4291 7.56706 2.65968C7.44709 2.72418 7.36584 2.72465 7.2513 2.65614C6.64601 2.2942 6.01756 1.97974 5.33834 1.77963C4.93686 1.6615 4.529 1.58023 4.10673 1.6615C4.09398 1.66386 4.0791 1.6563 4.06257 1.63929C4.9678 1.08929 5.95191 0.79515 7.00498 0.727581C8.28359 0.646309 10.1729 1.10866 10.7634 1.64402Z" fill="#262626"/>
</svg>
