<svg width="50" height="50" viewBox="0 0 50 50" fill="none" xmlns="http://www.w3.org/2000/svg">
<rect width="50" height="50" rx="10" fill="#1A1A1A"/>
<path d="M14.4279 26.368V24.378H15.4229V23.383H16.4179V22.3879H17.4129V21.3929H18.408V20.3979H19.403V19.4029H20.398V18.4078H21.393V17.4128H22.3881V16.4178H23.3831V15.4228H24.3781V14.4277H25.3731V15.4228H26.3682V16.4178H27.3632V17.4128H26.3682V18.4078H25.3731V19.4029H24.3781V20.3979H23.3831V21.3929H22.3881V22.3879H21.393V23.383H36.3184V27.3631H21.393V28.3581H22.3881V29.3531H23.3831V30.3481H24.3781V31.3432H25.3731V32.3382H26.3682V33.3332H27.3632V34.3282H26.3682V35.3233H25.3731V36.3183H24.3781V35.3233H23.3831V34.3282H22.3881V33.3332H21.393V32.3382H20.398V31.3432H19.403V30.3481H18.408V29.3531H17.4129V28.3581H16.4179V27.3631H15.4229V26.368H14.4279Z" fill="white"/>
</svg>
