<svg width="32" height="32" viewBox="0 0 32 32" fill="none" xmlns="http://www.w3.org/2000/svg">
<path d="M1.33333 17.3335V14.6668H2.66666V13.3335H3.99999V12.0002H5.33333V10.6668H6.66666V9.3335H7.99999V8.00016H9.33333V6.66683H10.6667V5.3335H12V4.00016H13.3333V2.66683H14.6667V1.3335H16V2.66683H17.3333V4.00016H18.6667V5.3335H17.3333V6.66683H16V8.00016H14.6667V9.3335H13.3333V10.6668H12V12.0002H10.6667V13.3335H30.6667V18.6668H10.6667V20.0002H12V21.3335H13.3333V22.6668H14.6667V24.0002H16V25.3335H17.3333V26.6668H18.6667V28.0002H17.3333V29.3335H16V30.6668H14.6667V29.3335H13.3333V28.0002H12V26.6668H10.6667V25.3335H9.33333V24.0002H7.99999V22.6668H6.66666V21.3335H5.33333V20.0002H3.99999V18.6668H2.66666V17.3335H1.33333Z" fill="white"/>
</svg>
