<svg width="15" height="20" viewBox="0 0 15 20" fill="none" xmlns="http://www.w3.org/2000/svg">
<path fill-rule="evenodd" clip-rule="evenodd" d="M4.76188 0.952148H11.4285V3.80929V4.76167V10.476H9.52378V12.3807H6.66664V10.476H2.85712V3.80929H4.76188V0.952148Z" fill="#E2B436"/>
<path fill-rule="evenodd" clip-rule="evenodd" d="M11.4286 0.952148H13.3333V2.85691H12.381V3.80929H11.4286V4.76167H10.4762V5.71405H9.52382V6.66643H7.61906V4.76167H8.57144V3.80929H9.52382V2.85691H10.4762V1.90453H11.4286V0.952148ZM12.8572 9.52358H13.3333V7.61881H11.4286V8.5712H10.4762V9.52358H9.52382V10.476H8.57144V10.9521H8.57117V11.4283H7.61906V13.3331H6.66668V14.2855H5.71429V16.1902H7.61906V15.2379H8.57144V13.3331H9.52382V12.3807H10.4762V11.4283H11.4286V10.476H12.381V9.5236H12.8572V9.52358Z" fill="#CF8934"/>
<path fill-rule="evenodd" clip-rule="evenodd" d="M5.7143 0.952148H3.80954V3.80929H2.85715V5.71405H1.90477V6.66643H0.952393V10.476H2.85715V8.5712H3.80954V6.66643H4.76192V3.80929H5.7143V0.952148ZM5.7143 11.4283H7.61906V13.3331H6.66668V15.2379L5.7143 15.2379V17.1426H4.76192V19.0474H2.85715V17.1426H3.80954V15.2379L4.76192 15.2379V13.3331H5.7143V11.4283ZM10.4762 6.66643H13.3333V8.5712H10.4762V6.66643Z" fill="#F5F38E"/>
<path fill-rule="evenodd" clip-rule="evenodd" d="M14.2857 0.952381V1.90476V2.85714H13.3333V1.90476V0.952381H3.80952V0H13.3333H14.2857V0.952381ZM12.381 3.80952V2.85714H13.3333V3.80952H12.381ZM11.4286 4.7619V3.80952H12.381L12.381 4.7619H11.4286ZM11.4286 5.71429V4.7619H10.4762V5.71429H9.52381V6.66667H11.4286L13.3333 6.66667V8.57143V9.52381H12.381L12.381 10.4762H11.4286V11.4286H10.4762V12.381H9.52381V13.3333H8.57143V14.2857H7.61905V15.2381H6.66667L6.66667 16.1905H5.71429V17.1429H4.7619V18.0952H3.80952V19.0476H2.85714V18.0952V17.1429H3.80952V16.1905V15.2381L4.7619 15.2381V14.2857V13.3333L5.71429 13.3333V12.381V11.4286H6.66667V10.4762H5.71429H3.80952H2.85714H0.952381V9.52387V9.52381V8.57149H0V9.52381V9.52387V11.4286H0.952381H2.85714H3.80952H4.7619V12.381V13.3333H3.80952V14.2857V15.2381H2.85714V16.1905V17.1429H1.90476V18.0952V19.0476V20H2.85714H3.80952V19.0476H4.7619V18.0952H5.71429V17.1429H6.66667V16.1905H7.61905V15.2381H8.57143V14.2857H9.52381V13.3333L10.4762 13.3333V12.381H11.4286V11.4286H12.381V10.4762H13.3333V9.52381H14.2857V8.57143V6.66667V5.71429H13.3333H11.4286ZM2.85714 0.952381H3.80952V2.85714V3.80952H2.85714V2.85714V0.952381ZM0.952381 6.66667V5.71429V4.7619H1.90476V3.80952H2.85714V5.71429H1.90476V6.66667H0.952381ZM0.952381 6.66667V8.57143H0V6.66667L0.952381 6.66667Z" fill="black"/>
</svg>
