<svg width="186" height="41" viewBox="0 0 186 41" fill="none" xmlns="http://www.w3.org/2000/svg">
<rect width="12.973" height="31.3514" transform="matrix(1 0 0 -1 2.95935 36.1763)" fill="#00BA64"/>
<rect x="5.12152" y="36.1763" width="2.16216" height="2.16216" fill="black"/>
<rect x="5.1217" y="34.0137" width="4.32432" height="2.16216" fill="#187249"/>
<rect x="2.95953" y="34.0137" width="2.16216" height="2.16216" fill="black"/>
<rect x="2.95935" y="31.8521" width="4.32432" height="2.16216" fill="#187249"/>
<rect x="0.797363" y="6.98682" width="2.16216" height="27.027" fill="black"/>
<rect x="7.28363" y="38.3262" width="8.64865" height="2.17331" fill="black"/>
<rect x="7.28363" y="36.1763" width="8.64865" height="2.16216" fill="#187249"/>
<rect width="2.16216" height="2.16216" transform="matrix(1 0 0 -1 5.12152 4.8252)" fill="black"/>
<rect width="4.32432" height="2.16216" transform="matrix(1 0 0 -1 5.1217 6.98682)" fill="#63EAAC"/>
<rect width="4.32432" height="2.16216" transform="matrix(1 0 0 -1 5.1217 11.311)" fill="white"/>
<rect width="2.16216" height="2.16216" transform="matrix(1 0 0 -1 2.95953 6.98682)" fill="black"/>
<rect width="4.32432" height="2.16216" transform="matrix(1 0 0 -1 2.95935 9.14941)" fill="#63EAAC"/>
<rect width="4.32432" height="2.16216" transform="matrix(1 0 0 -1 7.28363 9.14941)" fill="white"/>
<rect width="2.16216" height="2.16216" transform="matrix(1 0 0 -1 9.44604 6.98682)" fill="white"/>
<rect width="8.64865" height="2.17331" transform="matrix(1 0 0 -1 7.28387 2.67432)" fill="black"/>
<rect width="8.64865" height="2.16216" transform="matrix(1 0 0 -1 7.28363 4.8252)" fill="#63EAAC"/>
<rect x="15.9325" y="0.5" width="154.135" height="2.16216" fill="black"/>
<rect x="15.9325" y="2.66211" width="154.135" height="2.16216" fill="#63EAAC"/>
<rect width="154.135" height="31.3514" transform="translate(15.9325 4.82422)" fill="#00BA64"/>

<rect x="15.9325" y="36.1758" width="154.135" height="2.16216" fill="#187249"/>
<rect x="15.9325" y="38.3379" width="154.135" height="2.16216" fill="black"/>
<rect width="12.973" height="31.3514" transform="matrix(-1 -8.74228e-08 -8.74228e-08 1 183.041 4.82422)" fill="#00BA64"/>
<rect x="180.878" y="4.79492" width="2.16216" height="2.15682" transform="rotate(-180 180.878 4.79492)" fill="black"/>
<rect x="183.041" y="6.94385" width="2.16216" height="2.15682" transform="rotate(-180 183.041 6.94385)" fill="black"/>
<rect x="185.203" y="34.0137" width="2.16216" height="27.027" transform="rotate(-180 185.203 34.0137)" fill="black"/>
<rect x="178.716" y="2.64893" width="8.64865" height="2.14874" transform="rotate(-180 178.716 2.64893)" fill="black"/>
<rect x="178.716" y="4.81396" width="8.64865" height="2.15682" transform="rotate(-180 178.716 4.81396)" fill="#63EAAC"/>
<rect width="2.16216" height="2.16216" transform="matrix(-1 -8.74228e-08 -8.74228e-08 1 180.878 36.1763)" fill="black"/>
<rect width="5.40541" height="2.16216" transform="matrix(-1 -8.74228e-08 -8.74228e-08 1 180.878 34.0137)" fill="#187249"/>
<rect width="2.16216" height="2.14874" transform="matrix(-1 -8.74228e-08 -8.74228e-08 1 183.041 34.0137)" fill="black"/>
<rect width="5.40541" height="2.16216" transform="matrix(-1 -8.74228e-08 -8.74228e-08 1 183.041 31.8521)" fill="#187249"/>
<rect width="8.64865" height="2.15682" transform="matrix(-1 -8.74228e-08 -8.74228e-08 1 178.716 38.3433)" fill="black"/>
<rect width="8.64865" height="2.16216" transform="matrix(-1 -8.74228e-08 -8.74228e-08 1 178.716 36.1763)" fill="#187249"/>
</svg>
