<svg xmlns="http://www.w3.org/2000/svg" width="186" height="41" fill="none"><path fill="#00BA64" d="M2.96 36.176h12.972V4.826H2.96z"/><path fill="#000" d="M5.122 36.176h2.162v2.162H5.122z"/><path fill="#187249" d="M5.122 34.014h4.324v2.162H5.122z"/><path fill="#000" d="M2.96 34.014h2.162v2.162H2.96z"/><path fill="#187249" d="M2.959 31.852h4.324v2.162H2.959z"/><path fill="#000" d="M.797 6.987h2.162v27.027H.797zM7.284 38.326h8.649v2.173H7.284z"/><path fill="#187249" d="M7.284 36.176h8.649v2.162H7.284z"/><path fill="#000" d="M5.122 4.825h2.162V2.663H5.122z"/><path fill="#63EAAC" d="M5.122 6.987h4.324V4.825H5.122z"/><path fill="#fff" d="M5.122 11.311h4.324V9.149H5.122z"/><path fill="#000" d="M2.96 6.987h2.162V4.825H2.96z"/><path fill="#63EAAC" d="M2.96 9.15h4.323V6.986H2.96z"/><path fill="#fff" d="M7.284 9.15h4.324V6.986H7.284z"/><path fill="#fff" d="M9.446 6.987h2.162V4.825H9.446z"/><path fill="#000" d="M7.284 2.674h8.649V.501h-8.65z"/><path fill="#63EAAC" d="M7.284 4.825h8.649V2.663h-8.65z"/><path fill="#000" d="M15.932.5h154.135v2.162H15.932z"/><path fill="#63EAAC" d="M15.932 2.662h154.135v2.162H15.932z"/><path fill="#00BA64" d="M15.932 4.824h154.135v31.351H15.933z"/><path fill="#187249" d="M15.932 36.176h154.135v2.162H15.932z"/><path fill="#000" d="M15.932 38.338h154.135V40.5H15.932z"/><path fill="#00BA64" d="M183.041 4.824h-12.973v31.351h12.973z"/><path fill="#000" d="M180.878 4.795h-2.162V2.638h2.162zM183.041 6.944h-2.162V4.787h2.162zM185.203 34.013h-2.162V6.986h2.162z"/><path fill="#000" d="M178.716 2.649h-8.649V.499h8.649z"/><path fill="#63EAAC" d="M178.716 4.814h-8.649V2.657h8.649z"/><path fill="#000" d="M180.878 36.176h-2.162v2.162h2.162z"/><path fill="#187249" d="M180.878 34.014h-5.405v2.162h5.405z"/><path fill="#000" d="M183.041 34.014h-2.162v2.149h2.162z"/><path fill="#187249" d="M183.041 31.852h-5.405v2.162h5.405z"/><path fill="#000" d="M178.716 38.343h-8.649V40.5h8.649z"/><path fill="#187249" d="M178.716 36.176h-8.649v2.162h8.649z"/></svg>