<svg width="90" height="37" viewBox="0 0 90 37" fill="none" xmlns="http://www.w3.org/2000/svg">
<rect width="12" height="29" transform="matrix(1 0 0 -1 2 33)" fill="#00BA64"/>
<rect x="4" y="33" width="2" height="2" fill="black"/>
<rect x="4" y="31" width="4" height="2" fill="#187249"/>
<rect x="2" y="31" width="2" height="2" fill="black"/>
<rect x="2" y="29" width="4" height="2" fill="#187249"/>
<rect y="6" width="2" height="25" fill="black"/>
<rect x="6" y="34.9893" width="8" height="2.01031" fill="black"/>
<rect x="6" y="33" width="8" height="2" fill="#187249"/>
<rect width="2" height="2" transform="matrix(1 0 0 -1 4 4)" fill="black"/>
<rect width="4" height="2" transform="matrix(1 0 0 -1 4 6)" fill="#63EAAC"/>
<rect width="4" height="2" transform="matrix(1 0 0 -1 4 10)" fill="white"/>
<rect width="2" height="2" transform="matrix(1 0 0 -1 2 6)" fill="black"/>
<rect width="4" height="2" transform="matrix(1 0 0 -1 2 8)" fill="#63EAAC"/>
<rect width="4" height="2" transform="matrix(1 0 0 -1 6 8)" fill="white"/>
<rect width="2" height="2" transform="matrix(1 0 0 -1 8 6)" fill="white"/>
<rect width="8" height="2.01031" transform="matrix(1 0 0 -1 6 2.01025)" fill="black"/>
<rect width="8" height="2" transform="matrix(1 0 0 -1 6 4)" fill="#63EAAC"/>
<rect x="14" width="62" height="2" fill="black"/>
<rect x="14" y="2" width="62" height="2" fill="#63EAAC"/>
<rect width="75" height="29" transform="translate(7.5 4)" fill="#00BA64"/>
<rect x="14" y="33" width="62" height="2" fill="#187249"/>
<rect x="14" y="35" width="62" height="2" fill="black"/>
<rect width="12" height="29" transform="matrix(-1 -8.74228e-08 -8.74228e-08 1 88 4)" fill="#00BA64"/>
<rect x="86" y="3.97217" width="2" height="1.99506" transform="rotate(-180 86 3.97217)" fill="black"/>
<rect x="88" y="5.95947" width="2" height="1.99506" transform="rotate(-180 88 5.95947)" fill="black"/>
<rect x="90" y="31" width="2" height="25" transform="rotate(-180 90 31)" fill="black"/>
<rect x="84" y="1.9873" width="8" height="1.98758" transform="rotate(-180 84 1.9873)" fill="black"/>
<rect x="84" y="3.98975" width="8" height="1.99506" transform="rotate(-180 84 3.98975)" fill="#63EAAC"/>
<rect width="2" height="2" transform="matrix(-1 -8.74228e-08 -8.74228e-08 1 86 33)" fill="black"/>
<rect width="5" height="2" transform="matrix(-1 -8.74228e-08 -8.74228e-08 1 86 31)" fill="#187249"/>
<rect width="2" height="1.98758" transform="matrix(-1 -8.74228e-08 -8.74228e-08 1 88 31)" fill="black"/>
<rect width="5" height="2" transform="matrix(-1 -8.74228e-08 -8.74228e-08 1 88 29)" fill="#187249"/>
<rect width="8" height="1.99506" transform="matrix(-1 -8.74228e-08 -8.74228e-08 1 84 35.0049)" fill="black"/>
<rect width="8" height="2" transform="matrix(-1 -8.74228e-08 -8.74228e-08 1 84 33)" fill="#187249"/>
</svg>
