<svg width="162" height="40" viewBox="0 0 162 40" fill="none" xmlns="http://www.w3.org/2000/svg">
<rect width="12.973" height="31.3514" transform="matrix(1 0 0 -1 2.45947 35.6768)" fill="#FFE500"/>
<rect x="4.62158" y="35.6768" width="2.16216" height="2.16216" fill="black"/>
<rect x="4.62158" y="33.5137" width="4.32432" height="2.16216" fill="#A08F00"/>
<rect x="2.45947" y="33.5137" width="2.16216" height="2.16216" fill="black"/>
<rect x="2.45947" y="31.3525" width="4.32432" height="2.16216" fill="#A08F00"/>
<rect x="0.297363" y="6.48633" width="2.16216" height="27.027" fill="black"/>
<rect x="6.78369" y="37.8262" width="8.64865" height="2.17331" fill="black"/>
<rect x="6.78369" y="35.6768" width="8.64865" height="2.16216" fill="#A08F00"/>
<rect width="2.16216" height="2.16216" transform="matrix(1 0 0 -1 4.62158 4.3252)" fill="black"/>
<rect width="4.32432" height="2.16216" transform="matrix(1 0 0 -1 4.62158 6.48633)" fill="#FFF6A4"/>
<rect width="4.32432" height="2.16216" transform="matrix(1 0 0 -1 4.62158 10.8115)" fill="white"/>
<rect width="2.16216" height="2.16216" transform="matrix(1 0 0 -1 2.45947 6.48633)" fill="black"/>
<rect width="4.32432" height="2.16216" transform="matrix(1 0 0 -1 2.45947 8.64941)" fill="#FFF6A4"/>
<rect width="4.32432" height="2.16216" transform="matrix(1 0 0 -1 6.78369 8.64941)" fill="white"/>
<rect width="2.16216" height="2.16216" transform="matrix(1 0 0 -1 8.94604 6.48633)" fill="white"/>
<rect width="8.64865" height="2.17331" transform="matrix(1 0 0 -1 6.78394 2.17383)" fill="black"/>
<rect width="8.64865" height="2.16216" transform="matrix(1 0 0 -1 6.78369 4.3252)" fill="#FFF6A4"/>
<rect x="15.4324" width="131.135" height="2.16216" fill="black"/>
<rect x="15.4324" y="2.16211" width="131.135" height="2.16216" fill="#FFF6A4"/>
<rect width="131.135" height="31.3514" transform="translate(15.4324 4.32422)" fill="#FFE500"/>
<rect x="15.4324" y="35.6758" width="131.135" height="2.16216" fill="#A08F00"/>
<rect x="15.4324" y="37.8379" width="131.135" height="2.16216" fill="black"/>
<rect width="12.973" height="31.3514" transform="matrix(-1 -8.74228e-08 -8.74228e-08 1 159.541 4.32422)" fill="#FFE500"/>
<rect x="157.379" y="4.29492" width="2.16216" height="2.15682" transform="rotate(-180 157.379 4.29492)" fill="black"/>
<rect x="159.541" y="6.44336" width="2.16216" height="2.15682" transform="rotate(-180 159.541 6.44336)" fill="black"/>
<rect x="161.703" y="33.5137" width="2.16216" height="27.027" transform="rotate(-180 161.703 33.5137)" fill="black"/>
<rect x="155.216" y="2.14844" width="8.64865" height="2.14874" transform="rotate(-180 155.216 2.14844)" fill="black"/>
<rect x="155.216" y="4.31348" width="8.64865" height="2.15682" transform="rotate(-180 155.216 4.31348)" fill="#FFF6A4"/>
<rect width="2.16216" height="2.16216" transform="matrix(-1 -8.74228e-08 -8.74228e-08 1 157.379 35.6758)" fill="black"/>
<rect width="5.40541" height="2.16216" transform="matrix(-1 -8.74228e-08 -8.74228e-08 1 157.379 33.5137)" fill="#A08F00"/>
<rect width="2.16216" height="2.14874" transform="matrix(-1 -8.74228e-08 -8.74228e-08 1 159.541 33.5137)" fill="black"/>
<rect width="5.40541" height="2.16216" transform="matrix(-1 -8.74228e-08 -8.74228e-08 1 159.541 31.3516)" fill="#A08F00"/>
<rect width="8.64865" height="2.15682" transform="matrix(-1 -8.74228e-08 -8.74228e-08 1 155.217 37.8428)" fill="black"/>
<rect width="8.64865" height="2.16216" transform="matrix(-1 -8.74228e-08 -8.74228e-08 1 155.217 35.6758)" fill="#A08F00"/>
</svg>
