<svg width="321" height="40" viewBox="0 0 321 40" fill="none" xmlns="http://www.w3.org/2000/svg">
<rect width="12.973" height="31.3514" transform="matrix(1 0 0 -1 2.16199 35.6763)" fill="#FFE500"/>
<rect x="4.32413" y="35.6763" width="2.16216" height="2.16216" fill="black"/>
<rect x="4.32431" y="33.5137" width="4.32432" height="2.16216" fill="#A08F00"/>
<rect x="2.16214" y="33.5137" width="2.16216" height="2.16216" fill="black"/>
<rect x="2.16199" y="31.3521" width="4.32432" height="2.16216" fill="#A08F00"/>
<rect x="-3.05176e-05" y="6.48682" width="2.16216" height="27.027" fill="black"/>
<rect x="6.48627" y="37.8262" width="8.64865" height="2.17331" fill="black"/>
<rect x="6.48627" y="35.6763" width="8.64865" height="2.16216" fill="#A08F00"/>
<rect width="2.16216" height="2.16216" transform="matrix(1 0 0 -1 4.32413 4.3252)" fill="black"/>
<rect width="4.32432" height="2.16216" transform="matrix(1 0 0 -1 4.32431 6.48682)" fill="#FFF6A4"/>
<rect width="4.32432" height="2.16216" transform="matrix(1 0 0 -1 4.32431 10.811)" fill="white"/>
<rect width="2.16216" height="2.16216" transform="matrix(1 0 0 -1 2.16214 6.48682)" fill="black"/>
<rect width="4.32432" height="2.16216" transform="matrix(1 0 0 -1 2.16199 8.64941)" fill="#FFF6A4"/>
<rect width="4.32432" height="2.16216" transform="matrix(1 0 0 -1 6.48627 8.64941)" fill="white"/>
<rect width="2.16216" height="2.16216" transform="matrix(1 0 0 -1 8.64862 6.48682)" fill="white"/>
<rect width="8.64865" height="2.17331" transform="matrix(1 0 0 -1 6.48645 2.17432)" fill="black"/>
<rect width="8.64865" height="2.16216" transform="matrix(1 0 0 -1 6.48627 4.3252)" fill="#FFF6A4"/>
<rect x="15.1351" width="290.135" height="2.16216" fill="black"/>
<rect x="15.1351" y="2.16211" width="290.135" height="2.16216" fill="#FFF6A4"/>
<rect width="290.135" height="31.3514" transform="translate(15.1351 4.32422)" fill="#FFE500"/>
<rect x="15.1351" y="35.6758" width="290.135" height="2.16216" fill="#A08F00"/>
<rect x="15.1351" y="37.8379" width="290.135" height="2.16216" fill="black"/>
<rect width="12.973" height="31.3514" transform="matrix(-1 -8.74228e-08 -8.74228e-08 1 318.243 4.32422)" fill="#FFE500"/>
<rect x="316.081" y="4.29492" width="2.16216" height="2.15682" transform="rotate(-180 316.081 4.29492)" fill="black"/>
<rect x="318.243" y="6.44385" width="2.16216" height="2.15682" transform="rotate(-180 318.243 6.44385)" fill="black"/>
<rect x="320.405" y="33.5137" width="2.16216" height="27.027" transform="rotate(-180 320.405 33.5137)" fill="black"/>
<rect x="313.919" y="2.14893" width="8.64865" height="2.14874" transform="rotate(-180 313.919 2.14893)" fill="black"/>
<rect x="313.919" y="4.31396" width="8.64865" height="2.15682" transform="rotate(-180 313.919 4.31396)" fill="#FFF6A4"/>
<rect width="2.16216" height="2.16216" transform="matrix(-1 -8.74228e-08 -8.74228e-08 1 316.081 35.6763)" fill="black"/>
<rect width="5.40541" height="2.16216" transform="matrix(-1 -8.74228e-08 -8.74228e-08 1 316.081 33.5137)" fill="#A08F00"/>
<rect width="2.16216" height="2.14874" transform="matrix(-1 -8.74228e-08 -8.74228e-08 1 318.243 33.5137)" fill="black"/>
<rect width="5.40541" height="2.16216" transform="matrix(-1 -8.74228e-08 -8.74228e-08 1 318.243 31.3521)" fill="#A08F00"/>
<rect width="8.64865" height="2.15682" transform="matrix(-1 -8.74228e-08 -8.74228e-08 1 313.919 37.8433)" fill="black"/>
<rect width="8.64865" height="2.16216" transform="matrix(-1 -8.74228e-08 -8.74228e-08 1 313.919 35.6763)" fill="#A08F00"/>
</svg>
