<svg width="165" height="45" viewBox="0 0 165 45" fill="none" xmlns="http://www.w3.org/2000/svg">
<rect width="14.5946" height="35.2703" transform="matrix(1 0 0 -1 2.43262 40.1357)" fill="#00BA64"/>
<rect x="4.86475" y="40.1357" width="2.43243" height="2.43243" fill="black"/>
<rect x="4.86475" y="37.7031" width="4.86486" height="2.43243" fill="#187249"/>
<rect x="2.43262" y="37.7031" width="2.43243" height="2.43243" fill="black"/>
<rect x="2.43262" y="35.2705" width="4.86486" height="2.43243" fill="#187249"/>
<rect y="7.29785" width="2.43243" height="30.4054" fill="black"/>
<rect x="7.29736" y="42.5547" width="9.72973" height="2.44497" fill="black"/>
<rect x="7.29736" y="40.1357" width="9.72973" height="2.43243" fill="#187249"/>
<rect width="2.43243" height="2.43243" transform="matrix(1 0 0 -1 4.86475 4.86523)" fill="black"/>
<rect width="4.86486" height="2.43243" transform="matrix(1 0 0 -1 4.86475 7.29785)" fill="#63EAAC"/>
<rect width="4.86486" height="2.43243" transform="matrix(1 0 0 -1 4.86475 12.1631)" fill="white"/>
<rect width="2.43243" height="2.43243" transform="matrix(1 0 0 -1 2.43262 7.29785)" fill="black"/>
<rect width="4.86486" height="2.43243" transform="matrix(1 0 0 -1 2.43262 9.73047)" fill="#63EAAC"/>
<rect width="4.86486" height="2.43243" transform="matrix(1 0 0 -1 7.29736 9.73047)" fill="white"/>
<rect width="2.43243" height="2.43243" transform="matrix(1 0 0 -1 9.72949 7.29785)" fill="white"/>
<rect width="9.72973" height="2.44497" transform="matrix(1 0 0 -1 7.29736 2.44629)" fill="black"/>
<rect width="9.72973" height="2.43243" transform="matrix(1 0 0 -1 7.29736 4.86523)" fill="#63EAAC"/>
<rect x="17.0273" width="130.027" height="2.43243" fill="black"/>
<rect x="17.0273" y="2.43262" width="130.027" height="2.43243" fill="#63EAAC"/>
<rect width="130.027" height="35.2703" transform="translate(17.0273 4.86523)" fill="#00BA64"/>
<rect x="17.0273" y="40.1348" width="130.027" height="2.43243" fill="#187249"/>
<rect x="17.0273" y="42.5674" width="130.027" height="2.43243" fill="black"/>
<rect width="14.5946" height="35.2703" transform="matrix(-1 -8.74228e-08 -8.74228e-08 1 161.649 4.86621)" fill="#00BA64"/>
<rect x="159.216" y="4.83301" width="2.43243" height="2.42643" transform="rotate(-180 159.216 4.83301)" fill="black"/>
<rect x="161.649" y="7.25" width="2.43243" height="2.42643" transform="rotate(-180 161.649 7.25)" fill="black"/>
<rect x="164.082" y="37.7031" width="2.43244" height="30.4054" transform="rotate(-180 164.082 37.7031)" fill="black"/>
<rect x="156.784" y="2.41797" width="9.72973" height="2.41733" transform="rotate(-180 156.784 2.41797)" fill="black"/>
<rect x="156.784" y="4.85352" width="9.72973" height="2.42643" transform="rotate(-180 156.784 4.85352)" fill="#63EAAC"/>
<rect width="2.43243" height="2.43243" transform="matrix(-1 -8.74228e-08 -8.74228e-08 1 159.216 40.1348)" fill="black"/>
<rect width="6.08108" height="2.43243" transform="matrix(-1 -8.74228e-08 -8.74228e-08 1 159.216 37.7031)" fill="#187249"/>
<rect width="2.43243" height="2.41733" transform="matrix(-1 -8.74228e-08 -8.74228e-08 1 161.649 37.7031)" fill="black"/>
<rect width="6.08108" height="2.43243" transform="matrix(-1 -8.74228e-08 -8.74228e-08 1 161.649 35.2705)" fill="#187249"/>
<rect width="9.72973" height="2.42643" transform="matrix(-1 -8.74228e-08 -8.74228e-08 1 156.784 42.5732)" fill="black"/>
<rect width="9.72973" height="2.43243" transform="matrix(-1 -8.74228e-08 -8.74228e-08 1 156.784 40.1348)" fill="#187249"/>
</svg>
