<svg width="186" height="41" viewBox="0 0 186 41" fill="none" xmlns="http://www.w3.org/2000/svg">
<rect width="12.973" height="31.3514" transform="matrix(1 0 0 -1 2.95935 36.1763)" fill="#00BA64"/>
<rect x="5.12152" y="36.1763" width="2.16216" height="2.16216" fill="black"/>
<rect x="5.1217" y="34.0137" width="4.32432" height="2.16216" fill="#187249"/>
<rect x="2.95953" y="34.0137" width="2.16216" height="2.16216" fill="black"/>
<rect x="2.95935" y="31.8521" width="4.32432" height="2.16216" fill="#187249"/>
<rect x="0.797363" y="6.98682" width="2.16216" height="27.027" fill="black"/>
<rect x="7.28363" y="38.3262" width="8.64865" height="2.17331" fill="black"/>
<rect x="7.28363" y="36.1763" width="8.64865" height="2.16216" fill="#187249"/>
<rect width="2.16216" height="2.16216" transform="matrix(1 0 0 -1 5.12152 4.8252)" fill="black"/>
<rect width="4.32432" height="2.16216" transform="matrix(1 0 0 -1 5.1217 6.98682)" fill="#63EAAC"/>
<rect width="4.32432" height="2.16216" transform="matrix(1 0 0 -1 5.1217 11.311)" fill="white"/>
<rect width="2.16216" height="2.16216" transform="matrix(1 0 0 -1 2.95953 6.98682)" fill="black"/>
<rect width="4.32432" height="2.16216" transform="matrix(1 0 0 -1 2.95935 9.14941)" fill="#63EAAC"/>
<rect width="4.32432" height="2.16216" transform="matrix(1 0 0 -1 7.28363 9.14941)" fill="white"/>
<rect width="2.16216" height="2.16216" transform="matrix(1 0 0 -1 9.44604 6.98682)" fill="white"/>
<rect width="8.64865" height="2.17331" transform="matrix(1 0 0 -1 7.28387 2.67432)" fill="black"/>
<rect width="8.64865" height="2.16216" transform="matrix(1 0 0 -1 7.28363 4.8252)" fill="#63EAAC"/>
<rect x="15.9325" y="0.5" width="154.135" height="2.16216" fill="black"/>
<rect x="15.9325" y="2.66211" width="154.135" height="2.16216" fill="#63EAAC"/>
<rect width="154.135" height="31.3514" transform="translate(15.9325 4.82422)" fill="#00BA64"/>
<path d="M23.5001 25.6607H24.8393V27H23.5001V25.6607ZM24.8393 25.6607H26.1786V27H24.8393V25.6607ZM24.8393 24.3214H26.1786V25.6607H24.8393V24.3214ZM24.8393 22.9821H26.1786V24.3214H24.8393V22.9821ZM24.8393 21.6429H26.1786V22.9821H24.8393V21.6429ZM24.8393 20.3036H26.1786V21.6429H24.8393V20.3036ZM24.8393 18.9643H26.1786V20.3036H24.8393V18.9643ZM23.5001 18.9643H24.8393V20.3036H23.5001V18.9643ZM23.5001 20.3036H24.8393V21.6429H23.5001V20.3036ZM23.5001 21.6429H24.8393V22.9821H23.5001V21.6429ZM23.5001 22.9821H24.8393V24.3214H23.5001V22.9821ZM23.5001 24.3214H24.8393V25.6607H23.5001V24.3214ZM23.5001 17.625H24.8393V18.9643H23.5001V17.625ZM24.8393 17.625H26.1786V18.9643H24.8393V17.625ZM24.8393 16.2857H26.1786V17.625H24.8393V16.2857ZM24.8393 14.9464H26.1786V16.2857H24.8393V14.9464ZM24.8393 13.6071H26.1786V14.9464H24.8393V13.6071ZM23.5001 13.6071H24.8393V14.9464H23.5001V13.6071ZM23.5001 14.9464H24.8393V16.2857H23.5001V14.9464ZM23.5001 16.2857H24.8393V17.625H23.5001V16.2857ZM32.7962 20.3036H34.1355V21.6429H32.7962V20.3036ZM32.7962 18.9643H34.1355V20.3036H32.7962V18.9643ZM34.1355 18.9643H35.4748V20.3036H34.1355V18.9643ZM34.1355 20.3036H35.4748V21.6429H34.1355V20.3036ZM34.1355 21.6429H35.4748V22.9821H34.1355V21.6429ZM32.7962 21.6429H34.1355V22.9821H32.7962V21.6429ZM32.7962 16.2857H34.1355V17.625H32.7962V16.2857ZM32.7962 17.625H34.1355V18.9643H32.7962V17.625ZM31.457 18.9643H32.7962V20.3036H31.457V18.9643ZM31.457 17.625H32.7962V18.9643H31.457V17.625ZM31.457 16.2857H32.7962V17.625H31.457V16.2857ZM28.7784 13.6071H30.1177V14.9464H28.7784V13.6071ZM30.1177 13.6071H31.457V14.9464H30.1177V13.6071ZM31.457 13.6071H32.7962V14.9464H31.457V13.6071ZM31.457 14.9464H32.7962V16.2857H31.457V14.9464ZM30.1177 14.9464H31.457V16.2857H30.1177V14.9464ZM28.7784 14.9464H30.1177V16.2857H28.7784V14.9464ZM28.7784 16.2857H30.1177V17.625H28.7784V16.2857ZM30.1177 16.2857H31.457V17.625H30.1177V16.2857ZM30.1177 17.625H31.457V18.9643H30.1177V17.625ZM30.1177 18.9643H31.457V20.3036H30.1177V18.9643ZM28.7784 18.9643H30.1177V20.3036H28.7784V18.9643ZM28.7784 17.625H30.1177V18.9643H28.7784V17.625ZM28.7784 20.3036H30.1177V21.6429H28.7784V20.3036ZM30.1177 20.3036H31.457V21.6429H30.1177V20.3036ZM30.1177 21.6429H31.457V22.9821H30.1177V21.6429ZM30.1177 22.9821H31.457V24.3214H30.1177V22.9821ZM30.1177 24.3214H31.457V25.6607H30.1177V24.3214ZM30.1177 25.6607H31.457V27H30.1177V25.6607ZM28.7784 25.6607H30.1177V27H28.7784V25.6607ZM28.7784 24.3214H30.1177V25.6607H28.7784V24.3214ZM28.7784 22.9821H30.1177V24.3214H28.7784V22.9821ZM28.7784 21.6429H30.1177V22.9821H28.7784V21.6429ZM34.1355 22.9821H35.4748V24.3214H34.1355V22.9821ZM34.1355 24.3214H35.4748V25.6607H34.1355V24.3214ZM35.4748 22.9821H36.8141V24.3214H35.4748V22.9821ZM35.4748 21.6429H36.8141V22.9821H35.4748V21.6429ZM35.4748 24.3214H36.8141V25.6607H35.4748V24.3214ZM35.4748 25.6607H36.8141V27H35.4748V25.6607ZM36.8141 25.6607H38.1534V27H36.8141V25.6607ZM38.1534 25.6607H39.4927V27H38.1534V25.6607ZM38.1534 24.3214H39.4927V25.6607H38.1534V24.3214ZM38.1534 22.9821H39.4927V24.3214H38.1534V22.9821ZM36.8141 22.9821H38.1534V24.3214H36.8141V22.9821ZM36.8141 24.3214H38.1534V25.6607H36.8141V24.3214ZM36.8141 21.6429H38.1534V22.9821H36.8141V21.6429ZM38.1534 20.3036H39.4927V21.6429H38.1534V20.3036ZM38.1534 18.9643H39.4927V20.3036H38.1534V18.9643ZM38.1534 21.6429H39.4927V22.9821H38.1534V21.6429ZM36.8141 20.3036H38.1534V21.6429H36.8141V20.3036ZM36.8141 18.9643H38.1534V20.3036H36.8141V18.9643ZM36.8141 17.625H38.1534V18.9643H36.8141V17.625ZM38.1534 17.625H39.4927V18.9643H38.1534V17.625ZM38.1534 16.2857H39.4927V17.625H38.1534V16.2857ZM36.8141 13.6071H38.1534V14.9464H36.8141V13.6071ZM38.1534 13.6071H39.4927V14.9464H38.1534V13.6071ZM38.1534 14.9464H39.4927V16.2857H38.1534V14.9464ZM36.8141 14.9464H38.1534V16.2857H36.8141V14.9464ZM36.8141 16.2857H38.1534V17.625H36.8141V16.2857ZM46.1068 25.6607H47.4461V27H46.1068V25.6607ZM46.1068 24.3214H47.4461V25.6607H46.1068V24.3214ZM46.1068 22.9821H47.4461V24.3214H46.1068V22.9821ZM44.7675 24.3214H46.1068V25.6607H44.7675V24.3214ZM44.7675 22.9821H46.1068V24.3214H44.7675V22.9821ZM44.7675 21.6429H46.1068V22.9821H44.7675V21.6429ZM43.4282 22.9821H44.7675V24.3214H43.4282V22.9821ZM43.4282 21.6429H44.7675V22.9821H43.4282V21.6429ZM47.4461 22.9821H48.7854V24.3214H47.4461V22.9821ZM47.4461 24.3214H48.7854V25.6607H47.4461V24.3214ZM47.4461 21.6429H48.7854V22.9821H47.4461V21.6429ZM48.7854 21.6429H50.1246V22.9821H48.7854V21.6429ZM48.7854 22.9821H50.1246V24.3214H48.7854V22.9821ZM50.1246 21.6429H51.4639V22.9821H50.1246V21.6429ZM42.0889 21.6429H43.4282V22.9821H42.0889V21.6429ZM48.7854 13.6071H50.1246V14.9464H48.7854V13.6071ZM50.1246 13.6071H51.4639V14.9464H50.1246V13.6071ZM50.1246 14.9464H51.4639V16.2857H50.1246V14.9464ZM50.1246 16.2857H51.4639V17.625H50.1246V16.2857ZM50.1246 17.625H51.4639V18.9643H50.1246V17.625ZM50.1246 18.9643H51.4639V20.3036H50.1246V18.9643ZM48.7854 18.9643H50.1246V20.3036H48.7854V18.9643ZM48.7854 20.3036H50.1246V21.6429H48.7854V20.3036ZM48.7854 17.625H50.1246V18.9643H48.7854V17.625ZM48.7854 16.2857H50.1246V17.625H48.7854V16.2857ZM48.7854 14.9464H50.1246V16.2857H48.7854V14.9464ZM50.1246 20.3036H51.4639V21.6429H50.1246V20.3036ZM43.4282 20.3036H44.7675V21.6429H43.4282V20.3036ZM42.0889 20.3036H43.4282V21.6429H42.0889V20.3036ZM42.0889 18.9643H43.4282V20.3036H42.0889V18.9643ZM43.4282 18.9643H44.7675V20.3036H43.4282V18.9643ZM43.4282 17.625H44.7675V18.9643H43.4282V17.625ZM42.0889 17.625H43.4282V18.9643H42.0889V17.625ZM42.0889 16.2857H43.4282V17.625H42.0889V16.2857ZM43.4282 16.2857H44.7675V17.625H43.4282V16.2857ZM42.0889 13.6071H43.4282V14.9464H42.0889V13.6071ZM43.4282 13.6071H44.7675V14.9464H43.4282V13.6071ZM43.4282 14.9464H44.7675V16.2857H43.4282V14.9464ZM42.0889 14.9464H43.4282V16.2857H42.0889V14.9464ZM54.0567 25.6607H55.396V27H54.0567V25.6607ZM55.396 25.6607H56.7353V27H55.396V25.6607ZM55.396 24.3214H56.7353V25.6607H55.396V24.3214ZM55.396 22.9821H56.7353V24.3214H55.396V22.9821ZM55.396 21.6429H56.7353V22.9821H55.396V21.6429ZM55.396 20.3036H56.7353V21.6429H55.396V20.3036ZM55.396 18.9643H56.7353V20.3036H55.396V18.9643ZM54.0567 18.9643H55.396V20.3036H54.0567V18.9643ZM54.0567 20.3036H55.396V21.6429H54.0567V20.3036ZM54.0567 21.6429H55.396V22.9821H54.0567V21.6429ZM54.0567 22.9821H55.396V24.3214H54.0567V22.9821ZM54.0567 24.3214H55.396V25.6607H54.0567V24.3214ZM54.0567 17.625H55.396V18.9643H54.0567V17.625ZM55.396 17.625H56.7353V18.9643H55.396V17.625ZM55.396 16.2857H56.7353V17.625H55.396V16.2857ZM55.396 14.9464H56.7353V16.2857H55.396V14.9464ZM55.396 13.6071H56.7353V14.9464H55.396V13.6071ZM54.0567 13.6071H55.396V14.9464H54.0567V13.6071ZM54.0567 14.9464H55.396V16.2857H54.0567V14.9464ZM54.0567 16.2857H55.396V17.625H54.0567V16.2857ZM59.335 13.6071H60.6743V14.9464H59.335V13.6071ZM60.6743 13.6071H62.0136V14.9464H60.6743V13.6071ZM62.0136 13.6071H63.3529V14.9464H62.0136V13.6071ZM63.3529 13.6071H64.6922V14.9464H63.3529V13.6071ZM64.6922 13.6071H66.0315V14.9464H64.6922V13.6071ZM66.0315 13.6071H67.3707V14.9464H66.0315V13.6071ZM66.0315 14.9464H67.3707V16.2857H66.0315V14.9464ZM64.6922 14.9464H66.0315V16.2857H64.6922V14.9464ZM63.3529 14.9464H64.6922V16.2857H63.3529V14.9464ZM62.0136 14.9464H63.3529V16.2857H62.0136V14.9464ZM60.6743 14.9464H62.0136V16.2857H60.6743V14.9464ZM59.335 14.9464H60.6743V16.2857H59.335V14.9464ZM62.0136 16.2857H63.3529V17.625H62.0136V16.2857ZM62.0136 17.625H63.3529V18.9643H62.0136V17.625ZM62.0136 18.9643H63.3529V20.3036H62.0136V18.9643ZM62.0136 20.3036H63.3529V21.6429H62.0136V20.3036ZM62.0136 21.6429H63.3529V22.9821H62.0136V21.6429ZM62.0136 22.9821H63.3529V24.3214H62.0136V22.9821ZM63.3529 21.6429H64.6922V22.9821H63.3529V21.6429ZM63.3529 20.3036H64.6922V21.6429H63.3529V20.3036ZM63.3529 18.9643H64.6922V20.3036H63.3529V18.9643ZM63.3529 17.625H64.6922V18.9643H63.3529V17.625ZM63.3529 16.2857H64.6922V17.625H63.3529V16.2857ZM63.3529 22.9821H64.6922V24.3214H63.3529V22.9821ZM63.3529 24.3214H64.6922V25.6607H63.3529V24.3214ZM63.3529 25.6607H64.6922V27H63.3529V25.6607ZM62.0136 25.6607H63.3529V27H62.0136V25.6607ZM62.0136 24.3214H63.3529V25.6607H62.0136V24.3214ZM69.96 13.6071H71.2993V14.9464H69.96V13.6071ZM71.2993 13.6071H72.6386V14.9464H71.2993V13.6071ZM71.2993 14.9464H72.6386V16.2857H71.2993V14.9464ZM71.2993 16.2857H72.6386V17.625H71.2993V16.2857ZM71.2993 17.625H72.6386V18.9643H71.2993V17.625ZM69.96 17.625H71.2993V18.9643H69.96V17.625ZM69.96 16.2857H71.2993V17.625H69.96V16.2857ZM69.96 14.9464H71.2993V16.2857H69.96V14.9464ZM69.96 18.9643H71.2993V20.3036H69.96V18.9643ZM69.96 20.3036H71.2993V21.6429H69.96V20.3036ZM69.96 21.6429H71.2993V22.9821H69.96V21.6429ZM71.2993 20.3036H72.6386V21.6429H71.2993V20.3036ZM71.2993 18.9643H72.6386V20.3036H71.2993V18.9643ZM71.2993 21.6429H72.6386V22.9821H71.2993V21.6429ZM71.2993 22.9821H72.6386V24.3214H71.2993V22.9821ZM69.96 24.3214H71.2993V25.6607H69.96V24.3214ZM69.96 22.9821H71.2993V24.3214H69.96V22.9821ZM69.96 25.6607H71.2993V27H69.96V25.6607ZM71.2993 25.6607H72.6386V27H71.2993V25.6607ZM71.2993 24.3214H72.6386V25.6607H71.2993V24.3214ZM72.6386 25.6607H73.9779V27H72.6386V25.6607ZM73.9779 25.6607H75.3172V27H73.9779V25.6607ZM75.3172 25.6607H76.6565V27H75.3172V25.6607ZM75.3172 24.3214H76.6565V25.6607H75.3172V24.3214ZM73.9779 24.3214H75.3172V25.6607H73.9779V24.3214ZM72.6386 24.3214H73.9779V25.6607H72.6386V24.3214ZM72.6386 13.6071H73.9779V14.9464H72.6386V13.6071ZM73.9779 13.6071H75.3172V14.9464H73.9779V13.6071ZM75.3172 13.6071H76.6565V14.9464H75.3172V13.6071ZM76.6565 13.6071H77.9957V14.9464H76.6565V13.6071ZM75.3172 14.9464H76.6565V16.2857H75.3172V14.9464ZM73.9779 14.9464H75.3172V16.2857H73.9779V14.9464ZM72.6386 14.9464H73.9779V16.2857H72.6386V14.9464ZM72.6386 20.3036H73.9779V21.6429H72.6386V20.3036ZM73.9779 18.9643H75.3172V20.3036H73.9779V18.9643ZM72.6386 18.9643H73.9779V20.3036H72.6386V18.9643ZM73.9779 20.3036H75.3172V21.6429H73.9779V20.3036ZM76.6565 14.9464H77.9957V16.2857H76.6565V14.9464ZM76.6565 24.3214H77.9957V25.6607H76.6565V24.3214ZM76.6565 25.6607H77.9957V27H76.6565V25.6607ZM75.3172 18.9643H76.6565V20.3036H75.3172V18.9643ZM75.3172 20.3036H76.6565V21.6429H75.3172V20.3036ZM87.1817 13.6071H88.521V14.9464H87.1817V13.6071ZM88.521 13.6071H89.8603V14.9464H88.521V13.6071ZM88.521 14.9464H89.8603V16.2857H88.521V14.9464ZM88.521 16.2857H89.8603V17.625H88.521V16.2857ZM88.521 17.625H89.8603V18.9643H88.521V17.625ZM87.1817 17.625H88.521V18.9643H87.1817V17.625ZM87.1817 16.2857H88.521V17.625H87.1817V16.2857ZM87.1817 14.9464H88.521V16.2857H87.1817V14.9464ZM87.1817 18.9643H88.521V20.3036H87.1817V18.9643ZM87.1817 20.3036H88.521V21.6429H87.1817V20.3036ZM87.1817 21.6429H88.521V22.9821H87.1817V21.6429ZM88.521 20.3036H89.8603V21.6429H88.521V20.3036ZM88.521 18.9643H89.8603V20.3036H88.521V18.9643ZM88.521 21.6429H89.8603V22.9821H88.521V21.6429ZM88.521 22.9821H89.8603V24.3214H88.521V22.9821ZM87.1817 24.3214H88.521V25.6607H87.1817V24.3214ZM87.1817 22.9821H88.521V24.3214H87.1817V22.9821ZM87.1817 25.6607H88.521V27H87.1817V25.6607ZM88.521 25.6607H89.8603V27H88.521V25.6607ZM88.521 24.3214H89.8603V25.6607H88.521V24.3214ZM89.8603 13.6071H91.1996V14.9464H89.8603V13.6071ZM91.1996 13.6071H92.5388V14.9464H91.1996V13.6071ZM92.5388 13.6071H93.8781V14.9464H92.5388V13.6071ZM93.8781 13.6071H95.2174V14.9464H93.8781V13.6071ZM92.5388 14.9464H93.8781V16.2857H92.5388V14.9464ZM91.1996 14.9464H92.5388V16.2857H91.1996V14.9464ZM89.8603 14.9464H91.1996V16.2857H89.8603V14.9464ZM89.8603 20.3036H91.1996V21.6429H89.8603V20.3036ZM91.1996 18.9643H92.5388V20.3036H91.1996V18.9643ZM89.8603 18.9643H91.1996V20.3036H89.8603V18.9643ZM91.1996 20.3036H92.5388V21.6429H91.1996V20.3036ZM93.8781 14.9464H95.2174V16.2857H93.8781V14.9464ZM92.5388 18.9643H93.8781V20.3036H92.5388V18.9643ZM92.5388 20.3036H93.8781V21.6429H92.5388V20.3036ZM99.146 20.3036H100.485V21.6429H99.146V20.3036ZM100.485 20.3036H101.825V21.6429H100.485V20.3036ZM101.825 20.3036H103.164V21.6429H101.825V20.3036ZM103.164 20.3036H104.503V21.6429H103.164V20.3036ZM100.485 21.6429H101.825V22.9821H100.485V21.6429ZM99.146 21.6429H100.485V22.9821H99.146V21.6429ZM101.825 21.6429H103.164V22.9821H101.825V21.6429ZM103.164 21.6429H104.503V22.9821H103.164V21.6429ZM104.503 22.9821H105.842V24.3214H104.503V22.9821ZM105.842 21.6429H107.182V22.9821H105.842V21.6429ZM104.503 21.6429H105.842V22.9821H104.503V21.6429ZM105.842 22.9821H107.182V24.3214H105.842V22.9821ZM104.503 24.3214H105.842V25.6607H104.503V24.3214ZM105.842 24.3214H107.182V25.6607H105.842V24.3214ZM105.842 25.6607H107.182V27H105.842V25.6607ZM104.503 25.6607H105.842V27H104.503V25.6607ZM99.146 25.6607H100.485V27H99.146V25.6607ZM97.8067 25.6607H99.146V27H97.8067V25.6607ZM97.8067 24.3214H99.146V25.6607H97.8067V24.3214ZM99.146 24.3214H100.485V25.6607H99.146V24.3214ZM99.146 22.9821H100.485V24.3214H99.146V22.9821ZM97.8067 22.9821H99.146V24.3214H97.8067V22.9821ZM97.8067 21.6429H99.146V22.9821H97.8067V21.6429ZM97.8067 20.3036H99.146V21.6429H97.8067V20.3036ZM97.8067 18.9643H99.146V20.3036H97.8067V18.9643ZM99.146 18.9643H100.485V20.3036H99.146V18.9643ZM97.8067 13.6071H99.146V14.9464H97.8067V13.6071ZM99.146 13.6071H100.485V14.9464H99.146V13.6071ZM100.485 13.6071H101.825V14.9464H100.485V13.6071ZM101.825 13.6071H103.164V14.9464H101.825V13.6071ZM103.164 13.6071H104.503V14.9464H103.164V13.6071ZM104.503 13.6071H105.842V14.9464H104.503V13.6071ZM104.503 14.9464H105.842V16.2857H104.503V14.9464ZM103.164 14.9464H104.503V16.2857H103.164V14.9464ZM101.825 14.9464H103.164V16.2857H101.825V14.9464ZM100.485 14.9464H101.825V16.2857H100.485V14.9464ZM99.146 14.9464H100.485V16.2857H99.146V14.9464ZM97.8067 14.9464H99.146V16.2857H97.8067V14.9464ZM97.8067 16.2857H99.146V17.625H97.8067V16.2857ZM97.8067 17.625H99.146V18.9643H97.8067V17.625ZM99.146 17.625H100.485V18.9643H99.146V17.625ZM99.146 16.2857H100.485V17.625H99.146V16.2857ZM104.503 16.2857H105.842V17.625H104.503V16.2857ZM105.842 16.2857H107.182V17.625H105.842V16.2857ZM105.842 14.9464H107.182V16.2857H105.842V14.9464ZM105.842 17.625H107.182V18.9643H105.842V17.625ZM104.503 17.625H105.842V18.9643H104.503V17.625ZM104.503 18.9643H105.842V20.3036H104.503V18.9643ZM105.842 18.9643H107.182V20.3036H105.842V18.9643ZM104.503 20.3036H105.842V21.6429H104.503V20.3036ZM109.774 25.6607H111.114V27H109.774V25.6607ZM111.114 25.6607H112.453V27H111.114V25.6607ZM111.114 24.3214H112.453V25.6607H111.114V24.3214ZM111.114 22.9821H112.453V24.3214H111.114V22.9821ZM111.114 21.6429H112.453V22.9821H111.114V21.6429ZM111.114 20.3036H112.453V21.6429H111.114V20.3036ZM111.114 18.9643H112.453V20.3036H111.114V18.9643ZM109.774 18.9643H111.114V20.3036H109.774V18.9643ZM109.774 20.3036H111.114V21.6429H109.774V20.3036ZM109.774 21.6429H111.114V22.9821H109.774V21.6429ZM109.774 22.9821H111.114V24.3214H109.774V22.9821ZM109.774 24.3214H111.114V25.6607H109.774V24.3214ZM109.774 17.625H111.114V18.9643H109.774V17.625ZM111.114 17.625H112.453V18.9643H111.114V17.625ZM111.114 16.2857H112.453V17.625H111.114V16.2857ZM111.114 14.9464H112.453V16.2857H111.114V14.9464ZM111.114 13.6071H112.453V14.9464H111.114V13.6071ZM109.774 13.6071H111.114V14.9464H109.774V13.6071ZM109.774 14.9464H111.114V16.2857H109.774V14.9464ZM109.774 16.2857H111.114V17.625H109.774V16.2857ZM115.053 13.6071H116.392V14.9464H115.053V13.6071ZM116.392 13.6071H117.731V14.9464H116.392V13.6071ZM116.392 14.9464H117.731V16.2857H116.392V14.9464ZM116.392 16.2857H117.731V17.625H116.392V16.2857ZM116.392 17.625H117.731V18.9643H116.392V17.625ZM115.053 17.625H116.392V18.9643H115.053V17.625ZM115.053 16.2857H116.392V17.625H115.053V16.2857ZM115.053 14.9464H116.392V16.2857H115.053V14.9464ZM115.053 18.9643H116.392V20.3036H115.053V18.9643ZM115.053 20.3036H116.392V21.6429H115.053V20.3036ZM115.053 21.6429H116.392V22.9821H115.053V21.6429ZM116.392 20.3036H117.731V21.6429H116.392V20.3036ZM116.392 18.9643H117.731V20.3036H116.392V18.9643ZM116.392 21.6429H117.731V22.9821H116.392V21.6429ZM116.392 22.9821H117.731V24.3214H116.392V22.9821ZM115.053 24.3214H116.392V25.6607H115.053V24.3214ZM115.053 22.9821H116.392V24.3214H115.053V22.9821ZM115.053 25.6607H116.392V27H115.053V25.6607ZM116.392 25.6607H117.731V27H116.392V25.6607ZM116.392 24.3214H117.731V25.6607H116.392V24.3214ZM117.731 25.6607H119.071V27H117.731V25.6607ZM119.071 25.6607H120.41V27H119.071V25.6607ZM120.41 25.6607H121.749V27H120.41V25.6607ZM120.41 24.3214H121.749V25.6607H120.41V24.3214ZM119.071 24.3214H120.41V25.6607H119.071V24.3214ZM117.731 24.3214H119.071V25.6607H117.731V24.3214ZM117.731 13.6071H119.071V14.9464H117.731V13.6071ZM119.071 13.6071H120.41V14.9464H119.071V13.6071ZM120.41 13.6071H121.749V14.9464H120.41V13.6071ZM121.749 13.6071H123.089V14.9464H121.749V13.6071ZM120.41 14.9464H121.749V16.2857H120.41V14.9464ZM119.071 14.9464H120.41V16.2857H119.071V14.9464ZM117.731 14.9464H119.071V16.2857H117.731V14.9464ZM117.731 20.3036H119.071V21.6429H117.731V20.3036ZM119.071 18.9643H120.41V20.3036H119.071V18.9643ZM117.731 18.9643H119.071V20.3036H117.731V18.9643ZM119.071 20.3036H120.41V21.6429H119.071V20.3036ZM121.749 14.9464H123.089V16.2857H121.749V14.9464ZM121.749 24.3214H123.089V25.6607H121.749V24.3214ZM121.749 25.6607H123.089V27H121.749V25.6607ZM120.41 18.9643H121.749V20.3036H120.41V18.9643ZM120.41 20.3036H121.749V21.6429H120.41V20.3036ZM129.696 20.3036H131.035V21.6429H129.696V20.3036ZM129.696 18.9643H131.035V20.3036H129.696V18.9643ZM131.035 18.9643H132.374V20.3036H131.035V18.9643ZM131.035 20.3036H132.374V21.6429H131.035V20.3036ZM131.035 21.6429H132.374V22.9821H131.035V21.6429ZM129.696 21.6429H131.035V22.9821H129.696V21.6429ZM129.696 16.2857H131.035V17.625H129.696V16.2857ZM129.696 17.625H131.035V18.9643H129.696V17.625ZM128.356 18.9643H129.696V20.3036H128.356V18.9643ZM128.356 17.625H129.696V18.9643H128.356V17.625ZM128.356 16.2857H129.696V17.625H128.356V16.2857ZM125.678 13.6071H127.017V14.9464H125.678V13.6071ZM127.017 13.6071H128.356V14.9464H127.017V13.6071ZM128.356 13.6071H129.696V14.9464H128.356V13.6071ZM128.356 14.9464H129.696V16.2857H128.356V14.9464ZM127.017 14.9464H128.356V16.2857H127.017V14.9464ZM125.678 14.9464H127.017V16.2857H125.678V14.9464ZM125.678 16.2857H127.017V17.625H125.678V16.2857ZM127.017 16.2857H128.356V17.625H127.017V16.2857ZM127.017 17.625H128.356V18.9643H127.017V17.625ZM127.017 18.9643H128.356V20.3036H127.017V18.9643ZM125.678 18.9643H127.017V20.3036H125.678V18.9643ZM125.678 17.625H127.017V18.9643H125.678V17.625ZM125.678 20.3036H127.017V21.6429H125.678V20.3036ZM127.017 20.3036H128.356V21.6429H127.017V20.3036ZM127.017 21.6429H128.356V22.9821H127.017V21.6429ZM127.017 22.9821H128.356V24.3214H127.017V22.9821ZM127.017 24.3214H128.356V25.6607H127.017V24.3214ZM127.017 25.6607H128.356V27H127.017V25.6607ZM125.678 25.6607H127.017V27H125.678V25.6607ZM125.678 24.3214H127.017V25.6607H125.678V24.3214ZM125.678 22.9821H127.017V24.3214H125.678V22.9821ZM125.678 21.6429H127.017V22.9821H125.678V21.6429ZM131.035 22.9821H132.374V24.3214H131.035V22.9821ZM131.035 24.3214H132.374V25.6607H131.035V24.3214ZM132.374 22.9821H133.714V24.3214H132.374V22.9821ZM132.374 21.6429H133.714V22.9821H132.374V21.6429ZM132.374 24.3214H133.714V25.6607H132.374V24.3214ZM132.374 25.6607H133.714V27H132.374V25.6607ZM133.714 25.6607H135.053V27H133.714V25.6607ZM135.053 25.6607H136.392V27H135.053V25.6607ZM135.053 24.3214H136.392V25.6607H135.053V24.3214ZM135.053 22.9821H136.392V24.3214H135.053V22.9821ZM133.714 22.9821H135.053V24.3214H133.714V22.9821ZM133.714 24.3214H135.053V25.6607H133.714V24.3214ZM133.714 21.6429H135.053V22.9821H133.714V21.6429ZM135.053 20.3036H136.392V21.6429H135.053V20.3036ZM135.053 18.9643H136.392V20.3036H135.053V18.9643ZM135.053 21.6429H136.392V22.9821H135.053V21.6429ZM133.714 20.3036H135.053V21.6429H133.714V20.3036ZM133.714 18.9643H135.053V20.3036H133.714V18.9643ZM133.714 17.625H135.053V18.9643H133.714V17.625ZM135.053 17.625H136.392V18.9643H135.053V17.625ZM135.053 16.2857H136.392V17.625H135.053V16.2857ZM133.714 13.6071H135.053V14.9464H133.714V13.6071ZM135.053 13.6071H136.392V14.9464H135.053V13.6071ZM135.053 14.9464H136.392V16.2857H135.053V14.9464ZM133.714 14.9464H135.053V16.2857H133.714V14.9464ZM133.714 16.2857H135.053V17.625H133.714V16.2857ZM141.667 13.6071H143.006V14.9464H141.667V13.6071ZM140.328 13.6071H141.667V14.9464H140.328V13.6071ZM140.328 14.9464H141.667V16.2857H140.328V14.9464ZM141.667 14.9464H143.006V16.2857H141.667V14.9464ZM143.006 14.9464H144.345V16.2857H143.006V14.9464ZM143.006 13.6071H144.345V14.9464H143.006V13.6071ZM144.345 13.6071H145.685V14.9464H144.345V13.6071ZM145.685 13.6071H147.024V14.9464H145.685V13.6071ZM145.685 14.9464H147.024V16.2857H145.685V14.9464ZM144.345 14.9464H145.685V16.2857H144.345V14.9464ZM144.345 16.2857H145.685V17.625H144.345V16.2857ZM145.685 16.2857H147.024V17.625H145.685V16.2857ZM147.024 14.9464H148.363V16.2857H147.024V14.9464ZM147.024 16.2857H148.363V17.625H147.024V16.2857ZM147.024 17.625H148.363V18.9643H147.024V17.625ZM147.024 18.9643H148.363V20.3036H147.024V18.9643ZM147.024 20.3036H148.363V21.6429H147.024V20.3036ZM147.024 21.6429H148.363V22.9821H147.024V21.6429ZM147.024 22.9821H148.363V24.3214H147.024V22.9821ZM147.024 24.3214H148.363V25.6607H147.024V24.3214ZM145.685 24.3214H147.024V25.6607H145.685V24.3214ZM145.685 22.9821H147.024V24.3214H145.685V22.9821ZM145.685 21.6429H147.024V22.9821H145.685V21.6429ZM145.685 20.3036H147.024V21.6429H145.685V20.3036ZM145.685 18.9643H147.024V20.3036H145.685V18.9643ZM145.685 17.625H147.024V18.9643H145.685V17.625ZM144.345 22.9821H145.685V24.3214H144.345V22.9821ZM144.345 24.3214H145.685V25.6607H144.345V24.3214ZM145.685 25.6607H147.024V27H145.685V25.6607ZM144.345 25.6607H145.685V27H144.345V25.6607ZM143.006 25.6607H144.345V27H143.006V25.6607ZM143.006 24.3214H144.345V25.6607H143.006V24.3214ZM141.667 25.6607H143.006V27H141.667V25.6607ZM140.328 25.6607H141.667V27H140.328V25.6607ZM140.328 24.3214H141.667V25.6607H140.328V24.3214ZM141.667 24.3214H143.006V25.6607H141.667V24.3214ZM140.328 22.9821H141.667V24.3214H140.328V22.9821ZM138.988 24.3214H140.328V25.6607H138.988V24.3214ZM138.988 22.9821H140.328V24.3214H138.988V22.9821ZM138.988 21.6429H140.328V22.9821H138.988V21.6429ZM138.988 20.3036H140.328V21.6429H138.988V20.3036ZM138.988 18.9643H140.328V20.3036H138.988V18.9643ZM138.988 17.625H140.328V18.9643H138.988V17.625ZM138.988 16.2857H140.328V17.625H138.988V16.2857ZM140.328 16.2857H141.667V17.625H140.328V16.2857ZM138.988 14.9464H140.328V16.2857H138.988V14.9464ZM140.328 17.625H141.667V18.9643H140.328V17.625ZM140.328 18.9643H141.667V20.3036H140.328V18.9643ZM140.328 20.3036H141.667V21.6429H140.328V20.3036ZM140.328 21.6429H141.667V22.9821H140.328V21.6429ZM138.988 25.6607H140.328V27H138.988V25.6607ZM138.988 13.6071H140.328V14.9464H138.988V13.6071ZM158.992 16.2857H160.331V17.625H158.992V16.2857ZM157.653 16.2857H158.992V17.625H157.653V16.2857ZM157.653 14.9464H158.992V16.2857H157.653V14.9464ZM158.992 14.9464H160.331V16.2857H158.992V14.9464ZM157.653 13.6071H158.992V14.9464H157.653V13.6071ZM156.313 13.6071H157.653V14.9464H156.313V13.6071ZM156.313 14.9464H157.653V16.2857H156.313V14.9464ZM154.974 14.9464H156.313V16.2857H154.974V14.9464ZM153.635 14.9464H154.974V16.2857H153.635V14.9464ZM153.635 13.6071H154.974V14.9464H153.635V13.6071ZM152.295 13.6071H153.635V14.9464H152.295V13.6071ZM154.974 13.6071H156.313V14.9464H154.974V13.6071ZM152.295 14.9464H153.635V16.2857H152.295V14.9464ZM150.956 14.9464H152.295V16.2857H150.956V14.9464ZM150.956 16.2857H152.295V17.625H150.956V16.2857ZM152.295 16.2857H153.635V17.625H152.295V16.2857ZM152.295 17.625H153.635V18.9643H152.295V17.625ZM152.295 18.9643H153.635V20.3036H152.295V18.9643ZM150.956 18.9643H152.295V20.3036H150.956V18.9643ZM150.956 17.625H152.295V18.9643H150.956V17.625ZM152.295 20.3036H153.635V21.6429H152.295V20.3036ZM153.635 20.3036H154.974V21.6429H153.635V20.3036ZM153.635 18.9643H154.974V20.3036H153.635V18.9643ZM154.974 18.9643H156.313V20.3036H154.974V18.9643ZM156.313 18.9643H157.653V20.3036H156.313V18.9643ZM157.653 18.9643H158.992V20.3036H157.653V18.9643ZM157.653 20.3036H158.992V21.6429H157.653V20.3036ZM156.313 20.3036H157.653V21.6429H156.313V20.3036ZM154.974 20.3036H156.313V21.6429H154.974V20.3036ZM158.992 20.3036H160.331V21.6429H158.992V20.3036ZM158.992 21.6429H160.331V22.9821H158.992V21.6429ZM157.653 21.6429H158.992V22.9821H157.653V21.6429ZM156.313 24.3214H157.653V25.6607H156.313V24.3214ZM157.653 24.3214H158.992V25.6607H157.653V24.3214ZM157.653 22.9821H158.992V24.3214H157.653V22.9821ZM158.992 22.9821H160.331V24.3214H158.992V22.9821ZM158.992 24.3214H160.331V25.6607H158.992V24.3214ZM157.653 25.6607H158.992V27H157.653V25.6607ZM156.313 25.6607H157.653V27H156.313V25.6607ZM154.974 25.6607H156.313V27H154.974V25.6607ZM153.635 25.6607H154.974V27H153.635V25.6607ZM152.295 25.6607H153.635V27H152.295V25.6607ZM152.295 24.3214H153.635V25.6607H152.295V24.3214ZM153.635 24.3214H154.974V25.6607H153.635V24.3214ZM154.974 24.3214H156.313V25.6607H154.974V24.3214ZM150.956 24.3214H152.295V25.6607H150.956V24.3214ZM150.956 22.9821H152.295V24.3214H150.956V22.9821ZM152.295 22.9821H153.635V24.3214H152.295V22.9821Z" fill="black"/>
<rect x="15.9325" y="36.1758" width="154.135" height="2.16216" fill="#187249"/>
<rect x="15.9325" y="38.3379" width="154.135" height="2.16216" fill="black"/>
<rect width="12.973" height="31.3514" transform="matrix(-1 -8.74228e-08 -8.74228e-08 1 183.041 4.82422)" fill="#00BA64"/>
<rect x="180.878" y="4.79492" width="2.16216" height="2.15682" transform="rotate(-180 180.878 4.79492)" fill="black"/>
<rect x="183.041" y="6.94385" width="2.16216" height="2.15682" transform="rotate(-180 183.041 6.94385)" fill="black"/>
<rect x="185.203" y="34.0137" width="2.16216" height="27.027" transform="rotate(-180 185.203 34.0137)" fill="black"/>
<rect x="178.716" y="2.64893" width="8.64865" height="2.14874" transform="rotate(-180 178.716 2.64893)" fill="black"/>
<rect x="178.716" y="4.81396" width="8.64865" height="2.15682" transform="rotate(-180 178.716 4.81396)" fill="#63EAAC"/>
<rect width="2.16216" height="2.16216" transform="matrix(-1 -8.74228e-08 -8.74228e-08 1 180.878 36.1763)" fill="black"/>
<rect width="5.40541" height="2.16216" transform="matrix(-1 -8.74228e-08 -8.74228e-08 1 180.878 34.0137)" fill="#187249"/>
<rect width="2.16216" height="2.14874" transform="matrix(-1 -8.74228e-08 -8.74228e-08 1 183.041 34.0137)" fill="black"/>
<rect width="5.40541" height="2.16216" transform="matrix(-1 -8.74228e-08 -8.74228e-08 1 183.041 31.8521)" fill="#187249"/>
<rect width="8.64865" height="2.15682" transform="matrix(-1 -8.74228e-08 -8.74228e-08 1 178.716 38.3433)" fill="black"/>
<rect width="8.64865" height="2.16216" transform="matrix(-1 -8.74228e-08 -8.74228e-08 1 178.716 36.1763)" fill="#187249"/>
</svg>
