<svg width="31" height="31" viewBox="0 0 31 31" fill="none" xmlns="http://www.w3.org/2000/svg">
<path fill-rule="evenodd" clip-rule="evenodd" d="M12.78 0.327148H11.502V1.60518H12.78V0.327148ZM8.94657 1.60543H10.2235H10.2246H11.5016V2.88346H10.2246H10.2235H8.94657V1.60543ZM7.66757 2.88296H6.38954V4.161H7.66757V2.88296ZM6.3906 4.16125H5.11257V5.43928H6.3906V4.16125ZM14.0591 0.327148H15.3361H15.3372H16.6141V1.60518H15.3372H15.3361H14.0591V0.327148ZM17.8926 0.327148H16.6146V1.60518H17.8926V0.327148ZM19.1701 1.60543H20.4482V2.88346H19.1701V1.60543ZM23.0041 2.88296H21.7272V4.161H23.0041H23.0052H24.2822V2.88296H23.0052H23.0041ZM7.66801 2.88296H8.94604V4.161H7.66801V2.88296ZM12.7806 0.327148H14.0586V1.60518H12.7806V0.327148ZM17.8931 0.327148H19.1712V1.60518H17.8931V0.327148ZM21.7266 1.60543H20.4486V2.88346H21.7266V1.60543ZM25.5607 4.16125H24.2827V5.43928H25.5607V4.16125ZM25.5612 5.43953H26.8392V6.71756H25.5612V5.43953ZM28.1162 6.71781H26.8381V7.99535V7.99585V9.27338H28.1162V7.99585V7.99535V6.71781ZM28.1167 9.27363H29.3947V10.5512V10.5517V11.8292H28.1167V10.5517V10.5512V9.27363ZM30.6733 11.8294H29.3953V13.107V13.1075V14.385H30.6733V13.1075V13.107V11.8294ZM29.3953 14.3853H30.6733V15.6633H29.3953V14.3853ZM30.6733 16.9418H29.3953V18.2194V18.2199V19.4974H30.6733V18.2199V18.2194V16.9418ZM28.1167 19.4976H29.3947V20.7757H28.1167V19.4976ZM28.1162 22.0535H26.8381V23.3315H28.1162V22.0535ZM30.6733 15.6635H29.3953V16.9416H30.6733V15.6635ZM29.3947 20.7759H28.1167V22.054H29.3947V20.7759ZM26.8381 23.3317H28.1162V24.6098H26.8381V23.3317ZM26.8392 24.61H25.5612V25.8881H26.8392V24.61ZM24.2827 25.8883H25.5607V27.1663H24.2827V25.8883ZM24.2822 27.1658H23.0052H23.0041H21.7272V28.4439H23.0041H23.0052H24.2822V27.1658ZM20.4486 28.4441H21.7266V29.7222H20.4486V28.4441ZM19.1701 28.4441H20.4482V29.7222H19.1712V30.9997H17.8931V29.7217H19.1701V28.4441ZM5.11204 5.43953H3.83401V6.71756H5.11204V5.43953ZM2.55544 6.71781H3.83347V7.99535V7.99585V9.27338H2.55544V7.99585V7.99535V6.71781ZM2.55544 22.054H1.27856V20.7759H2.5566V22.0535H3.83347V23.3315H2.55544V22.054ZM1.27856 9.27363H2.5566V10.5512V10.5517V11.8292H1.27856V10.5517V10.5512V9.27363ZM2.5566 19.4976H1.27856V20.7757H2.5566V19.4976ZM0 11.8294H1.27803V13.107V13.1075V14.385H0V13.1075V13.107V11.8294ZM1.27803 14.3853H0V15.6633H1.27803V14.3853ZM3.83347 23.3317H2.55544V24.6098H3.83347V23.3317ZM3.83401 24.61H5.11204V25.8881H3.83401V24.61ZM6.3906 25.8883H5.11257V27.1663H6.38954V28.4439H7.66757V27.1658H6.3906V25.8883ZM8.94604 27.1658H7.66801V28.4439H8.94604V27.1658ZM8.94657 28.4441H10.2235H10.2246H11.5016V29.7222H10.2246H10.2235H8.94657V28.4441ZM12.78 29.7217H11.502V30.9997H12.78V29.7217ZM14.0591 29.7217H15.3361H15.3372H16.6141V30.9997H15.3372H15.3361H14.0591V29.7217ZM17.8926 29.7217H16.6146V30.9997H17.8926V29.7217ZM12.7806 29.7217H14.0586V30.9997H12.7806V29.7217ZM1.27803 15.6635H0V16.9416H1.27803V15.6635ZM0 16.9418H1.27803V18.2194V18.2199V19.4974H0V18.2199V18.2194V16.9418Z" fill="black"/>
<path d="M2.79199 13.2737L5.98707 7.83022L9.25316 4.01979L14.531 3.23877L19.0514 4.01979L22.6252 5.34516L26.6723 10.0786L28.1396 14.0547L27.3586 19.9479L24.0925 25.486L18.1994 27.9711H12.9689L7.76212 25.486L3.33634 21.2022L2.79199 13.2737Z" fill="#FDCD08"/>
<path fill-rule="evenodd" clip-rule="evenodd" d="M19.1682 1.60449H11.5V2.88277H8.94444V4.16031H6.389V5.43859H5.11043V6.71687H3.83187V9.27269H2.55499V11.8285H1.27643V19.4967H2.55499V22.0528H5.11106V19.4967H3.83249V11.8288H5.11106V9.27294H6.38794V7.99466H7.6665V6.71637H8.94506V5.43884H11.5005V4.16056H19.1682V1.60449ZM6.38794 22.0533H3.83187V24.6093H5.11043V25.8869H6.389V27.1652H8.94444V28.4434H11.5V29.7217H19.1682V27.1657H11.5005V25.8874H8.94506V24.6091H7.6665V23.3308H6.38794V22.0533ZM24.2811 27.1652H21.7256V28.4434H19.1696V25.8874H21.725V24.6091H23.0036V23.3308H24.2806V22.0533H26.8366V24.6093H25.5596V25.8869H24.2811V27.1652ZM26.8376 19.4967H25.5591V22.0528H28.1152V19.4967H29.3937V11.8285H28.1152V9.27269H26.8366V6.71687H25.5596V5.43859H24.2811V4.16031H21.7256V2.88277H19.1696V5.43884H21.725V6.71637H23.0036V7.99466H24.2806V9.27294H25.5591V11.8288H26.8376V19.4967Z" fill="#FDCD08"/>
<path fill-rule="evenodd" clip-rule="evenodd" d="M26.8389 11.8291H25.5609V19.4973H26.8389V11.8291ZM24.2824 19.4973H25.5604V22.0534H24.2824V19.4973ZM24.2819 22.0531H23.0038V23.3311H24.2819V22.0531ZM21.7268 23.3314H23.0049V24.6094H21.7268V23.3314ZM21.7259 24.6097H19.1698V25.8877H21.7259V24.6097ZM19.1699 25.888H11.5017V27.166H19.1699V25.888Z" fill="#FFDD72"/>
<path fill-rule="evenodd" clip-rule="evenodd" d="M3.8336 18.2202L5.11163 18.2202L5.11163 11.83L3.8336 11.83L3.8336 18.2202ZM6.3901 11.8303L5.11207 11.8303L5.11207 9.27423L6.3901 9.27423L6.3901 11.8303ZM6.38904 9.27373L7.66707 9.27373L7.66707 7.9957L6.38904 7.9957L6.38904 9.27373ZM8.94564 7.9962L7.6676 7.9962L7.6676 6.71817L8.94564 6.71817L8.94564 7.9962ZM8.94501 6.71792L11.5011 6.71792L11.5011 5.43988L8.94501 5.43988L8.94501 6.71792ZM14.0597 5.43963L15.3351 5.43964L15.3351 4.1616L14.0597 4.1616L14.0571 4.1616L12.7817 4.1616L12.7817 5.43963L14.0571 5.43963L14.0597 5.43963ZM12.7796 5.43963L11.5016 5.43963L11.5016 4.1616L12.7796 4.1616L12.7796 5.43963ZM16.6136 5.43963L15.3356 5.43963L15.3356 4.1616L16.6136 4.1616L16.6136 5.43963Z" fill="#FAA008"/>
<path fill-rule="evenodd" clip-rule="evenodd" d="M16.6154 4.16089L16.6154 5.43893L19.1714 5.43893L19.1714 4.16089L16.6154 4.16089ZM19.1708 6.71721L19.1708 5.43918L21.7269 5.43918L21.7269 6.71721L19.1708 6.71721ZM21.7279 6.71746L21.7279 7.99549L23.0049 7.99549L23.0049 9.27302L24.2829 9.27302L24.2829 7.99499L23.006 7.99499L23.006 6.71746L21.7279 6.71746ZM24.2834 11.8296L24.2834 9.27352L25.5614 9.27352L25.5614 11.8296L24.2834 11.8296Z" fill="#DFA441"/>
<path fill-rule="evenodd" clip-rule="evenodd" d="M11.5017 24.6104L11.5017 25.8884L8.94564 25.8884L8.94564 24.6104L11.5017 24.6104ZM8.94627 24.6101L8.94627 23.3321L7.66823 23.3321L7.66823 24.6101L8.94627 24.6101ZM7.6677 22.0538L7.6677 23.3319L6.38967 23.3319L6.38967 22.0538L7.6677 22.0538ZM6.38923 19.498L6.38923 22.0541L5.1112 22.0541L5.1112 19.498L6.38923 19.498ZM5.11226 19.4978L5.11226 18.2197L3.83423 18.2197L3.83423 19.4978L5.11226 19.4978Z" fill="#DFA441"/>
<path fill-rule="evenodd" clip-rule="evenodd" d="M19.1709 5.43945H17.8929V6.71774H16.6143V7.99527L15.3363 7.99527V9.27355H14.0589V10.5518H14.0557V10.5518H12.7777V11.8301H12.7773V11.83H11.4992V13.1076L10.2212 13.1076V14.3859H8.94369V15.6641H7.66512V16.9422H8.94369V16.9424H6.38824V18.22H5.10968V19.498H6.38824V19.4985H6.39264L6.39264 22.0548H7.66865L7.66865 23.3323H8.94668L8.94668 22.0548H10.2267L10.2267 20.7765L11.5048 20.7765V19.4982H12.7807V18.22H14.0607V16.9424L15.3361 16.9424V16.9417H15.3367V15.6641H16.6147V15.6634H16.6152L16.6152 14.3859H17.8932V13.1076L19.1707 13.1076V11.8293H20.4493V10.5518H21.7264V9.27347H23.0047V7.99544H21.7264V6.71774H19.1709V5.43945ZM8.94431 18.2207H10.2267L10.2267 18.22H10.2266V16.9422H10.2217V18.22H8.94431V18.2207ZM11.4992 16.9419H11.5027V15.6641L11.4992 15.6641L11.4992 16.9417V16.9419ZM12.7773 15.6641L12.7801 15.6641L12.7801 14.3864H12.7806V14.3862H12.7773V15.6641ZM14.0557 11.8301H14.0589V11.8299H14.0557V11.8301ZM15.3367 14.3861V13.1077H15.3369V11.8299H15.3371V14.3861H15.3367ZM16.6152 11.8293H16.6144V10.5518H16.6152L16.6152 11.8293ZM6.3889 14.3859H5.11087L5.11087 11.8298L6.3889 11.8298L6.3889 14.3859ZM6.38934 13.1076H7.66737V11.83H8.9454L8.9454 10.5518H10.2229V9.27347H11.5014V7.99544H10.2229V7.99519L12.7783 7.99519V6.71766L14.0569 6.71766V5.43963L11.5008 5.43962V6.71716L10.2223 6.71716V6.71766L8.94487 6.71766V7.99544H7.66728L7.66728 9.27347L6.38934 9.27347L6.38934 13.1076ZM12.7811 22.0534V23.3312H11.5032L11.5032 25.8873H12.7812H14.0593V24.609H15.3368V23.3315H16.6152V22.0534H15.3368V22.0532H17.8922V20.7758H17.8946H19.1726V19.4975H20.4485V18.2205H21.725V18.2202H21.7255V18.22H21.7286V16.9424H23.003V16.9417H23.004V15.6641H24.2805V15.6639H24.2805V15.6634H24.2825V14.3861H25.5585V11.83H24.2805H23.0024V13.1083H21.7249V14.3854H20.4484V14.3856H20.4479V14.3859H20.4465V15.6634H19.1705V15.6641H19.1695V16.9417H17.8946V16.9419H17.8945V16.9424H17.8909V18.2197H16.6165V19.4969H15.3367V19.4971H15.3361V20.7749H14.0587V22.0532H12.7812V22.0534H12.7811Z" fill="#FFDD72"/>
</svg>
