<svg width="25" height="24" viewBox="0 0 25 24" fill="none" xmlns="http://www.w3.org/2000/svg">
<path fill-rule="evenodd" clip-rule="evenodd" d="M10.9998 0H9.9998V0.999998H10.9998V0ZM8.00026 1.00008H8.99941H9.00025H9.99941V2.00008H9.00025H8.99941H8.00026V1.00008ZM6.99948 1.99985H5.99948V2.99985H6.99948V1.99985ZM6.00032 2.99993H5.00032V3.99993H6.00032V2.99993ZM12.0006 0H12.9997H13.0006H13.9997V0.999998H13.0006H12.9997H12.0006V0ZM15.0001 0H14.0001V0.999998H15.0001V0ZM15.9997 1.00008H16.9997V2.00008H15.9997V1.00008ZM18.9996 1.99985H18.0004V2.99985H18.9996H19.0004H19.9996V1.99985H19.0004H18.9996ZM6.99987 1.99985H7.99986V2.99985H6.99987V1.99985ZM11.0002 0H12.0002V0.999998H11.0002V0ZM15.0005 0H16.0005V0.999998H15.0005V0ZM18.0001 1.00008H17.0001V2.00008H18.0001V1.00008ZM21 2.99993H20V3.99993H21V2.99993ZM21.0004 4.00001H22.0004V5.00001H21.0004V4.00001ZM22.9995 5.00009H21.9995V5.99987V6.00009V6.99986H22.9995V6.00009V5.99987V5.00009ZM22.9999 6.99995H23.9999V7.99994H22.9999V6.99995ZM25.0003 9.00011H24.0003V9.99988V10.0001V10.9999H25.0003V10.0001V9.99988V9.00011ZM24.0003 11H25.0003V12H24.0003V11ZM25.0003 13.0001H24.0003V13.9999V14.0001V14.9999H25.0003V14.0001V13.9999V13.0001ZM22.9999 15H23.9999V16H22.9999V15ZM22.9995 16.9998H21.9995V17.9998H22.9995V16.9998ZM23.9999 8.00003H22.9999V9.00003H23.9999V8.00003ZM25.0003 12H24.0003V13H25.0003V12ZM23.9999 16.0001H22.9999V17.0001H23.9999V16.0001ZM21.9995 17.9999H22.9995V18.9999H21.9995V17.9999ZM22.0004 19H21.0004V20H22.0004V19ZM20 20.0001H21V21.0001H20V20.0001ZM19.9996 20.9998H19.0004H18.9996H18.0004V21.9998H18.9996H19.0004H19.9996V20.9998ZM17.0001 21.9999H18.0001V22.9999H17.0001V21.9999ZM15.9997 21.9999H16.9997V22.9999H15.9997V21.9999ZM4.99993 4.00001H3.99993V5.00001H4.99993V4.00001ZM2.99954 5.00009H3.99954V5.99987V6.00009V6.99986H2.99954V6.00009V5.99987V5.00009ZM2.99954 17.0001H2.00039V16.0001H3.00039V16.9998H3.99954V17.9998H2.99954V17.0001ZM2.00039 6.99995H3.00039V7.99994H2.00039V6.99995ZM3.00039 15H2.00039V16H3.00039V15ZM1 9.00011H2V9.99988V10.0001V10.9999H1V10.0001V9.99988V9.00011ZM2 11H1V12H2V11ZM3.99954 17.9999H2.99954V18.9999H3.99954V17.9999ZM3.99993 19H4.99993V20H3.99993V19ZM6.00032 20.0001H5.00032V21.0001H5.99948V21.9998H6.99948V20.9998H6.00032V20.0001ZM7.99986 20.9998H6.99987V21.9998H7.99986V20.9998ZM8.00026 21.9999H8.99941H9.00025H9.99941V22.9999H9.00025H8.99941H8.00026V21.9999ZM10.9998 23H9.9998V24H10.9998V23ZM12.0006 23H12.9997H13.0006H13.9997V24H13.0006H12.9997H12.0006V23ZM15.0001 23H14.0001V24H15.0001V23ZM11.0002 23H12.0002V24H11.0002V23ZM16.0005 23H15.0005V24H16.0005V23ZM2.00039 8.00003H3.00039V9.00003H2.00039V8.00003ZM2 12H1V13H2V12ZM1 13.0001H2V13.9999V14.0001V14.9999H1V14.0001V13.9999V13.0001Z" fill="black"/>
<path d="M3.18457 10.1297L5.68457 5.87042L8.24012 2.88894L12.3697 2.27783L15.9068 2.88894L18.7031 3.92598L21.8697 7.62967L23.0179 10.7408L22.4068 15.3519L19.8512 19.6852L15.2401 21.6296H11.1475L7.07345 19.6852L3.6105 16.3334L3.18457 10.1297Z" fill="#FDCD08"/>
<path fill-rule="evenodd" clip-rule="evenodd" d="M15.9981 0.999512H9.99807V1.99959H7.99852V2.99936H5.99898V3.99944H4.99859V4.99953H3.9982V6.99938H2.99905V8.99937H4.99904V6.99952H5.9982V5.99944H6.99859V4.99936H7.99898V3.99959H9.99852V2.99951H15.9981V0.999512ZM3.99865 14.9994H4.99904V16.9994H2.99905V14.9995H1.99866V8.99954H3.99865V14.9994ZM5.9982 16.9996H3.9982V18.9996H4.99859V19.9993H5.99898V20.9994H7.99852V21.9995H9.99807V22.9996H15.9981V20.9996H9.99852V19.9995H7.99898V18.9994H6.99859V17.9993H5.9982V16.9996ZM19.9987 20.9994H17.9992V21.9995H15.9992V19.9995H17.9987V18.9994H18.9991V17.9993H19.9983V16.9996H21.9983V18.9996H20.9991V19.9993H19.9987V20.9994ZM21.999 14.9994H20.9986V16.9994H22.9986V14.9995H23.999V8.99954H21.999V14.9994ZM21.9983 6.99938H22.9986V8.99937H20.9986V6.99952H19.9983V5.99944H18.9991V4.99936H17.9987V3.99959H15.9992V1.99959H17.9992V2.99936H19.9987V3.99944H20.9991V4.99953H21.9983V6.99938Z" fill="#FDCD08"/>
<path fill-rule="evenodd" clip-rule="evenodd" d="M22.0003 9H21.0003V15H22.0003V9ZM19.9999 14.9999H20.9999V16.9999H19.9999V14.9999ZM19.9996 16.9997H18.9996V17.9997H19.9996V16.9997ZM18.0004 17.9998H19.0004V18.9998H18.0004V17.9998ZM17.9996 18.9999H15.9996V19.9999H17.9996V18.9999ZM15.9997 20H9.99976V21H15.9997V20Z" fill="#FFD85C"/>
<path fill-rule="evenodd" clip-rule="evenodd" d="M3.99959 14.0005L4.99959 14.0005L4.99959 9.0005L3.99959 9.0005L3.99959 14.0005ZM5.99998 9.0007L4.99998 9.0007L4.99998 7.00071L5.99998 7.00071L5.99998 9.0007ZM5.99914 7.00023L6.99914 7.00023L6.99914 6.00023L5.99914 6.00023L5.99914 7.00023ZM7.99952 6.00046L6.99953 6.00046L6.99953 5.00046L7.99907 5.00046L7.99907 4.00069L9.99907 4.00069L9.99907 5.00069L7.99952 5.00069L7.99952 6.00046ZM13.9994 4.0003L12.9994 4.0003L12.9994 3.0003L13.9994 3.0003L13.9994 4.0003ZM12.0011 4.0003L12.999 4.0003L12.999 3.0003L12.0011 3.0003L11.999 3.0003L11.0011 3.0003L11.0011 4.0003L11.999 4.0003L12.0011 4.0003ZM10.9995 4.0003L9.99946 4.0003L9.99946 3.0003L10.9995 3.0003L10.9995 4.0003Z" fill="#9A462E"/>
<path fill-rule="evenodd" clip-rule="evenodd" d="M14.0006 2.9996L14.0006 3.9996L16.0006 3.9996L16.0006 2.9996L14.0006 2.9996ZM16.0002 4.99999L16.0002 3.99999L18.0002 3.99999L18.0002 4.99999L16.0002 4.99999ZM18.0009 4.99976L18.0009 5.99976L19.0009 5.99976L19.0009 4.99976L18.0009 4.99976ZM19.0001 6.99984L19.0001 5.99984L20.0001 5.99984L20.0001 6.99984L19.0001 6.99984ZM20.0005 9L20.0005 7L21.0005 7L21.0005 9L20.0005 9Z" fill="#DC8B04"/>
<path fill-rule="evenodd" clip-rule="evenodd" d="M9.99976 19.0001L9.99976 20.0001L7.99976 20.0001L7.99976 19.0001L9.99976 19.0001ZM8.00021 19L8.00021 18L7.00021 18L7.00021 19L8.00021 19ZM6.99982 16.9999L6.99982 17.9999L5.99982 17.9999L5.99982 16.9999L6.99982 16.9999ZM5.99943 15.0001L5.99943 17.0001L4.99944 17.0001L4.99944 15.0001L5.99943 15.0001ZM5.00028 15L5.00028 14L4.00028 14L4.00028 15L5.00028 15Z" fill="#DC8B04"/>
<path fill-rule="evenodd" clip-rule="evenodd" d="M5.99895 10.9999H4.99895L4.99895 8.99987H5.99895L5.99895 10.9999ZM5.99934 9.99978H6.99934L6.99934 9.00001H7.99934V7.99993H8.99888V6.99985H9.99927V5.99985L8.99888 5.99985V5.99977L10.9984 5.99977V5L11.9988 5V4L9.99882 4L9.99882 4.99977L8.99843 4.99977V4.99994L7.99888 4.99994L7.99888 5.99985L6.99928 5.99985L6.99928 6.99979H5.99934L5.99934 9.99978ZM8.00026 18.0001H7.00027V17.0003H6.00189L6.00189 15H5.99844V14.9997H4.99805V13.9997H5.99844V13H7.99798V12.9999H6.99759V11.9999H7.99798V10.9998H8.99753V9.99973H9.99752V8.99996H10.9975V9.00013H10.9979V7.99988H11.9979V8.00005H12.0003V6.99997H12.9999V5.99989L13.9999 5.99989V5.00012H15.0003V4.00004H16.0002V5.00012H17.9999V5.99979L19 5.99979V6.99979H17.9999V8.00011H17.0005V8.99964L16.0001 8.99964V9.99972H15.0005V10.9998H14.0005L14.0005 11.9996H14.0001V12.0002H13.0001V12.9997H12.9997V13.0003H12.0018V14.0001H11.0002V15.0001H10.0019V16.0002H9.00189L9.00189 17.0003H8.00026V18.0001ZM11.9979 9.00005V9.00013H12.0003V9.00005H11.9979ZM10.9975 11.0001V12H9.99759V12.9999H8.99798V13.9998H7.99843V14.0003H9.00189L9.00189 14.0001H9.00182V13.0001H10.0002V12.0002H10.9997V11.0003H11.0001V11.0002H12.0001V11.0001H10.9975ZM13.0001 11.0002V9.99997H13.0003V9.00005H13.0005L13.0005 11.0002H13.0001ZM14.0005 8.99958H13.9999V8.00011H14.0005V8.99958ZM11.0006 16.9998V17.9997L10.0007 17.9997L10.0007 19.9997L11.0006 19.9997L12.0006 19.9997V18.9996L13.0002 18.9996V17.9998H14.0006V16.9998H13.0002V16.9997H14.9997V15.9999H15.0016H16.0016L16.0016 14.9998H16.9999V14H17.9987V14H18.0016V13.0001H18.9987V12.9999H18.9995V12H19.9982V11.9999H19.9983V11.9998H19.9999V11H20.9982V9.00001H19.9982H18.9982V10.0001H17.9987V10.9998H16.9999V10.9999H16.9983V11.9998L15.9999 11.9998V11.9999H15.9991V12.9999H15.0016V13H15.0016V13H14.9987V13.9999H14.0016V14.9996H13.0001V14.9997H12.9997V15.9996H12.0002V16.9997L11.0006 16.9997V16.9998H11.0006Z" fill="#FFD85C"/>
<path d="M11.7568 8.27024H12.5855V9.09889H11.7568V8.27024ZM10.9281 8.27024H11.7568V9.09889H10.9281V8.27024ZM10.9281 9.09889H11.7568V9.92755H10.9281V9.09889ZM11.7568 9.09889H12.5855V9.92755H11.7568V9.09889ZM12.5855 9.09889H13.4141V9.92755H12.5855V9.09889ZM12.5855 8.27024H13.4141V9.09889H12.5855V8.27024ZM13.4141 8.27024H14.2428V9.09889H13.4141V8.27024ZM14.2428 8.27024H15.0714V9.09889H14.2428V8.27024ZM14.2428 9.09889H15.0714V9.92755H14.2428V9.09889ZM13.4141 9.09889H14.2428V9.92755H13.4141V9.09889ZM14.2428 9.92755H15.0714V10.7562H14.2428V9.92755ZM15.0714 9.09889H15.9001V9.92755H15.0714V9.09889ZM15.0714 9.92755H15.9001V10.7562H15.0714V9.92755ZM15.0714 14.0708H15.9001V14.8995H15.0714V14.0708ZM15.0714 14.8995H15.9001V15.7282H15.0714V14.8995ZM14.2428 14.8995H15.0714V15.7282H14.2428V14.8995ZM14.2428 14.0708H15.0714V14.8995H14.2428V14.0708ZM13.4141 14.8995H14.2428V15.7282H13.4141V14.8995ZM14.2428 15.7282H15.0714V16.5568H14.2428V15.7282ZM13.4141 15.7282H14.2428V16.5568H13.4141V15.7282ZM12.5855 15.7282H13.4141V16.5568H12.5855V15.7282ZM12.5855 14.8995H13.4141V15.7282H12.5855V14.8995ZM11.7568 15.7282H12.5855V16.5568H11.7568V15.7282ZM10.9281 15.7282H11.7568V16.5568H10.9281V15.7282ZM10.9281 14.8995H11.7568V15.7282H10.9281V14.8995ZM11.7568 14.8995H12.5855V15.7282H11.7568V14.8995ZM11.7568 14.0708H12.5855V14.8995H11.7568V14.0708ZM10.9281 14.0708H11.7568V14.8995H10.9281V14.0708ZM10.0995 14.8995H10.9281V15.7282H10.0995V14.8995ZM10.0995 14.0708H10.9281V14.8995H10.0995V14.0708ZM10.0995 13.2422H10.9281V14.0708H10.0995V13.2422ZM10.0995 12.4135H10.9281V13.2422H10.0995V12.4135ZM10.0995 11.5849H10.9281V12.4135H10.0995V11.5849ZM10.0995 10.7562H10.9281V11.5849H10.0995V10.7562ZM10.0995 9.92755H10.9281V10.7562H10.0995V9.92755ZM10.9281 9.92755H11.7568V10.7562H10.9281V9.92755ZM10.0995 9.09889H10.9281V9.92755H10.0995V9.09889ZM11.7568 9.92755H12.5855V10.7562H11.7568V9.92755ZM10.9281 10.7562H11.7568V11.5849H10.9281V10.7562ZM10.9281 11.5849H11.7568V12.4135H10.9281V11.5849ZM10.9281 12.4135H11.7568V13.2422H10.9281V12.4135ZM10.9281 13.2422H11.7568V14.0708H10.9281V13.2422Z" fill="#9A462E"/>
<path d="M11.7579 7.44238H12.5865V8.27104H11.7579V7.44238ZM10.9292 7.44238H11.7579V8.27104H10.9292V7.44238ZM10.9292 8.27104H11.7579V9.0997H10.9292V8.27104ZM11.7579 8.27104H12.5865V9.0997H11.7579V8.27104ZM12.5865 8.27104H13.4152V9.0997H12.5865V8.27104ZM12.5865 7.44238H13.4152V8.27104H12.5865V7.44238ZM13.4152 7.44238H14.2439V8.27104H13.4152V7.44238ZM14.2439 7.44238H15.0725V8.27104H14.2439V7.44238ZM14.2439 8.27104H15.0725V9.0997H14.2439V8.27104ZM13.4152 8.27104H14.2439V9.0997H13.4152V8.27104ZM14.2439 9.0997H15.0725V9.92836H14.2439V9.0997ZM15.0725 8.27104H15.9012V9.0997H15.0725V8.27104ZM15.0725 9.0997H15.9012V9.92836H15.0725V9.0997ZM15.0725 13.243H15.9012V14.0716H15.0725V13.243ZM15.0725 14.0716H15.9012V14.9003H15.0725V14.0716ZM14.2439 14.0716H15.0725V14.9003H14.2439V14.0716ZM14.2439 13.243H15.0725V14.0716H14.2439V13.243ZM13.4152 14.0716H14.2439V14.9003H13.4152V14.0716ZM14.2439 14.9003H15.0725V15.729H14.2439V14.9003ZM13.4152 14.9003H14.2439V15.729H13.4152V14.9003ZM12.5865 14.9003H13.4152V15.729H12.5865V14.9003ZM12.5865 14.0716H13.4152V14.9003H12.5865V14.0716ZM11.7579 14.9003H12.5865V15.729H11.7579V14.9003ZM10.9292 14.9003H11.7579V15.729H10.9292V14.9003ZM10.9292 14.0716H11.7579V14.9003H10.9292V14.0716ZM11.7579 14.0716H12.5865V14.9003H11.7579V14.0716ZM11.7579 13.243H12.5865V14.0716H11.7579V13.243ZM10.9292 13.243H11.7579V14.0716H10.9292V13.243ZM10.1006 14.0716H10.9292V14.9003H10.1006V14.0716ZM10.1006 13.243H10.9292V14.0716H10.1006V13.243ZM10.1006 12.4143H10.9292V13.243H10.1006V12.4143ZM10.1006 11.5857H10.9292V12.4143H10.1006V11.5857ZM10.1006 10.757H10.9292V11.5857H10.1006V10.757ZM10.1006 9.92836H10.9292V10.757H10.1006V9.92836ZM10.1006 9.0997H10.9292V9.92836H10.1006V9.0997ZM10.9292 9.0997H11.7579V9.92836H10.9292V9.0997ZM10.1006 8.27104H10.9292V9.0997H10.1006V8.27104ZM11.7579 9.0997H12.5865V9.92836H11.7579V9.0997ZM10.9292 9.92836H11.7579V10.757H10.9292V9.92836ZM10.9292 10.757H11.7579V11.5857H10.9292V10.757ZM10.9292 11.5857H11.7579V12.4143H10.9292V11.5857ZM10.9292 12.4143H11.7579V13.243H10.9292V12.4143Z" fill="#DC8B04"/>
</svg>
