<svg width="31" height="31" viewBox="0 0 31 31" fill="none" xmlns="http://www.w3.org/2000/svg">
<path fill-rule="evenodd" clip-rule="evenodd" d="M12.78 0.327148H11.5019V1.60518H12.78V0.327148ZM8.94648 1.60543H10.2236H10.2245H11.5017V2.88346H10.2245H10.2236H8.94648V1.60543ZM7.66757 2.88296H6.38954V4.161H7.66757V2.88296ZM6.39041 4.16125H5.11238V5.43928H6.39041V4.16125ZM14.0592 0.327148H15.336H15.3373H16.6141V1.60518H15.3373H15.336H14.0592V0.327148ZM17.8927 0.327148H16.6147V1.60518H17.8927V0.327148ZM19.1701 1.60543H20.4482V2.88346H19.1701V1.60543ZM23.0042 2.88296H21.7271V4.161H23.0042H23.0051H24.2823V2.88296H23.0051H23.0042ZM7.6682 2.88296H8.94623V4.161H7.6682V2.88296ZM12.7806 0.327148H14.0586V1.60518H12.7806V0.327148ZM17.893 0.327148H19.171V1.60518H17.893V0.327148ZM21.7268 1.60543H20.4488V2.88346H21.7268V1.60543ZM25.5605 4.16125H24.2825V5.43928H25.5605V4.16125ZM25.5612 5.43953H26.8392V6.71756H25.5612V5.43953ZM28.1164 6.71781H26.8383V7.99535V7.99585V9.27338H28.1164V7.99585V7.99535V6.71781ZM28.1166 9.27363H29.3946V10.5512V10.5517V11.8292H28.1166V10.5517V10.5512V9.27363ZM30.6733 11.8294H29.3953V13.107V13.1075V14.385H30.6733V13.1075V13.107V11.8294ZM29.3953 14.3853H30.6733V15.6633H29.3953V14.3853ZM30.6733 16.9418H29.3953V18.2194V18.2199V19.4974H30.6733V18.2199V18.2194V16.9418ZM28.1166 19.4976H29.3946V20.7757H28.1166V19.4976ZM28.1164 22.0535H26.8383V23.3315H28.1164V22.0535ZM30.6733 15.6635H29.3953V16.9416H30.6733V15.6635ZM29.3946 20.7759H28.1166V22.054H29.3946V20.7759ZM26.8383 23.3317H28.1164V24.6098H26.8383V23.3317ZM26.8392 24.61H25.5612V25.8881H26.8392V24.61ZM24.2825 25.8883H25.5605V27.1663H24.2825V25.8883ZM24.2823 27.1658H23.0051H23.0042H21.7271V28.4439H23.0042H23.0051H24.2823V27.1658ZM20.4488 28.4441H21.7268V29.7222H20.4488V28.4441ZM19.1701 28.4441H20.4482V29.7222H19.171V30.9997H17.893V29.7217H19.1701V28.4441ZM5.11213 5.43953H3.8341V6.71756H5.11213V5.43953ZM2.55544 6.71781H3.83347V7.99535V7.99585V9.27338H2.55544V7.99585V7.99535V6.71781ZM2.55544 22.054H1.27866V20.7759H2.55669V22.0535H3.83347V23.3315H2.55544V22.054ZM1.27866 9.27363H2.55669V10.5512V10.5517V11.8292H1.27866V10.5517V10.5512V9.27363ZM2.55669 19.4976H1.27866V20.7757H2.55669V19.4976ZM0 11.8294H1.27803V13.107V13.1075V14.385H0V13.1075V13.107V11.8294ZM1.27803 14.3853H0V15.6633H1.27803V14.3853ZM3.83347 23.3317H2.55544V24.6098H3.83347V23.3317ZM3.8341 24.61H5.11213V25.8881H3.8341V24.61ZM6.39041 25.8883H5.11238V27.1663H6.38954V28.4439H7.66757V27.1658H6.39041V25.8883ZM8.94623 27.1658H7.6682V28.4439H8.94623V27.1658ZM8.94648 28.4441H10.2236H10.2245H11.5017V29.7222H10.2245H10.2236H8.94648V28.4441ZM12.78 29.7217H11.5019V30.9997H12.78V29.7217ZM14.0592 29.7217H15.336H15.3373H16.6141V30.9997H15.3373H15.336H14.0592V29.7217ZM17.8927 29.7217H16.6147V30.9997H17.8927V29.7217ZM12.7806 29.7217H14.0586V30.9997H12.7806V29.7217ZM1.27803 15.6635H0V16.9416H1.27803V15.6635ZM0 16.9418H1.27803V18.2194V18.2199V19.4974H0V18.2199V18.2194V16.9418Z" fill="black"/>
<path d="M2.79199 13.2737L5.98707 7.83022L9.25316 4.01979L14.531 3.23877L19.0514 4.01979L22.6252 5.34516L26.6723 10.0786L28.1396 14.0547L27.3586 19.9479L24.0925 25.486L18.1994 27.9711H12.9689L7.76212 25.486L3.33634 21.2022L2.79199 13.2737Z" fill="#FDCD08"/>
<path fill-rule="evenodd" clip-rule="evenodd" d="M19.1682 1.60449H11.5V2.88277H8.94456V4.16031H6.38875V5.43859H5.11047V6.71687H3.83181V9.27269H2.55502V11.8285H1.27637V19.4967H2.55502V22.0528H5.11109V19.4967H3.83243V11.8288H5.11109V9.27294H6.38788V7.99466H7.66653V6.71637H8.94481V5.43884H11.5006V4.16056H19.1682V1.60449ZM6.38788 22.0533H3.83181V24.6093H5.11047V25.8869H6.38875V27.1652H8.94456V28.4434H11.5V29.7217H19.1682V27.1657H11.5006V25.8874H8.94481V24.6091H7.66653V23.3308H6.38788V22.0533ZM24.2812 27.1652H21.7258V28.4434H19.1697V25.8874H21.7251V24.6091H23.0034V23.3308H24.2806V22.0533H26.8367V24.6093H25.5595V25.8869H24.2812V27.1652ZM26.8375 19.4967H25.5589V22.0528H28.1149V19.4967H29.3936V11.8285H28.1149V9.27269H26.8367V6.71687H25.5595V5.43859H24.2812V4.16031H21.7258V2.88277H19.1697V5.43884H21.7251V6.71637H23.0034V7.99466H24.2806V9.27294H25.5589V11.8288H26.8375V19.4967Z" fill="#FDCD08"/>
<path fill-rule="evenodd" clip-rule="evenodd" d="M26.8387 11.8291H25.5607V19.4973H26.8387V11.8291ZM24.282 19.4973H25.5601V22.0534H24.282V19.4973ZM24.2818 22.0531H23.0038V23.3311H24.2818V22.0531ZM21.7266 23.3314H23.0046V24.6094H21.7266V23.3314ZM21.7257 24.6097H19.1697V25.8877H21.7257V24.6097ZM19.1697 25.888H11.5015V27.166H19.1697V25.888Z" fill="#FFD85C"/>
<path fill-rule="evenodd" clip-rule="evenodd" d="M3.83357 18.2202L5.1116 18.2202L5.1116 11.83L3.83357 11.83L3.83357 18.2202ZM6.38989 11.8303L5.11185 11.8303L5.11185 9.27423L6.38989 9.27423L6.38989 11.8303ZM6.38901 9.27373L7.66705 9.27373L7.66705 7.9957L6.38901 7.9957L6.38901 9.27373ZM8.94533 7.9962L7.6673 7.9962L7.6673 6.71817L8.94533 6.71817L8.94533 7.9962ZM8.94508 6.71792L11.5011 6.71792L11.5011 5.43988L8.94508 5.43988L8.94508 6.71792ZM14.0596 5.43963L15.3349 5.43964L15.3349 4.1616L14.0596 4.1616L14.0568 4.1616L12.7815 4.1616L12.7815 5.43963L14.0568 5.43963L14.0596 5.43963ZM12.7794 5.43963L11.5014 5.43963L11.5014 4.1616L12.7794 4.1616L12.7794 5.43963ZM16.6135 5.43963L15.3355 5.43963L15.3355 4.1616L16.6135 4.1616L16.6135 5.43963Z" fill="#9A462E"/>
<path fill-rule="evenodd" clip-rule="evenodd" d="M16.6155 4.16089L16.6155 5.43893L19.1715 5.43893L19.1715 4.16089L16.6155 4.16089ZM19.1709 6.71721L19.1709 5.43918L21.727 5.43918L21.727 6.71721L19.1709 6.71721ZM21.7279 6.71746L21.7279 7.99549L23.005 7.99549L23.005 9.27302L24.2831 9.27302L24.2831 7.99499L23.0059 7.99499L23.0059 6.71746L21.7279 6.71746ZM24.2837 11.8296L24.2837 9.27352L25.5617 9.27352L25.5617 11.8296L24.2837 11.8296Z" fill="#DC8B04"/>
<path fill-rule="evenodd" clip-rule="evenodd" d="M11.5015 24.6104L11.5015 25.8884L8.9454 25.8884L8.9454 24.6104L11.5015 24.6104ZM8.94602 24.6101L8.94602 23.3321L7.66799 23.3321L7.66799 24.6101L8.94602 24.6101ZM7.66774 22.0538L7.66774 23.3319L6.38971 23.3319L6.38971 22.0538L7.66774 22.0538ZM6.38908 19.498L6.38908 22.0541L5.11105 22.0541L5.11105 19.498L6.38908 19.498ZM5.11192 19.4978L5.11192 18.2197L3.83389 18.2197L3.83389 19.4978L5.11192 19.4978Z" fill="#DC8B04"/>
<path fill-rule="evenodd" clip-rule="evenodd" d="M19.1711 5.43945H17.8931V6.71774H16.6144V7.99527L15.3364 7.99527V9.27355H14.059V10.5518H14.0561V10.5518H12.7781V11.8301H12.7774V11.83H11.4994V13.1076L10.2214 13.1076V14.3859H8.94396V15.6641H7.66531V16.9422H8.94396V16.9424H6.38852V18.22H5.10986V19.498H6.38852V19.4985H6.39264L6.39264 22.0548H7.66855L7.66855 23.3323H8.94658L8.94658 22.0548H10.2267L10.2267 20.7765L11.5048 20.7765V19.4982H12.7807V18.22H14.0608V16.9424L15.3361 16.9424V16.9417H15.3365V15.6641H16.6148V15.6634H16.6152L16.6152 14.3859H17.8932V13.1076L19.1706 13.1076V11.8293H20.4493V10.5518H21.7266V9.27347H23.0047V7.99544H21.7266V6.71774H19.1711V5.43945ZM8.94459 18.2207H10.2267V18.22L10.2267 16.9424V16.9422H10.222V18.22H8.94459V18.2207ZM11.4994 16.9419H11.5026V15.6641L11.4994 15.6641L11.4994 16.9417L11.4994 16.9419ZM12.7774 15.6641L12.7801 15.6641V14.3864H12.7807V14.3862H12.7774V15.6641ZM14.0561 11.8301H14.059V11.8299H14.0561V11.8301ZM15.3365 14.3861V13.1077H15.337V11.8299H15.3371L15.3371 14.3861H15.3365ZM16.6152 11.8293H16.6144V10.5518H16.6152L16.6152 11.8293ZM6.38927 14.3859H5.11124L5.11124 11.8298L6.38927 11.8298L6.38927 14.3859ZM6.38989 13.1076H7.66793L7.66793 11.83H8.94596V10.5518H10.2234V9.27347H11.5017L11.5017 7.99544H10.2234V7.99519L12.7788 7.99519V6.71766L14.0571 6.71766V5.43963L11.501 5.43962V6.71716L10.2227 6.71716V6.71766L8.94534 6.71766L8.94534 7.99544H7.66755V9.27347L6.38989 9.27347L6.38989 13.1076ZM12.7815 25.8873H14.0596V24.609H15.337L15.337 23.3315H16.6156V22.0534H15.337V22.0532H17.8924L17.8924 20.7758H17.8946H19.1726V19.4975H20.4485L20.4485 18.2205H21.7253V18.2202H21.7259V18.22H21.7287V16.9424H23.0033V16.9417H23.0039V15.6641H24.2807L24.2807 15.6639V15.6634H24.2826V14.3861H25.5588V11.83H24.2807H23.0027V13.1083H21.7253V14.3854H20.4485V14.3856H20.4479V14.3859H20.4466V15.6634H19.1705V15.6641H19.1698V16.9417H17.8946V16.9419V16.9424H17.8912V18.2197H16.6165V19.4969H15.337V19.4971H15.3363V20.7749H14.0589V22.0532H12.7815L12.7815 22.0534V23.3312H11.5035L11.5035 25.8873H12.7815Z" fill="#FFD85C"/>
<path d="M13.4299 9.94346H14.7008V11.2143H13.4299V9.94346ZM12.159 9.94346H13.4299V11.2143H12.159V9.94346ZM12.159 11.2143H13.4299V12.4852H12.159V11.2143ZM13.4299 11.2143H14.7008V12.4852H13.4299V11.2143ZM14.7008 11.2143H15.9716V12.4852H14.7008V11.2143ZM14.7008 9.94346H15.9716V11.2143H14.7008V9.94346ZM15.9716 9.94346H17.2425V11.2143H15.9716V9.94346ZM17.2425 9.94346H18.5134V11.2143H17.2425V9.94346ZM17.2425 11.2143H18.5134V12.4852H17.2425V11.2143ZM15.9716 11.2143H17.2425V12.4852H15.9716V11.2143ZM17.2425 12.4852H18.5134V13.756H17.2425V12.4852ZM18.5134 11.2143H19.7842V12.4852H18.5134V11.2143ZM18.5134 12.4852H19.7842V13.756H18.5134V12.4852ZM18.5134 18.8395H19.7842V20.1104H18.5134V18.8395ZM18.5134 20.1104H19.7842V21.3812H18.5134V20.1104ZM17.2425 20.1104H18.5134V21.3812H17.2425V20.1104ZM17.2425 18.8395H18.5134V20.1104H17.2425V18.8395ZM15.9716 20.1104H17.2425V21.3812H15.9716V20.1104ZM17.2425 21.3812H18.5134V22.6521H17.2425V21.3812ZM15.9716 21.3812H17.2425V22.6521H15.9716V21.3812ZM14.7008 21.3812H15.9716V22.6521H14.7008V21.3812ZM14.7008 20.1104H15.9716V21.3812H14.7008V20.1104ZM13.4299 21.3812H14.7008V22.6521H13.4299V21.3812ZM12.159 21.3812H13.4299V22.6521H12.159V21.3812ZM12.159 20.1104H13.4299V21.3812H12.159V20.1104ZM13.4299 20.1104H14.7008V21.3812H13.4299V20.1104ZM13.4299 18.8395H14.7008V20.1104H13.4299V18.8395ZM12.159 18.8395H13.4299V20.1104H12.159V18.8395ZM10.8882 20.1104H12.159V21.3812H10.8882V20.1104ZM10.8882 18.8395H12.159V20.1104H10.8882V18.8395ZM10.8882 17.5686H12.159V18.8395H10.8882V17.5686ZM10.8882 16.2978H12.159V17.5686H10.8882V16.2978ZM10.8882 15.0269H12.159V16.2978H10.8882V15.0269ZM10.8882 13.756H12.159V15.0269H10.8882V13.756ZM10.8882 12.4852H12.159V13.756H10.8882V12.4852ZM12.159 12.4852H13.4299V13.756H12.159V12.4852ZM10.8882 11.2143H12.159V12.4852H10.8882V11.2143ZM13.4299 12.4852H14.7008V13.756H13.4299V12.4852ZM12.159 13.756H13.4299V15.0269H12.159V13.756ZM12.159 15.0269H13.4299V16.2978H12.159V15.0269ZM12.159 16.2978H13.4299V17.5686H12.159V16.2978ZM12.159 17.5686H13.4299V18.8395H12.159V17.5686Z" fill="#9A462E"/>
<path d="M13.4316 8.67383H14.7024V9.94469H13.4316V8.67383ZM12.1607 8.67383H13.4316V9.94469H12.1607V8.67383ZM12.1607 9.94469H13.4316V11.2156H12.1607V9.94469ZM13.4316 9.94469H14.7024V11.2156H13.4316V9.94469ZM14.7024 9.94469H15.9733V11.2156H14.7024V9.94469ZM14.7024 8.67383H15.9733V9.94469H14.7024V8.67383ZM15.9733 8.67383H17.2441V9.94469H15.9733V8.67383ZM17.2441 8.67383H18.515V9.94469H17.2441V8.67383ZM17.2441 9.94469H18.515V11.2156H17.2441V9.94469ZM15.9733 9.94469H17.2441V11.2156H15.9733V9.94469ZM17.2441 11.2156H18.515V12.4864H17.2441V11.2156ZM18.515 9.94469H19.7859V11.2156H18.515V9.94469ZM18.515 11.2156H19.7859V12.4864H18.515V11.2156ZM18.515 17.5699H19.7859V18.8407H18.515V17.5699ZM18.515 18.8407H19.7859V20.1116H18.515V18.8407ZM17.2441 18.8407H18.515V20.1116H17.2441V18.8407ZM17.2441 17.5699H18.515V18.8407H17.2441V17.5699ZM15.9733 18.8407H17.2441V20.1116H15.9733V18.8407ZM17.2441 20.1116H18.515V21.3825H17.2441V20.1116ZM15.9733 20.1116H17.2441V21.3825H15.9733V20.1116ZM14.7024 20.1116H15.9733V21.3825H14.7024V20.1116ZM14.7024 18.8407H15.9733V20.1116H14.7024V18.8407ZM13.4316 20.1116H14.7024V21.3825H13.4316V20.1116ZM12.1607 20.1116H13.4316V21.3825H12.1607V20.1116ZM12.1607 18.8407H13.4316V20.1116H12.1607V18.8407ZM13.4316 18.8407H14.7024V20.1116H13.4316V18.8407ZM13.4316 17.5699H14.7024V18.8407H13.4316V17.5699ZM12.1607 17.5699H13.4316V18.8407H12.1607V17.5699ZM10.8898 18.8407H12.1607V20.1116H10.8898V18.8407ZM10.8898 17.5699H12.1607V18.8407H10.8898V17.5699ZM10.8898 16.299H12.1607V17.5699H10.8898V16.299ZM10.8898 15.0281H12.1607V16.299H10.8898V15.0281ZM10.8898 13.7573H12.1607V15.0281H10.8898V13.7573ZM10.8898 12.4864H12.1607V13.7573H10.8898V12.4864ZM10.8898 11.2156H12.1607V12.4864H10.8898V11.2156ZM12.1607 11.2156H13.4316V12.4864H12.1607V11.2156ZM10.8898 9.94469H12.1607V11.2156H10.8898V9.94469ZM13.4316 11.2156H14.7024V12.4864H13.4316V11.2156ZM12.1607 12.4864H13.4316V13.7573H12.1607V12.4864ZM12.1607 13.7573H13.4316V15.0281H12.1607V13.7573ZM12.1607 15.0281H13.4316V16.299H12.1607V15.0281ZM12.1607 16.299H13.4316V17.5699H12.1607V16.299Z" fill="#DC8B04"/>
</svg>
