<svg width="24" height="24" viewBox="0 0 24 24" fill="none" xmlns="http://www.w3.org/2000/svg">
<path d="M0.342896 8.11675L3.08575 5.34619H7.20004L8.57147 6.73147H15.4286L16.8 5.34619H20.9143L23.6572 8.11675V16.4284L20.9143 19.199H18.1715L15.4286 16.4284H8.57147L5.82861 19.199H3.08575L0.342896 16.4284V8.11675Z" fill="white"/>
<rect x="2.74286" y="5" width="4.8" height="0.692641" fill="black"/>
<rect x="2.74286" y="18.8525" width="3.42857" height="0.692641" fill="black"/>
<rect x="17.8286" y="18.8525" width="3.42857" height="0.692641" fill="black"/>
<rect x="7.54285" y="5.69238" width="0.685714" height="0.692641" fill="black"/>
<rect x="15.7714" y="5.69238" width="0.685715" height="0.692641" fill="black"/>
<rect x="2.05713" y="5.69238" width="0.685714" height="0.692641" fill="black"/>
<rect x="21.2571" y="5.69238" width="0.685714" height="0.692641" fill="black"/>
<rect x="2.05713" y="18.1602" width="0.685714" height="0.692641" fill="black"/>
<rect x="21.2571" y="18.1602" width="0.685714" height="0.692641" fill="black"/>
<rect x="6.17145" y="18.1602" width="0.685714" height="0.692641" fill="black"/>
<rect x="17.1429" y="18.1602" width="0.685714" height="0.692641" fill="black"/>
<rect x="6.85712" y="17.4673" width="0.685714" height="0.692641" fill="black"/>
<rect x="16.4572" y="17.4673" width="0.685714" height="0.692641" fill="black"/>
<rect x="7.54285" y="16.7749" width="0.685714" height="0.692641" fill="black"/>
<rect x="15.7714" y="16.7749" width="0.685715" height="0.692641" fill="black"/>
<rect x="8.22858" y="16.0825" width="7.54286" height="0.692641" fill="black"/>
<rect x="17.8286" y="12.6191" width="2.05714" height="2.07792" fill="#F8DA00"/>
<rect x="4.11432" y="12.6191" width="2.05714" height="2.07792" fill="black"/>
<rect x="15.7714" y="10.541" width="2.05714" height="2.07792" fill="#36A42B"/>
<rect x="2.05713" y="10.541" width="2.05714" height="2.07792" fill="black"/>
<rect x="17.8286" y="8.46289" width="2.05714" height="2.07792" fill="#0173D4"/>
<rect x="4.11432" y="8.46289" width="2.05714" height="2.07792" fill="black"/>
<rect x="4.11432" y="10.541" width="2.05714" height="2.07792" fill="black"/>
<rect x="19.8857" y="10.541" width="2.05714" height="2.07792" fill="#F1262A"/>
<rect x="6.17145" y="10.541" width="2.05714" height="2.07792" fill="black"/>
<rect x="1.3714" y="6.38525" width="0.685714" height="0.692641" fill="black"/>
<rect x="21.9429" y="6.38525" width="0.685715" height="0.692641" fill="black"/>
<rect x="1.3714" y="17.4673" width="0.685714" height="0.692641" fill="black"/>
<rect x="21.9429" y="17.4673" width="0.685715" height="0.692641" fill="black"/>
<rect x="0.68573" y="7.07764" width="0.685714" height="0.692641" fill="black"/>
<rect x="22.6286" y="7.07764" width="0.685717" height="0.692641" fill="black"/>
<rect x="0.68573" y="16.7749" width="0.685714" height="0.692641" fill="black"/>
<rect x="22.6286" y="16.7749" width="0.685717" height="0.692641" fill="black"/>
<rect y="7.77051" width="0.685714" height="9.00433" fill="black"/>
<rect x="23.3146" y="7.77051" width="0.685714" height="9.00433" fill="black"/>
<rect x="16.4572" y="5" width="4.8" height="0.692641" fill="black"/>
<rect x="8.22858" y="6.38525" width="7.54286" height="0.692641" fill="black"/>
<rect x="9.60022" y="12.6187" width="1.02857" height="1.03896" fill="black"/>
<rect x="12.3431" y="12.6187" width="1.02857" height="1.03896" fill="black"/>
<rect x="10.2859" y="11.9263" width="1.02857" height="1.03896" fill="black"/>
<rect x="13.0288" y="11.9263" width="1.02857" height="1.03896" fill="black"/>
</svg>
