<svg width="14" height="14" viewBox="0 0 14 14" fill="none" xmlns="http://www.w3.org/2000/svg">
<path d="M13.4167 6.4165L13.4167 7.58317L12.8334 7.58317L12.8334 8.1665L12.25 8.1665L12.25 8.74984L11.6667 8.74984L11.6667 9.33317L11.0834 9.33317L11.0834 9.9165L10.5 9.9165L10.5 10.4998L9.91669 10.4998L9.91669 11.0832L9.33335 11.0832L9.33335 11.6665L8.75002 11.6665L8.75002 12.2498L8.16669 12.2498L8.16669 12.8332L7.58335 12.8332L7.58335 13.4165L7.00002 13.4165L7.00002 12.8332L6.41669 12.8332L6.41669 12.2498L5.83335 12.2498L5.83335 11.6665L6.41669 11.6665L6.41669 11.0832L7.00002 11.0832L7.00002 10.4998L7.58335 10.4998L7.58335 9.9165L8.16669 9.9165L8.16669 9.33317L8.75002 9.33317L8.75002 8.74984L9.33335 8.74984L9.33335 8.1665L0.583353 8.1665L0.583352 5.83317L9.33335 5.83317L9.33335 5.24984L8.75002 5.24984L8.75002 4.6665L8.16669 4.6665L8.16669 4.08317L7.58335 4.08317L7.58335 3.49984L7.00002 3.49984L7.00002 2.9165L6.41669 2.9165L6.41669 2.33317L5.83335 2.33317L5.83335 1.74984L6.41669 1.74984L6.41669 1.1665L7.00002 1.1665L7.00002 0.58317L7.58335 0.58317L7.58335 1.1665L8.16669 1.1665L8.16669 1.74984L8.75002 1.74984L8.75002 2.33317L9.33335 2.33317L9.33335 2.9165L9.91669 2.9165L9.91669 3.49984L10.5 3.49984L10.5 4.08317L11.0834 4.08317L11.0834 4.6665L11.6667 4.6665L11.6667 5.24984L12.25 5.24984L12.25 5.83317L12.8334 5.83317L12.8334 6.4165L13.4167 6.4165Z" fill="#7C7C7C"/>
</svg>
