<svg width="32" height="32" viewBox="0 0 32 32" fill="none" xmlns="http://www.w3.org/2000/svg">
<path d="M30.6666 10.1665H29.8333V9.33317V8.83317H29.3333H5.83331V7.1665H29.3333H29.8333V6.6665V3.99984V3.49984H29.3333H28.5V2.6665V2.1665H28H2.66665H2.16665V2.6665V3.49984H1.33331H0.833313V3.99984V27.9998V28.4998H1.33331H2.16665V29.3332V29.8332H2.66665H29.3333H29.8333V29.3332V28.4998H30.6666H31.1666V27.9998V10.6665V10.1665H30.6666ZM26.6666 17.8332H27.5V19.4998H26.6666H26.1666V19.9998V20.8332H24.5V19.9998V19.4998H24H23.1666V17.8332H24H24.5V17.3332V16.4998H26.1666V17.3332V17.8332H26.6666Z" fill="white" stroke="black"/>
</svg>
