<svg width="38" height="37" viewBox="0 0 38 37" fill="none" xmlns="http://www.w3.org/2000/svg">
<path fill-rule="evenodd" clip-rule="evenodd" d="M11.6547 13.5779L11.6547 12.6787L15.2515 12.6787L15.2515 13.5779L17.0498 13.5779L17.0498 13.578L17.0499 13.578L17.0499 14.4771L17.0498 14.4771L17.0498 16.2754L15.2514 16.2754L15.2514 14.4771L14.3523 14.4771L14.3523 15.3763L10.7556 15.3763L10.7556 15.3764L10.7555 15.3764L10.7555 20.7714L17.3496 20.7714L17.3496 20.7715L17.9491 20.7715L17.9491 21.6707L17.3496 21.6707L17.3496 22.5698L17.0499 22.5698L17.0499 22.5698L15.2515 22.5698L15.2515 22.5698L15.2515 22.5698L15.2515 23.469L11.6547 23.469L11.6547 22.5698L9.85633 22.5698L9.85633 21.6706L8.83726 21.6706L8.83726 19.8723L8.05804 19.8723L8.05804 15.3764L8.83726 15.3764L8.83726 14.1774L9.85641 14.1774L9.85641 13.578L10.7555 13.578L10.7555 13.5779L11.6547 13.5779ZM17.0499 16.3354L16.1506 16.3354L16.1506 20.7714L22.6248 20.7714L22.6248 21.6706L23.524 21.6706L23.524 21.6706L26.2216 21.6706L26.2216 21.6707L27.1208 21.6707L27.1208 21.6706L28.2597 21.6706L28.2597 20.7714L29.8183 20.7714L29.8183 18.0739L29.8183 18.0739L29.8183 17.1747L29.8183 17.1747L29.8183 16.3354L18.8482 16.3354L18.8482 16.2755L17.9491 16.2755L17.9491 14.4772L17.0499 14.4772L17.0499 16.2755L17.0499 16.2755L17.0499 16.3354Z" fill="#93702C"/>
<g style="mix-blend-mode:multiply">
<path fill-rule="evenodd" clip-rule="evenodd" d="M11.6547 13.5779V12.6787L15.2514 12.6787V13.5779L17.0498 13.5779L17.0498 16.2754H15.2514L15.2514 14.4771L14.3522 14.4771L14.3522 15.3763L10.7555 15.3763L10.7555 13.5779L11.6547 13.5779ZM10.7555 14.1774L8.83722 14.1774L8.83722 21.6706H9.85629L9.85629 22.5698L11.6547 22.5698L11.6547 23.469L15.2514 23.469V22.5698H17.3495L17.3495 20.7714L10.7555 20.7714L10.7555 14.1774ZM29.8182 16.3354L16.1506 16.3354L16.1506 20.7714L22.9844 20.7714V21.6706L28.2596 21.6706L28.2596 20.7714H29.8182L29.8182 16.3354Z" fill="#BBA5A5"/>
<path fill-rule="evenodd" clip-rule="evenodd" d="M12.5539 13.5779L13.4531 13.5779L13.4531 12.6787L11.6547 12.6787L11.6547 13.5779L10.7555 13.5779L10.7555 13.5779L9.85635 13.5779L9.85635 14.4771L8.95717 14.4771L8.95717 15.3763L8.05798 15.3763L8.05798 19.8722L8.95717 19.8722L8.95717 16.2755L9.85635 16.2755L9.85635 15.3763L10.7555 15.3763L10.7555 14.4771L12.5539 14.4771L12.5539 13.5779ZM29.8183 17.1747L18.8482 17.1747L18.8482 18.0739L29.8183 18.0739L29.8183 17.1747ZM23.524 21.6706L23.524 19.8722L22.6248 19.8722L22.6248 21.6706L23.524 21.6706ZM27.1207 19.8722L27.1207 21.6706L26.2215 21.6706L26.2215 19.8722L27.1207 19.8722Z" fill="white"/>
<path fill-rule="evenodd" clip-rule="evenodd" d="M16.1506 14.4773L16.1506 13.5781H17.0498V14.4773L16.1506 14.4773ZM17.949 16.2757H18.8482V17.1749L17.0498 17.1749L17.0498 16.2757H17.0498L17.0498 14.4773L17.949 14.4773L17.949 16.2757ZM17.0498 21.6708L17.949 21.6708L17.949 20.7716L16.1506 20.7716L16.1506 21.6708L15.2515 21.6708V22.57H17.0498L17.0498 21.6708ZM24.4232 19.8724H26.2215V18.9732H24.4232V19.8724Z" fill="#757575"/>
</g>
<path fill-rule="evenodd" clip-rule="evenodd" d="M11.6545 12.6785L11.6545 11.7793L15.2512 11.7793L15.2512 12.6785L11.6545 12.6785ZM9.85613 13.5777L9.85613 12.6785L11.6545 12.6785L11.6545 13.5777L9.85613 13.5777ZM15.2512 12.6785L15.2512 13.5777L17.0496 13.5777L17.0496 14.4769L17.9488 14.4769L17.9488 16.2752L18.848 16.2752L18.848 14.4768L17.9488 14.4768L17.9488 13.5777L17.0496 13.5777L17.0496 12.6785L15.2512 12.6785ZM8.95691 13.5777L8.05772 13.5777L8.05772 15.376L8.95691 15.376L8.95691 14.4769L9.85614 14.4769L9.85614 13.5777L8.95691 13.5777L8.95691 13.5777ZM16.1504 15.376L15.2512 15.376L15.2512 16.2752L16.1504 16.2752L16.1504 19.872L17.0496 19.872L17.0496 16.2752L16.1504 16.2752L16.1504 15.376ZM10.7553 15.376L11.6545 15.376L11.6545 16.2752L10.7553 16.2752L10.7553 19.872L9.85611 19.872L9.85611 16.2752L10.7553 16.2752L10.7553 15.376ZM11.6545 19.872L10.7553 19.872L10.7553 20.7712L11.6545 20.7712L11.6545 19.872ZM15.2512 19.872L16.1504 19.872L16.1504 20.7712L15.2512 20.7712L15.2512 19.872ZM17.9488 21.6704L17.0496 21.6704L17.0496 22.5696L17.9488 22.5696L17.9488 21.6704ZM8.95695 21.6704L9.85611 21.6704L9.85611 22.5695L8.95693 22.5695L8.95693 21.6704L8.05776 21.6704L8.05776 20.7712L8.05776 20.7712L8.05776 20.7712L7.15857 20.7712L7.15857 15.3761L8.05775 15.3761L8.05776 19.872L8.95695 19.872L8.95695 20.7712L8.95695 21.6704ZM30.7172 16.2752L18.848 16.2752L18.848 17.1744L29.8181 17.1744L29.8181 18.9728L30.7172 18.9728L30.7172 17.1744L30.7172 16.2752ZM9.85614 22.5696L10.7553 22.5696L11.6545 22.5696L11.6545 23.4687L15.2512 23.4687L15.2512 22.5695L16.1504 22.5695L16.1504 22.5696L17.0496 22.5696L17.0496 23.4687L16.1504 23.4687L16.1504 24.3679L15.2512 24.3679L15.2512 24.3679L11.6545 24.3679L11.6545 24.3679L10.7553 24.3679L10.7553 23.4687L9.85614 23.4687L9.85614 22.5696ZM21.7254 20.7712L18.848 20.7712L18.848 21.6703L17.9488 21.6703L17.9488 19.872L18.1286 19.872L18.848 19.872L22.6246 19.872L22.6246 19.872L22.6246 21.6703L21.7254 21.6703L21.7254 20.7712ZM29.818 18.9728L28.9189 18.9728L28.9189 20.7712L29.818 20.7712L29.818 19.872L30.7173 19.872L30.7173 18.9728L29.818 18.9728L29.818 18.9728ZM28.0197 20.7712L28.9189 20.7712L28.9189 21.6704L28.9189 22.5696L28.0197 22.5696L26.2213 22.5696L26.2213 21.6704L28.0197 21.6704L28.0197 20.7712ZM26.2213 19.872L24.4229 19.872L24.4229 21.6704L26.2213 21.6704L26.2213 19.872ZM22.6246 22.5695L22.6246 21.6704L24.4229 21.6704L24.4229 22.5695L22.6246 22.5695ZM11.6545 14.4768L11.6545 15.376L15.2512 15.376L15.2512 14.4768L11.6545 14.4768ZM11.6545 21.6704L11.6545 20.7712L15.2513 20.7712L15.2513 21.6704L11.6545 21.6704Z" fill="black"/>
</svg>
