<svg width="78" height="28" viewBox="0 0 78 28" fill="none" xmlns="http://www.w3.org/2000/svg">
<rect width="14.0727" height="17.1818" transform="matrix(1 0 0 -1 3.10919 22.5913)" fill="#B19E94"/>
<rect x="5.56403" y="22.5913" width="2.45455" height="2.45455" fill="black"/>
<rect x="5.56396" y="20.1367" width="4.90909" height="2.45455" fill="#6A5858"/>
<rect x="3.10919" y="20.1367" width="2.45455" height="2.45455" fill="black"/>
<rect x="3.10919" y="17.6821" width="4.90909" height="2.45455" fill="#6A5858"/>
<rect x="0.65509" y="7.86377" width="2.45455" height="12.2727" fill="black"/>
<rect x="8.01807" y="25.0454" width="9.16364" height="2.45455" fill="black"/>
<rect x="8.01807" y="22.5913" width="9.16364" height="2.45455" fill="#6A5858"/>
<rect width="2.45455" height="2.45455" transform="matrix(1 0 0 -1 5.56403 5.40967)" fill="black"/>
<rect width="4.90909" height="2.45455" transform="matrix(1 0 0 -1 5.56403 7.86377)" fill="#D8D8D8"/>
<rect width="4.90909" height="2.45455" transform="matrix(1 0 0 -1 5.56403 12.7734)" fill="white"/>
<rect width="2.45455" height="2.45455" transform="matrix(1 0 0 -1 3.10919 7.86426)" fill="black"/>
<rect width="4.90909" height="2.45455" transform="matrix(1 0 0 -1 3.10919 10.3188)" fill="#D8D8D8"/>
<rect width="4.90909" height="2.45455" transform="matrix(1 0 0 -1 8.01807 10.3188)" fill="white"/>
<rect width="2.45455" height="2.45455" transform="matrix(1 0 0 -1 10.4738 7.86377)" fill="white"/>
<rect width="9.16364" height="2.45455" transform="matrix(1 0 0 -1 8.01807 2.95508)" fill="black"/>
<rect width="9.16364" height="2.45455" transform="matrix(1 0 0 -1 8.01807 5.40918)" fill="#D8D8D8"/>
<rect x="17.1821" y="0.500488" width="44.2727" height="2.45455" fill="black"/>
<rect x="17.1821" y="2.95508" width="44.2727" height="2.45455" fill="#D8D8D8"/>
<rect width="44.2727" height="17.5455" transform="translate(17.1819 5.40967)" fill="#B19E94"/>
<rect x="17.1821" y="22.9551" width="44.2727" height="2.45455" fill="#6A5858"/>
<rect x="17.1821" y="25.4097" width="44.2727" height="2.45455" fill="black"/>
<rect width="14.0727" height="17.1818" transform="matrix(-1 -8.74228e-08 -8.74228e-08 1 75.5285 5.40967)" fill="#B19E94"/>
<rect x="73.0732" y="5.40967" width="2.45455" height="2.45455" transform="rotate(-180 73.0732 5.40967)" fill="black"/>
<rect x="75.5285" y="7.86426" width="2.45455" height="2.45455" transform="rotate(-180 75.5285 7.86426)" fill="black"/>
<rect x="77.9828" y="20.1372" width="2.45455" height="12.2727" transform="rotate(-180 77.9828 20.1372)" fill="black"/>
<rect x="70.6188" y="2.95557" width="9.16364" height="2.45455" transform="rotate(-180 70.6188 2.95557)" fill="black"/>
<rect x="70.6188" y="5.40967" width="9.16364" height="2.45455" transform="rotate(-180 70.6188 5.40967)" fill="#D8D8D8"/>
<rect width="2.45455" height="2.45455" transform="matrix(-1 -8.74228e-08 -8.74228e-08 1 73.0732 22.5918)" fill="black"/>
<rect width="4.90909" height="2.45455" transform="matrix(-1 -8.74228e-08 -8.74228e-08 1 73.0732 20.1372)" fill="#6A5858"/>
<rect width="2.45455" height="2.45455" transform="matrix(-1 -8.74228e-08 -8.74228e-08 1 75.5287 20.1372)" fill="black"/>
<rect width="4.90909" height="2.45455" transform="matrix(-1 -8.74228e-08 -8.74228e-08 1 75.5285 17.6821)" fill="#6A5858"/>
<rect width="9.16364" height="2.45455" transform="matrix(-1 -8.74228e-08 -8.74228e-08 1 70.6184 25.0459)" fill="black"/>
<rect width="9.16364" height="2.45455" transform="matrix(-1 -8.74228e-08 -8.74228e-08 1 70.6188 22.5918)" fill="#6A5858"/>
</svg>
