<svg width="74" height="28" viewBox="0 0 74 28" fill="none" xmlns="http://www.w3.org/2000/svg">
<rect width="14.0727" height="17.1818" transform="matrix(1 0 0 -1 2.45386 22.5913)" fill="#FFF885"/>
<rect x="4.90869" y="22.5913" width="2.45455" height="2.45455" fill="black"/>
<rect x="4.90869" y="20.1367" width="4.90909" height="2.45455" fill="#FFF6A4"/>
<rect x="2.45386" y="20.1367" width="2.45455" height="2.45455" fill="black"/>
<rect x="2.45386" y="17.6821" width="4.90909" height="2.45455" fill="#FFF6A4"/>
<rect x="-0.000244141" y="7.86377" width="2.45455" height="12.2727" fill="black"/>
<rect x="7.36279" y="25.0454" width="9.16364" height="2.45455" fill="black"/>
<rect x="7.36279" y="22.5913" width="9.16364" height="2.45455" fill="#FFF6A4"/>
<rect width="2.45455" height="2.45455" transform="matrix(1 0 0 -1 4.90869 5.40967)" fill="black"/>
<rect width="4.90909" height="2.45455" transform="matrix(1 0 0 -1 4.90869 7.86377)" fill="#FFFEE4"/>
<rect width="4.90909" height="2.45455" transform="matrix(1 0 0 -1 4.90869 12.7734)" fill="white"/>
<rect width="2.45455" height="2.45455" transform="matrix(1 0 0 -1 2.45386 7.86426)" fill="black"/>
<rect width="4.90909" height="2.45455" transform="matrix(1 0 0 -1 2.45386 10.3188)" fill="#FFFEE4"/>
<rect width="4.90909" height="2.45455" transform="matrix(1 0 0 -1 7.36279 10.3188)" fill="white"/>
<rect width="2.45455" height="2.45455" transform="matrix(1 0 0 -1 9.81848 7.86377)" fill="white"/>
<rect width="9.16364" height="2.45455" transform="matrix(1 0 0 -1 7.36279 2.95508)" fill="black"/>
<rect width="9.16364" height="2.45455" transform="matrix(1 0 0 -1 7.36279 5.40918)" fill="#FFFEE4"/>
<rect x="16.5269" y="0.500488" width="40.2727" height="2.45455" fill="black"/>
<rect x="16.5269" y="2.95508" width="40.2727" height="2.45455" fill="#FFFEE4"/>
<rect width="40.2727" height="17.5455" transform="translate(16.5266 5.40967)" fill="#FFF885"/>
<rect x="16.5269" y="22.9551" width="40.2727" height="2.45455" fill="#FFF6A4"/>
<rect x="16.5269" y="25.4097" width="40.2727" height="2.45455" fill="black"/>
<rect width="14.0727" height="17.1818" transform="matrix(-1 -8.74228e-08 -8.74228e-08 1 70.8732 5.40967)" fill="#FFF885"/>
<rect x="68.418" y="5.40967" width="2.45455" height="2.45455" transform="rotate(-180 68.418 5.40967)" fill="black"/>
<rect x="70.8732" y="7.86426" width="2.45455" height="2.45455" transform="rotate(-180 70.8732 7.86426)" fill="black"/>
<rect x="73.3275" y="20.1372" width="2.45455" height="12.2727" transform="rotate(-180 73.3275 20.1372)" fill="black"/>
<rect x="65.9635" y="2.95557" width="9.16364" height="2.45455" transform="rotate(-180 65.9635 2.95557)" fill="black"/>
<rect x="65.9635" y="5.40967" width="9.16364" height="2.45455" transform="rotate(-180 65.9635 5.40967)" fill="#FFFEE4"/>
<rect width="2.45455" height="2.45455" transform="matrix(-1 -8.74228e-08 -8.74228e-08 1 68.418 22.5918)" fill="black"/>
<rect width="4.90909" height="2.45455" transform="matrix(-1 -8.74228e-08 -8.74228e-08 1 68.418 20.1372)" fill="#FFF6A4"/>
<rect width="2.45455" height="2.45455" transform="matrix(-1 -8.74228e-08 -8.74228e-08 1 70.8734 20.1372)" fill="black"/>
<rect width="4.90909" height="2.45455" transform="matrix(-1 -8.74228e-08 -8.74228e-08 1 70.8732 17.6821)" fill="#FFF6A4"/>
<rect width="9.16364" height="2.45455" transform="matrix(-1 -8.74228e-08 -8.74228e-08 1 65.9631 25.0459)" fill="black"/>
<rect width="9.16364" height="2.45455" transform="matrix(-1 -8.74228e-08 -8.74228e-08 1 65.9635 22.5918)" fill="#FFF6A4"/>
</svg>
