<svg width="39" height="39" viewBox="0 0 39 39" fill="none" xmlns="http://www.w3.org/2000/svg">
<path fill-rule="evenodd" clip-rule="evenodd" d="M11.5711 14.3775V14.3775H11.571V13.4254H11.5711V13.4253L15.3796 13.4253V14.3773H17.2838V15.3299L18.2358 15.3299V17.2335H19.1879V17.2971L30.804 17.2971V21.9943H29.1535V22.9463H27.9475V22.9466H26.9954V22.9463H24.139V22.9466H23.1869V21.9943H17.6012V21.9946H18.2357V22.9468H17.6012V23.8981H17.2837V23.899H15.3796V24.8504H11.5711L11.5711 23.8981H9.6668L9.6668 22.946H8.58774V21.0426H7.76251L7.76251 16.282H8.58774V15.0116H9.6667L9.6667 14.3775L10.6188 14.3775V15.0116H10.6189V14.3776H10.6189V14.3775L11.5711 14.3775ZM17.2836 17.2971V17.2337H15.3795V15.3295L14.4274 15.3295V16.2818L10.6189 16.2818L10.6189 21.9939H16.3317V17.2971H17.2836Z" fill="#FFAC00"/>
<g style="mix-blend-mode:multiply">
<path fill-rule="evenodd" clip-rule="evenodd" d="M11.5713 14.3775L11.5713 13.4253L15.3798 13.4253V14.3773H17.284V17.2337H15.3798V15.3295L14.4276 15.3295L14.4276 16.2818L10.6192 16.2818L10.6192 14.3775L11.5713 14.3775ZM10.6191 15.0116H8.58795L8.58795 22.946H9.66701L9.66701 23.8981H11.5713L11.5713 24.8504H15.3798L15.3798 23.8981H17.6014V21.9943H23.568V22.9463H29.1538V21.9943H30.8042V17.2971L16.3319 17.2971V21.9939H10.6191V15.0116Z" fill="#BBA5A5"/>
<path fill-rule="evenodd" clip-rule="evenodd" d="M11.5712 14.3774L13.4754 14.3774V13.4253L11.5712 13.4253V14.3774ZM10.619 16.2817L10.619 14.3774L9.66688 14.3774L9.66688 15.3296L8.71483 15.3296L8.71483 17.2339L9.66696 17.2339L9.66696 16.2817H10.619ZM8.71482 21.0425L8.71482 16.2819H7.7627L7.7627 21.0425H8.71482ZM30.8041 18.1856L19.1882 18.1856V19.1377L30.8041 19.1377V18.1856ZM24.1392 22.9465V21.0423H23.1871V22.9465H24.1392ZM27.9477 21.0423V22.9465H26.9955V21.0423H27.9477ZM12.5233 15.3296L10.619 15.3296V14.3775L12.5233 14.3775V15.3296Z" fill="white"/>
<path fill-rule="evenodd" clip-rule="evenodd" d="M16.3317 15.3296L16.3317 14.3774L17.2839 14.3774L17.2839 15.3296L16.3317 15.3296ZM18.236 17.2334H19.1881V18.1855L17.2838 18.1855L17.2838 17.2334H17.2839L17.2839 15.3298L18.236 15.3298V17.2334ZM16.3317 22.9467H18.2359V21.9946H16.3317L16.3317 22.9467ZM15.3796 23.8989H17.2839L17.2839 22.9468H15.3796L15.3796 23.8989ZM25.0913 21.0422H26.9955V20.0901H25.0913V21.0422Z" fill="#757575"/>
</g>
<path fill-rule="evenodd" clip-rule="evenodd" d="M11.5713 13.4253V12.4731L15.3798 12.4731V13.4253L11.5713 13.4253ZM15.3797 13.4254V14.3775L17.284 14.3775V13.4254L15.3797 13.4254ZM8.71484 14.3775H7.76272V16.2812H6.81067L6.81067 21.0425L6.81067 21.994V21.9946H7.76281V22.9466H8.71486V23.8982H9.66698V22.9461H8.71493V21.0424H7.76281V21.0425H7.76279L7.76279 16.2817L8.71484 16.2817V15.3297L9.66706 15.3297L9.66706 14.3776L8.71484 14.3776V14.3775ZM18.2361 14.3775H17.284V15.3296H18.2361V14.3775ZM16.3319 16.2812L15.3798 16.2812V15.3291L11.5713 15.3291V16.2812H15.3797V17.2334H16.3319V16.2812ZM10.6191 16.2812H11.5713V17.2334H10.6191V16.2812ZM11.5713 21.0424H10.6191L10.6191 21.9945H11.5713V21.0424ZM15.3797 21.0424H16.3319V21.9945H15.3798V22.9461H11.5713V21.994L15.3797 21.994V21.0424ZM18.2361 22.9461H17.284V23.8982H18.2361V22.9461ZM31.7563 17.2335L19.1883 17.2335V18.1856L31.7563 18.1856V17.2335ZM18.2362 15.3297H19.1883V17.234H18.2362V15.3297ZM11.5713 23.8983H10.6191V23.8984H9.66709V24.8506H10.6191V25.8026H11.5713V24.8506H11.5713V23.8984H11.5713V23.8983ZM15.3797 23.8983H16.3319V23.8984H17.2841V24.8506H16.3319V25.8026H15.3798V25.8028H11.5713V24.8507L15.3797 24.8507V23.8983ZM17.284 17.2335H16.3319V21.042H17.284V17.2335ZM9.66699 17.2335H10.6191V21.042H9.66699V17.2335ZM23.1872 21.0424H23.1872V21.9945H23.1872V22.9466H22.235V21.9945L19.1883 21.9945V22.9466H18.2362V21.0424H18.4266H19.1883H22.235H23.1872ZM30.8042 18.1857H31.7563V20.0899H30.8042V18.1857ZM30.8042 20.0901H29.8521V20.0903V21.0424V21.9944H30.8042V21.0424H31.7563V20.0903H30.8042V20.0901ZM28.8999 21.9946L29.852 21.9946V22.9462H29.8521V23.8983H29.852V23.8989L28.8999 23.8989V23.8983H26.9957V22.9462H28.8999V21.9946ZM26.9957 21.0424H25.0915V22.9466H26.9957V21.0424ZM23.1872 23.8983V22.9462H25.0914V23.8983H23.1872ZM9.66709 14.3775V13.4254L11.5713 13.4254V14.3775L9.66709 14.3775Z" fill="black"/>
</svg>
