<svg width="77" height="28" viewBox="0 0 77 28" fill="none" xmlns="http://www.w3.org/2000/svg">
<rect width="14.0727" height="17.1818" transform="matrix(1 0 0 -1 2.78156 22.5913)" fill="#E2E2E2"/>
<rect x="5.23639" y="22.5913" width="2.45455" height="2.45455" fill="black"/>
<rect x="5.23633" y="20.1367" width="4.90909" height="2.45455" fill="#7C7C7C"/>
<rect x="2.78156" y="20.1367" width="2.45455" height="2.45455" fill="black"/>
<rect x="2.78156" y="17.6821" width="4.90909" height="2.45455" fill="#7C7C7C"/>
<rect x="0.327454" y="7.86377" width="2.45455" height="12.2727" fill="black"/>
<rect x="7.69043" y="25.0454" width="9.16364" height="2.45455" fill="black"/>
<rect x="7.69043" y="22.5913" width="9.16364" height="2.45455" fill="#7C7C7C"/>
<rect width="2.45455" height="2.45455" transform="matrix(1 0 0 -1 5.23639 5.40967)" fill="black"/>
<rect width="4.90909" height="2.45455" transform="matrix(1 0 0 -1 5.23639 7.86377)" fill="#FFFEE4"/>
<rect width="4.90909" height="2.45455" transform="matrix(1 0 0 -1 5.23639 12.7734)" fill="white"/>
<rect width="2.45455" height="2.45455" transform="matrix(1 0 0 -1 2.78156 7.86426)" fill="black"/>
<rect width="4.90909" height="2.45455" transform="matrix(1 0 0 -1 2.78156 10.3188)" fill="#FFFEE4"/>
<rect width="4.90909" height="2.45455" transform="matrix(1 0 0 -1 7.69043 10.3188)" fill="white"/>
<rect width="2.45455" height="2.45455" transform="matrix(1 0 0 -1 10.1461 7.86377)" fill="white"/>
<rect width="9.16364" height="2.45455" transform="matrix(1 0 0 -1 7.69043 2.95508)" fill="black"/>
<rect width="9.16364" height="2.45455" transform="matrix(1 0 0 -1 7.69043 5.40918)" fill="#FFFEE4"/>
<rect x="16.8545" y="0.500488" width="43.2727" height="2.45455" fill="black"/>
<rect x="16.8545" y="2.95508" width="43.2727" height="2.45455" fill="#FFFEE4"/>
<rect width="43.2727" height="17.5455" transform="translate(16.8542 5.40967)" fill="#E2E2E2"/>
<rect x="16.8545" y="22.9551" width="43.2727" height="2.45455" fill="#7C7C7C"/>
<rect x="16.8545" y="25.4097" width="43.2727" height="2.45455" fill="black"/>
<rect width="14.0727" height="17.1818" transform="matrix(-1 -8.74228e-08 -8.74228e-08 1 74.2009 5.40967)" fill="#E2E2E2"/>
<rect x="71.7456" y="5.40967" width="2.45455" height="2.45455" transform="rotate(-180 71.7456 5.40967)" fill="black"/>
<rect x="74.2009" y="7.86426" width="2.45455" height="2.45455" transform="rotate(-180 74.2009 7.86426)" fill="black"/>
<rect x="76.6552" y="20.1372" width="2.45455" height="12.2727" transform="rotate(-180 76.6552 20.1372)" fill="black"/>
<rect x="69.2911" y="2.95557" width="9.16364" height="2.45455" transform="rotate(-180 69.2911 2.95557)" fill="black"/>
<rect x="69.2911" y="5.40967" width="9.16364" height="2.45455" transform="rotate(-180 69.2911 5.40967)" fill="#FFFEE4"/>
<rect width="2.45455" height="2.45455" transform="matrix(-1 -8.74228e-08 -8.74228e-08 1 71.7456 22.5918)" fill="black"/>
<rect width="4.90909" height="2.45455" transform="matrix(-1 -8.74228e-08 -8.74228e-08 1 71.7456 20.1372)" fill="#7C7C7C"/>
<rect width="2.45455" height="2.45455" transform="matrix(-1 -8.74228e-08 -8.74228e-08 1 74.201 20.1372)" fill="black"/>
<rect width="4.90909" height="2.45455" transform="matrix(-1 -8.74228e-08 -8.74228e-08 1 74.2009 17.6821)" fill="#7C7C7C"/>
<rect width="9.16364" height="2.45455" transform="matrix(-1 -8.74228e-08 -8.74228e-08 1 69.2908 25.0459)" fill="black"/>
<rect width="9.16364" height="2.45455" transform="matrix(-1 -8.74228e-08 -8.74228e-08 1 69.2911 22.5918)" fill="#7C7C7C"/>
</svg>
