<svg width="37" height="37" viewBox="0 0 37 37" fill="none" xmlns="http://www.w3.org/2000/svg">
<path fill-rule="evenodd" clip-rule="evenodd" d="M11.1551 14.2168L11.1551 13.3145L14.7643 13.3145V14.2166L16.5688 14.2166V14.2168H16.5689V15.1191H16.5688V16.9235L14.7643 16.9235V15.119L13.862 15.119L13.862 16.0214L10.2529 16.0214V16.0215H10.2528V21.4346H15.6666L15.6666 16.9836H16.569V16.9239H16.5689V15.1193H17.4712L17.4712 16.9233L18.3735 16.9233V16.9836L29.3813 16.9836V17.8258H29.3814V18.728H29.3813V21.4349H27.8174V22.3371H26.6745V22.3375L25.7723 22.3375V22.3371H23.0653V22.3375L22.1631 22.3375V21.4349H16.8696V21.4353H17.4712V22.3375H16.8696V23.2391H16.5689V23.2399H14.7644V23.2391H14.7643L14.7643 24.1415H11.1551L11.1551 23.2391H9.35054L9.35054 22.3368H8.32796L8.32796 20.5331H7.54602L7.54602 16.0217H8.32796V14.8178H9.35062V14.2169L10.2528 14.2169V14.2168L11.1551 14.2168Z" fill="#BBBBBB"/>
<g style="mix-blend-mode:multiply">
<path fill-rule="evenodd" clip-rule="evenodd" d="M11.1551 14.2168L11.1551 13.3145L14.7643 13.3145V14.2166H16.5688V16.9235L14.7642 16.9235V15.119L13.862 15.119L13.862 16.0214L10.2528 16.0214L10.2528 14.2168L11.1551 14.2168ZM10.2528 14.8178H8.32794V22.3368H9.35052L9.35052 23.2391H11.1551L11.1551 24.1415H14.7643L14.7643 23.2391H16.8696V21.4349H22.524V22.3371H27.8174V21.4349H29.3813V16.9836H15.6665V21.4346H10.2528V14.8178Z" fill="#BBA5A5"/>
<path fill-rule="evenodd" clip-rule="evenodd" d="M11.1552 14.2167L12.9597 14.2167V13.3145L11.1552 13.3145V14.2167ZM10.2529 16.0213V15.1191L12.0574 15.1191V14.2168L10.2529 14.2168V14.2167L9.35062 14.2167L9.35062 16.0213H10.2529ZM9.35061 15.1191L9.35061 16.9237H8.44832L8.44832 15.1191L9.35061 15.1191ZM8.44831 20.533L8.44831 16.0215H7.54602L7.54602 20.533H8.44831ZM29.3814 17.8256L18.3735 17.8256V18.7279L29.3814 18.7279V17.8256ZM23.0653 22.3373V20.5328H22.1631V22.3373L23.0653 22.3373ZM26.6745 20.5328V22.3373L25.7723 22.3373V20.5328L26.6745 20.5328Z" fill="white"/>
<path fill-rule="evenodd" clip-rule="evenodd" d="M15.6666 15.1191L15.6666 14.2168L16.5689 14.2168L16.5689 15.1191L15.6666 15.1191ZM16.5689 15.1193L16.5689 16.9239H16.5689L16.5689 17.8256L18.3735 17.8256V16.9233L17.4712 16.9233L17.4712 15.1193L16.5689 15.1193ZM15.6666 22.3375H17.4712V21.4352H15.6666L15.6666 22.3375ZM14.7643 23.2399H16.5689L16.5689 22.3376L14.7643 22.3376L14.7643 23.2399ZM23.9676 20.5327H25.7722V19.6304H23.9676V20.5327Z" fill="#757575"/>
</g>
<path fill-rule="evenodd" clip-rule="evenodd" d="M11.1552 13.3144V12.4121L14.7644 12.4121V13.3144L11.1552 13.3144ZM14.7643 13.3145V14.2168L16.5689 14.2168V13.3145L14.7643 13.3145ZM8.4483 14.2168H7.54601V16.0209H6.6438L6.6438 20.5329L6.6438 21.4346V21.4352H7.5461V22.3374H8.44832V23.2392H9.3506L9.3506 22.3369H8.44839L8.44839 20.5328H7.5461V20.5329H7.54609L7.54609 16.0214H8.4483V15.1192L9.35068 15.1192V14.2169L8.4483 14.2169V14.2168ZM17.4712 14.2168H16.5689V15.1191H17.4712V14.2168ZM15.6666 16.0209L14.7644 16.0209V15.1186L11.1552 15.1186V16.0209H14.7643V16.9232H15.6666V16.0209ZM10.2529 16.0209H11.1552L11.1552 16.9232H10.2529V16.0209ZM11.1552 20.5328H10.2529V21.4351H11.1552V20.5328ZM14.7643 20.5328H15.6666V21.4351H14.7644V22.3369H11.1552V21.4346L14.7643 21.4346V20.5328ZM17.4712 22.3369H16.5689V23.2392H17.4712L17.4712 22.3369ZM30.2838 16.9233L18.3735 16.9233V17.8255L30.2838 17.8255V16.9233ZM17.4712 15.1192H18.3735L18.3735 16.9238L17.4712 16.9238V15.1192ZM11.1552 23.2393H10.2529V23.2394H9.3507V24.1417H10.2529V25.0439H11.1552V24.1417H11.1553L11.1553 23.2394H11.1552V23.2393ZM14.7643 23.2393H15.6666V23.2394L16.569 23.2394V24.1417H15.6666V25.0439H14.7644V25.0441H11.1552V24.1418L14.7643 24.1418V23.2393ZM16.5689 16.9233H15.6666L15.6666 20.5324H16.5689V16.9233ZM9.35062 16.9233H10.2529V20.5324H9.35062V16.9233ZM22.1631 20.5328H22.1631V21.4351H22.1631V22.3374H21.2608V21.4351L18.3735 21.4351V22.3374H17.4712V20.5328H17.6517H18.3735H21.2608H22.1631ZM29.3815 17.8256H30.2837V19.6302H29.3815V17.8256ZM29.3814 19.6304H28.4792V19.6305V20.5328V21.435L29.3814 21.435V20.5328H30.2837L30.2837 19.6305H29.3814V19.6304ZM27.5769 21.4352H28.4791V22.337H28.4792V23.2393H28.4791V23.2398H27.5769V23.2393H25.7723V22.337H27.5769V21.4352ZM25.7723 20.5328H23.9677V22.3374H25.7723V20.5328ZM22.1631 23.2393V22.337H23.9677V23.2393H22.1631ZM9.3507 14.2168V13.3145L11.1553 13.3145L11.1553 14.2168L9.3507 14.2168Z" fill="black"/>
</svg>
