<svg width="31" height="28" viewBox="0 0 31 28" fill="none" xmlns="http://www.w3.org/2000/svg">
<path fill-rule="evenodd" clip-rule="evenodd" d="M16.8636 0.363506L14.1364 0.363506L14.1364 1.72714L12.7727 1.72714L12.7727 3.09078L11.4091 3.09078L11.4091 5.81805L10.0455 5.81805L10.0455 8.54532L8.68182 8.54532L8.68182 9.90896L7.31818 9.90896L7.31818 12.6362L5.95454 12.6362L5.95454 15.3635L4.59091 15.3635L4.59091 16.7271L3.22727 16.7271L3.22727 19.4544L1.86364 19.4544L1.86364 22.1817L0.5 22.1817L0.5 26.2726L1.86364 26.2726L1.86364 27.6362L29.1364 27.6362L29.1364 26.2726L30.5 26.2726L30.5 22.1817L29.1364 22.1817L29.1364 19.4544L27.7727 19.4544L27.7727 16.7271L26.4091 16.7271L26.4091 15.3635L25.0455 15.3635L25.0455 12.6362L23.6818 12.6362L23.6818 9.90896L22.3182 9.90896L22.3182 8.54532L20.9545 8.54532L20.9545 5.81805L19.5909 5.81805L19.5909 3.09078L18.2273 3.09078L18.2273 1.72714L16.8636 1.72714L16.8636 0.363506ZM14.8073 10.6077L14.1146 10.6077L14.1146 11.3005L14.1146 11.9932L14.1146 12.686L14.1146 13.3788L14.1146 14.0715L14.1146 14.7643L14.1146 15.457L14.1146 16.1498L14.1146 16.8425L14.1146 17.5353L14.8073 17.5353L14.8073 18.228L14.8073 18.9208L14.8073 19.6136L14.8073 20.3063L15.5001 20.3063L16.1928 20.3063L16.1928 19.6136L16.1928 18.9208L16.1928 18.228L16.1928 17.5353L16.8856 17.5353L16.8856 16.8425L16.8856 16.1498L16.8856 15.457L16.8856 14.7643L16.8856 14.0715L16.8856 13.3788L16.8856 12.686L16.8856 11.9932L16.8856 11.3005L16.8856 10.6077L16.1928 10.6077L15.5001 10.6077L14.8073 10.6077ZM14.8073 21.6918L14.1146 21.6918L14.1146 22.3846L14.1146 23.0773L14.1146 23.7701L14.1146 24.4629L14.8073 24.4629L15.5001 24.4629L16.1928 24.4629L16.8856 24.4629L16.8856 23.7701L16.8856 23.0773L16.8856 22.3846L16.8856 21.6918L16.1928 21.6918L15.5001 21.6918L14.8073 21.6918Z" fill="#DA1F1F"/>
</svg>
