<svg width="31" height="30" viewBox="0 0 31 30" fill="none" xmlns="http://www.w3.org/2000/svg">
<path d="M29.1364 9.54545V8.18182H27.7727V6.81818H26.4091V5.45455H25.0455V4.09091H23.6818V2.72727H22.3182V1.36364H20.9545V0H10.0455V1.36364H8.68182V2.72727H7.31818V4.09091H5.95455V5.45455H4.59091V6.81818H3.22727V8.18182H1.86364V9.54545H0.5V20.4545H1.86364V21.8182H3.22727V23.1818H4.59091V24.5455H5.95455V25.9091H7.31818V27.2727H8.68182V28.6364H10.0455V30H20.9545V28.6364H22.3182V27.2727H23.6818V25.9091H25.0455V24.5455H26.4091V23.1818H27.7727V21.8182H29.1364V20.4545H30.5V9.54545H29.1364ZM12.7727 12.2727V13.6364H15.5V12.2727H16.8636V10.9091H18.2273V9.54545H20.9545V10.9091H22.3182V13.6364H20.9545V15H19.5909V16.3636H18.2273V17.7273H16.8636V19.0909H15.5V20.4545H12.7727V19.0909H11.4091V17.7273H10.0455V16.3636H8.68182V13.6364H10.0455V12.2727H12.7727Z" fill="#00BA64"/>
</svg>
