<svg width="34" height="34" viewBox="0 0 34 34" fill="none" xmlns="http://www.w3.org/2000/svg">
<path fill-rule="evenodd" clip-rule="evenodd" d="M10.1792 6.84473H11.3108V7.97624H10.1792V6.84473ZM9.04677 7.9772H7.91617V9.10818H6.78482V10.2397H7.91633V9.10871H9.04677H9.04768H10.1783V7.9772H9.04768H9.04677ZM5.65197 9.10818H6.78348V10.2397H5.65326V11.3707H4.52175V10.2391H5.65197V9.10818ZM13.5729 6.84473H12.4436H12.4423H11.3121V7.97624H12.4423H12.4436H13.5729H13.5738H14.7043H14.7044H15.8358V6.84473H14.7044H14.7043H13.5738H13.5729ZM18.0988 7.9772H16.9673V9.10871H18.0988V7.9772ZM19.2315 9.10818H20.363V10.2397H19.2315V9.10818ZM16.9686 6.84473H15.8371V7.97624H16.9686V6.84473ZM18.0991 7.9772H19.2306V9.10871H18.0991V7.9772ZM21.4948 9.10818H20.3633V10.2397H21.4946V11.3707H22.626V12.5016H23.7575V11.3701H22.6261V10.2391H21.4948V9.10818ZM23.7566 12.5026H24.8881V13.6336V13.6341V14.7651H23.7566V13.6341V13.6336V12.5026ZM26.0194 14.766H24.8879V15.897V15.8976V17.0285H26.0194V15.8976V15.897V14.766ZM26.0208 17.0295H27.1523V18.1605V18.161V19.2914V19.292V20.4224V20.4229V21.5539H26.0208V20.4229V20.4224V19.292V19.2914V18.161V18.1605V17.0295ZM26.0208 21.5549H27.1523V22.6859V22.6864V23.8174H26.0208V22.6864V22.6859V21.5549ZM26.0194 23.8168H24.8879V24.9483H26.0194V23.8168ZM23.7566 26.0803H24.8879V24.9493H26.0194V26.0808H24.8881V27.2113V27.2118V28.3428H23.7566V27.2118V27.2113V26.0803ZM22.626 28.3437H23.7575V29.4752H22.6261V30.6062H21.4948V31.7372H20.3633V30.6057H21.4946V29.4747H22.626V28.3437ZM19.2306 31.7382H18.0991V32.8697H19.2306V31.7382ZM19.2315 30.6057H20.363V31.7372H19.2315V30.6057ZM18.0988 31.7382H16.9673V32.8691H15.8371V34.0006H16.9686V32.8697H18.0988V31.7382ZM3.39003 11.3701H4.52154V12.5016H3.39003V11.3701ZM3.38906 12.5026H2.25755V13.6336V13.6341V14.7651H3.38906V13.6341V13.6336V12.5026ZM1.12808 26.0808H2.25755V27.2113V27.2118V28.3428H3.38906V27.2118V27.2113V26.0803H2.25959V24.9493H1.12808V26.0808ZM2.25959 14.766H1.12808V15.897V15.8976V17.0285H2.25959V15.8976V15.897V14.766ZM1.12808 23.8168H2.25959V24.9483H1.12808V23.8168ZM1.12712 17.0295H-0.00439453V18.1605V18.161V19.2914V19.292V20.4224V20.4229V21.5539H1.12712V20.4229V20.4224V19.292V19.2914V18.161V18.1605V17.0295ZM4.52154 28.3437H3.39003V29.4752H4.52154V28.3437ZM4.52175 29.4747H5.65326V30.6057H6.78348V31.7372H5.65197V30.6062H4.52175V29.4747ZM6.78482 30.6057H7.91633V31.7372H6.78482V30.6057ZM9.04677 31.7382H7.91617V32.8697H9.04677H9.04768H10.1783V31.7382H9.04768H9.04677ZM10.1792 32.8691H11.3108V34.0006H10.1792V32.8691ZM13.5729 32.8691H12.4436H12.4423H11.3121V34.0006H12.4423H12.4436H13.5729H13.5738H14.7043H14.7044H15.8358V32.8691H14.7044H14.7043H13.5738H13.5729ZM1.12712 21.5549H-0.00439453V22.6859V22.6864V23.8174H1.12712V22.6864V22.6859V21.5549ZM5.42683 21.7808H6.55834V22.9123H5.42683V21.7808Z" fill="black"/>
<path fill-rule="evenodd" clip-rule="evenodd" d="M16.965 7.97559H10.1759V9.10656H7.91397V11.3696H10.177V10.2386H16.965V7.97559ZM5.6509 10.239H7.91392V12.5021H6.78107V13.633H5.64972V14.764H3.3867V12.501H4.51805V11.37H5.6509V10.239ZM4.52025 14.7644H2.25723V17.0274H4.52025V14.7644ZM3.38778 23.8167H4.52025V26.0797H2.25723V23.8169H1.12476V17.0279H3.38778V23.8167ZM5.64972 26.0802H3.3867V28.3432H4.51805V29.4742H5.6509V30.6051H7.91392V28.3421H6.78107V27.2111H5.64972V26.0802ZM7.91397 29.4746H10.177V30.6056H16.965V32.8686H10.1759V31.7376H7.91397V29.4746ZM21.4912 30.6051H19.2293V31.7376H16.9663V29.4746H19.2282V28.3421H20.3607V27.2111H21.4924V26.0802H23.7554V28.3432H22.6237V29.4742H21.4912V30.6051ZM23.7551 23.8167H22.6226V26.0797H24.8857V23.8169H26.0181V17.0279H23.7551V23.8167ZM22.6226 14.7644H24.8857V17.0274H22.6226V14.7644ZM23.7554 12.501H22.6237V11.37H21.4912V10.239H19.2293V9.10656H16.9663V11.3696H19.2282V12.5021H20.3607V13.633H21.4924V14.764H23.7554V12.501Z" fill="#ED1B24"/>
<path fill-rule="evenodd" clip-rule="evenodd" d="M16.8999 12.4796L10.177 12.4796V12.5021H10.1382V13.606L9.011 13.606V14.7325H7.88417V15.8604H6.77466V16.9643H4.52069L4.52069 14.7103H5.6302V13.6065L6.75703 13.6065L6.75703 12.4785L7.88424 12.4785V11.352L10.138 11.352V10.2256L16.8999 10.2256V12.4796ZM22.6244 23.7622H21.4935V16.973H23.7566V23.7622H23.7559V23.8171H22.6246V26.0799H21.4931V26.0166H21.4844V26.0788H21.4928V27.2103H20.3613V27.1475H20.3531V27.2113H20.3626V28.3428H19.2311V28.28H19.2214V28.3423H19.2299V29.4738H16.9669V28.3423H16.9674V27.157H18.0991V26.0261H19.2305V24.8936H20.3622V23.7626H22.6162V23.8169H22.6244V23.7622ZM16.9669 28.288H10.1777V30.5511H16.9669V28.288ZM4.52069 26.0166H5.65204L5.65204 27.1475H6.78376L6.78376 28.28H7.91511V29.411H10.1691V27.157H9.03773V26.0261H7.90601V24.8936H6.77466L6.77466 23.7626H4.52069L4.52069 26.0166ZM19.2214 12.4469L20.3531 12.4469V13.5778L21.4844 13.5778V14.7103L22.6162 14.7103V16.9643H20.3622V15.8318H19.2305V14.7008H18.0991V13.5699L16.9674 13.5699V11.3159L19.2214 11.3159V12.4469ZM3.38892 23.7622H5.65197L5.65197 16.973H3.38892L3.38892 23.7622Z" fill="white"/>
<path fill-rule="evenodd" clip-rule="evenodd" d="M11.3021 14.7113L15.8374 14.7113V15.8332L16.9687 15.8332V16.9642H18.1005V18.0967H19.2318V22.6316H18.1005V23.7625H16.9687V24.895H15.8374V26.0259L11.3021 26.0259V24.895H10.1704V23.7625H9.03906L9.03906 22.6316H7.91637L7.91637 18.0967H9.03906L9.03906 16.9642H10.1704V15.8332L11.3021 15.8332V14.7113ZM10.1795 27.149H9.04817L9.04817 26.0165H7.91644L7.91644 24.8855H6.7851L6.7851 23.7636H5.65332L5.65332 16.9744H6.7851L6.7851 15.8427L7.91644 15.8427L7.91644 14.7102L9.04817 14.7102L9.04817 13.5793L10.1795 13.5793V12.4482L16.9687 12.4482V13.5793L18.0914 13.5793V14.7102L19.2227 14.7102V15.8427L20.3544 15.8427V16.9744H21.4948V23.7636H20.3544V24.8855H19.2227V26.0165H18.0914V27.149H16.9687V28.289L10.1795 28.289V27.149Z" fill="#ED1B24"/>
<path fill-rule="evenodd" clip-rule="evenodd" d="M11.3099 26.0254L15.836 26.0254L15.836 24.8944L16.9674 24.8944L16.9674 23.7619L18.0991 23.7619L18.0991 22.631L19.2305 22.631L19.2305 18.1049L18.0991 18.1049L18.0991 16.9735L16.9674 16.9735L16.9674 15.841L15.836 15.841L15.836 14.71L13.573 14.71L13.573 16.9731L14.7043 16.9731L14.7043 18.1041L15.8361 18.1041L15.8361 19.2365L16.9674 19.2365L16.9674 21.4989L15.8361 21.4989L15.8361 22.6314L14.7043 22.6314L14.7043 23.7623L12.4413 23.7623L12.4413 22.6314L11.3099 22.6314L11.3099 21.4989L10.1782 21.4989L10.1782 19.2365L11.3099 19.2365L11.3099 18.1041L12.4413 18.1041L12.4413 16.9731L13.573 16.9731L13.573 14.71L11.3099 14.71L11.3099 15.841L10.1782 15.841L10.1782 16.9735L9.04685 16.9735L9.04685 18.1049L7.91512 18.1049L7.91512 22.631L9.04685 22.631L9.04685 23.7619L10.1782 23.7619L10.1782 24.8944L11.3099 24.8944L11.3099 26.0254Z" fill="white"/>
<path fill-rule="evenodd" clip-rule="evenodd" d="M13.573 19.2367H13.573V20.3677L12.4413 20.3677V20.3681L13.573 20.3681V21.499H13.573V20.3681H14.7044V20.3677H13.573V19.2367ZM14.7043 18.1046V16.9736L12.4413 16.9736V18.1046L11.3099 18.1046L11.3099 19.2371L10.1782 19.2371L10.1782 21.5001H11.3099L11.3099 22.6311H12.4413V23.7621H14.7043V22.6311H15.8361V21.5001H16.9674V19.2371H15.8361V18.1046L14.7043 18.1046Z" fill="#ED1B24"/>
<path fill-rule="evenodd" clip-rule="evenodd" d="M28.2813 4.52513V-0.000976562H27.1497V1.13166H26.0184V2.26319H27.1497V4.52513V5.65761H26.0184V6.78858H24.8867V7.92106H23.7553V9.05203H22.6236V10.183H21.4922V11.3155H20.3605V12.4465H19.2292V13.5774H18.0974V14.7099H16.9661V15.8409H15.8344V16.9734H14.703V18.1043H13.5713V19.2353H12.4399V21.4983H14.703V20.3674H15.8343V19.2364H16.9661V18.1039H18.0974V16.973H19.2291V15.8405H20.3605V14.7095H21.4922V13.5785H22.6236V12.4461H23.7553V11.3151H24.8866V10.1841H24.8867V11.3155H29.4128L29.4128 10.184H26.0184V9.05163H27.1497V7.92066H28.2814V6.78818H29.4128V4.52513H28.2813ZM26.0182 3.39416H24.8868V4.52513H23.7553V3.3936H24.8867V2.26263H26.0182V3.39416ZM22.6236 4.52513H23.7551V9.05124H22.6236V4.52513ZM30.5443 10.183H29.4128V9.05147H30.5443V10.183ZM31.6761 9.05203H30.5445V7.9205H31.6759V6.78953H32.8074V7.92106H31.6761V9.05203ZM29.4128 6.78913V5.65761H33.9389L33.9389 6.78913H29.4128Z" fill="#58595B"/>
</svg>
