<svg width="38" height="35" viewBox="0 0 38 35" fill="none" xmlns="http://www.w3.org/2000/svg">
<rect x="7.00024" y="6.00098" width="24" height="24" fill="#E2B436"/>
<path fill-rule="evenodd" clip-rule="evenodd" d="M31.0002 2H7.00017V4H31.0002V2ZM31.0002 32.0008H7.00017V34.0008H31.0002V32.0008ZM3.00024 30.0008H5.00021V32.0004H7.00021V30.0004H5.00024V6.00082H3.00024V30.0008ZM33.0001 30.0004H31.0002V32.0004H33.0002V30.0008H35.0001V6.00082H33.0001V30.0004ZM5.00021 4.00041H7.00021V6.00041H5.00021V4.00041ZM11.0001 7.99943H9.00013V9.99943H11.0001V8.00082H25.0001V6.00082H11.0001V7.99943ZM7.00017 9.99985H9.00017V13.9998H7.00017V9.99985ZM21.0001 14.0007H9.00013V16.0007H13.0001V19.9993H15.0001V16.0007H21.0001V14.0007ZM15.0005 12.0003H21.0005V14.0003H15.0005V12.0003ZM21.0005 20.0001H15.0005V22.0001H21.0005V20.0001ZM15.0005 25.9995H21.0003V22.0005H23.0003V26.0005H21.0005V27.9995H15.0005V25.9995ZM15.0001 22.0005H13.0001V26.0005H15.0001V22.0005ZM21.0003 17.9997H25.0003V19.9997H21.0003V17.9997ZM29.0002 15.9998H27.0003V17.9993H25.0003V15.9993H27.0002V9.99985H29.0002V15.9998ZM25.0003 7.99943H27.0003V9.99943H25.0003V7.99943ZM33.0002 4.00041H31.0002V6.00041H33.0002V4.00041Z" fill="black"/>
<path fill-rule="evenodd" clip-rule="evenodd" d="M13.0001 4.00098H31.0001V6.00098H13.0001V4.00098ZM33.0002 6.00139H31.0002V30.0009H7.00021V32.0009H31.0002V30.0014H33.0002V6.00139ZM7.00024 12.0008H5.00024V30.0008H7.00024V12.0008Z" fill="#CF8934"/>
<rect x="5.00024" y="6.00098" width="2" height="6" fill="white"/>
<rect x="7.00024" y="4" width="2" height="4" fill="white"/>
<rect x="9.00024" y="4" width="4" height="2" fill="white"/>
<rect x="9.00024" y="10" width="6" height="4" fill="white"/>
<rect x="11" y="7.99902" width="14" height="4" fill="white"/>
<rect x="21.0002" y="10" width="6" height="6" fill="white"/>
<rect x="15.0005" y="15.999" width="6" height="4" fill="white"/>
<rect x="21.0002" y="15.999" width="4" height="2" fill="white"/>
<rect x="15.0005" y="22.001" width="6" height="4" fill="white"/>
</svg>
