<svg width="38" height="35" viewBox="0 0 38 35" fill="none" xmlns="http://www.w3.org/2000/svg">
<rect x="14.7505" y="32.2637" width="1.75" height="1.73684" fill="#010101"/>
<rect x="11.2505" y="30.5254" width="1.75" height="1.73684" fill="#010101"/>
<rect x="11.2505" y="9.68359" width="1.75" height="1.73684" fill="#010101"/>
<rect x="25.2505" y="9.68359" width="1.75" height="1.73684" fill="#010101"/>
<rect x="16.5002" y="32.2637" width="1.75" height="1.73684" fill="#010101"/>
<rect x="13.0002" y="30.5254" width="1.75" height="1.73684" fill="#010101"/>
<rect x="13.0002" y="9.68359" width="1.75" height="1.73684" fill="#010101"/>
<rect x="14.7505" y="4.47363" width="1.75" height="5.21053" fill="#010101"/>
<rect x="13.0002" y="1" width="1.75" height="3.47368" fill="#010101"/>
<rect x="25.2505" y="1" width="1.75" height="3.47368" fill="#010101"/>
<rect x="23.5002" y="4.47363" width="1.75" height="5.21053" fill="#010101"/>
<rect x="27.0002" y="9.68359" width="1.75" height="1.73684" fill="#010101"/>
<rect x="18.2505" y="32.2637" width="1.75" height="1.73684" fill="#010101"/>
<rect x="20.0002" y="32.2637" width="1.75" height="1.73684" fill="#010101"/>
<rect x="21.7505" y="32.2637" width="1.75" height="1.73684" fill="#010101"/>
<rect x="25.2505" y="30.5254" width="1.75" height="1.73684" fill="#010101"/>
<rect x="23.5002" y="32.2637" width="1.75" height="1.73684" fill="#010101"/>
<rect x="27.0002" y="30.5254" width="1.75" height="1.73684" fill="#010101"/>
<rect x="28.7502" y="28.7891" width="1.75" height="1.73684" fill="#010101"/>
<rect x="28.7502" y="11.4219" width="1.75" height="1.73684" fill="#010101"/>
<rect x="23.5002" y="1" width="1.75" height="1.73684" fill="#010101"/>
<rect x="14.7505" y="1" width="1.75" height="1.73684" fill="#010101"/>
<rect x="16.5002" y="1" width="1.75" height="1.73684" fill="#CF9751"/>
<rect x="16.5002" y="4.47363" width="1.75" height="1.73684" fill="#8F6252"/>
<rect x="16.5002" y="2.73633" width="1.75" height="1.73684" fill="#CF9751"/>
<rect x="18.2505" y="1" width="3.5" height="5.21053" fill="#F2B961"/>
<rect x="18.2505" y="9.68359" width="7" height="3.47368" fill="#4EF2F4"/>
<rect x="14.7505" y="9.68359" width="3.5" height="3.47368" fill="#36DEF8"/>
<rect x="7.75049" y="16.6318" width="1.75" height="8.68421" fill="#36DEF8"/>
<rect x="9.50024" y="25.3154" width="1.75" height="3.47368" fill="#36DEF8"/>
<rect x="9.50024" y="21.8418" width="1.75" height="3.47368" fill="#4C724D"/>
<rect x="9.50024" y="18.3682" width="1.75" height="3.47368" fill="#9DC749"/>
<rect x="11.2505" y="20.1055" width="1.75" height="3.47368" fill="#9DC749"/>
<rect x="13.0002" y="21.8418" width="1.75" height="3.47368" fill="#9DC749"/>
<rect x="27.0002" y="21.8418" width="1.75" height="5.21053" fill="#9DC749"/>
<rect x="28.7502" y="20.1055" width="1.75" height="5.21053" fill="#9DC749"/>
<rect x="14.7505" y="23.5791" width="10.5" height="3.47368" fill="#9DC749"/>
<rect x="18.2505" y="25.3154" width="8.75" height="3.47368" fill="#9DC749"/>
<rect x="21.7505" y="27.0537" width="3.5" height="3.47368" fill="#9DC749"/>
<rect x="13.0002" y="21.8418" width="14" height="1.73684" fill="#9DC749"/>
<rect x="13.0002" y="14.8936" width="12.25" height="6.94737" fill="#D0F38B"/>
<rect x="25.2505" y="16.6318" width="1.75" height="5.21053" fill="#D0F38B"/>
<rect x="28.7502" y="16.6318" width="1.75" height="3.47368" fill="#D0F38B"/>
<rect x="27.0002" y="14.8936" width="1.75" height="1.73684" fill="#D0F38B"/>
<rect x="9.50024" y="16.6318" width="1.75" height="1.73684" fill="#D0F38B"/>
<rect x="11.2505" y="14.8936" width="1.75" height="5.21053" fill="#D0F38B"/>
<rect x="11.2505" y="23.5791" width="1.75" height="3.47368" fill="#4C724D"/>
<rect x="13.0002" y="25.3154" width="1.75" height="3.47368" fill="#4C724D"/>
<rect x="14.7505" y="27.0537" width="1.75" height="3.47368" fill="#4C724D"/>
<rect x="16.5002" y="27.0537" width="1.75" height="3.47368" fill="#4C724D"/>
<rect x="18.2505" y="28.7891" width="3.5" height="1.73684" fill="#4C724D"/>
<rect x="11.2505" y="27.0537" width="1.75" height="3.47368" fill="#36DEF8"/>
<rect x="14.7505" y="30.5254" width="10.5" height="1.73684" fill="#36DEF8"/>
<rect x="25.2505" y="28.7891" width="3.5" height="1.73684" fill="#36DEF8"/>
<rect x="13.0002" y="28.7891" width="1.75" height="1.73684" fill="#36DEF8"/>
<rect x="30.5002" y="16.6318" width="1.75" height="8.68421" fill="#D6FBF5"/>
<rect x="28.7502" y="25.3154" width="1.75" height="3.47368" fill="#D6FBF5"/>
<rect x="27.0002" y="27.0537" width="1.75" height="1.73684" fill="#D6FBF5"/>
<rect x="25.2505" y="23.5791" width="1.75" height="1.73684" fill="#D6FBF5"/>
<rect x="27.0002" y="16.6318" width="1.75" height="5.21053" fill="#D6FBF5"/>
<rect x="28.7502" y="13.1582" width="1.75" height="3.47368" fill="#D6FBF5"/>
<rect x="9.50024" y="13.1582" width="1.75" height="3.47368" fill="#D6FBF5"/>
<rect x="11.2505" y="11.4219" width="1.75" height="3.47368" fill="#D6FBF5"/>
<rect x="13.0002" y="11.4219" width="1.75" height="3.47368" fill="#D6FBF5"/>
<rect width="1.75" height="1.73684" transform="matrix(1 0 0 -1 27.0002 13.1582)" fill="#D6FBF5"/>
<rect width="19.25" height="1.73684" transform="matrix(1 0 0 -1 9.50024 14.8936)" fill="#D6FBF5"/>
<rect x="25.2505" y="11.4219" width="1.75" height="5.21053" fill="#D6FBF5"/>
<rect x="20.0002" y="1" width="3.5" height="3.47368" fill="#F2B961"/>
<rect x="16.5002" y="6.20996" width="1.75" height="1.73684" fill="#8F6252"/>
<rect x="18.2505" y="6.20996" width="1.75" height="1.73684" fill="#A6814A"/>
<rect x="20.0002" y="6.20996" width="1.75" height="1.73684" fill="#A6814A"/>
<rect x="21.7505" y="6.20996" width="1.75" height="1.73684" fill="#A6814A"/>
<rect x="21.7505" y="4.47363" width="1.75" height="1.73684" fill="#A6814A"/>
<rect x="16.5002" y="7.94727" width="1.75" height="1.73684" fill="#8F6252"/>
<rect x="18.2505" y="7.94727" width="1.75" height="1.73684" fill="#A6814A"/>
<rect x="20.0002" y="7.94727" width="1.75" height="1.73684" fill="#A6814A"/>
<rect x="21.7505" y="7.94727" width="1.75" height="1.73684" fill="#A6814A"/>
<rect x="9.50024" y="28.7891" width="1.75" height="1.73684" fill="#010101"/>
<rect x="9.50024" y="11.4219" width="1.75" height="1.73684" fill="#010101"/>
<rect x="30.5002" y="25.3154" width="1.75" height="3.47368" fill="#010101"/>
<rect x="30.5002" y="13.1582" width="1.75" height="3.47368" fill="#010101"/>
<rect x="7.75049" y="25.3154" width="1.75" height="3.47368" fill="#010101"/>
<rect x="7.75049" y="13.1582" width="1.75" height="3.47368" fill="#010101"/>
<rect x="32.2502" y="16.6318" width="1.75" height="8.68421" fill="#010101"/>
<rect x="6.00024" y="16.6318" width="1.75" height="8.68421" fill="#010101"/>
</svg>
